<svg width="34" height="30" viewBox="0 0 34 30" fill="none" xmlns="http://www.w3.org/2000/svg">
<g clip-path="url(#clip0)">
<path d="M33.6135 22.3722C33.3413 21.6794 32.5709 21.343 31.887 21.6188C31.203 21.8946 30.8709 22.6749 31.1432 23.3677C31.4885 24.2422 31.3756 25.2444 30.8377 26.0448C30.2999 26.8453 29.4432 27.3027 28.487 27.3027H5.51704C4.46782 27.3027 3.53813 26.7511 3.02681 25.8229C2.51548 24.8946 2.54204 23.7982 3.09321 22.8969L14.5815 4.05605C15.0995 3.20179 16.0092 2.69058 16.9987 2.69058C17.9948 2.69058 18.8979 3.20179 19.4225 4.06278L27.9159 17.9933C28.301 18.6256 29.1178 18.8206 29.742 18.4305C30.3663 18.0404 30.5588 17.213 30.1737 16.5807L21.687 2.6435C20.6709 0.988789 18.9245 0 16.9987 0C15.0729 0 13.3264 0.988789 12.317 2.6435L0.828759 21.4843C-0.233741 23.2332 -0.280226 25.3453 0.702587 27.1345C1.69204 28.9305 3.49165 30 5.51704 30H28.487C30.3397 30 31.9999 29.1121 33.0424 27.5583C34.0717 26.0179 34.2842 24.074 33.6135 22.3722Z" fill="#F5D343"/>
<path d="M17 24.6861C17.7305 24.6861 18.3281 24.0807 18.3281 23.3408C18.3281 22.6009 17.7305 21.9955 17 21.9955C16.2695 21.9955 15.6719 22.6009 15.6719 23.3408C15.6719 24.0807 16.2695 24.6861 17 24.6861Z" fill="#F5D343"/>
<path d="M18.3281 18.6322V8.74434C18.3281 8.00443 17.7305 7.39905 17 7.39905C16.2695 7.39905 15.6719 8.00443 15.6719 8.74434V18.6322C15.6719 19.3721 16.2695 19.9775 17 19.9775C17.7371 19.9775 18.3281 19.3721 18.3281 18.6322Z" fill="#F5D343"/>
</g>
<defs>
<clipPath id="clip0">
<rect width="34" height="30" fill="white"/>
</clipPath>
</defs>
</svg>
