<svg width="242" height="454" viewBox="0 0 242 454" fill="none" xmlns="http://www.w3.org/2000/svg">
<path d="M205.878 377.296H0.765625V420.153H205.878V377.296Z" fill="#362A24"/>
<path d="M205.878 436.99H0.765625V449.235H205.878V436.99Z" fill="#A2D9F7"/>
<path d="M206.643 450H0V436.224H206.643V450ZM1.53069 448.469H205.112V437.755H1.53069V448.469Z" fill="#574C45"/>
<path d="M133.935 291.582L129.343 322.194H77.3001L72.708 291.582V196.684H133.935V291.582Z" fill="#F9F8F4"/>
<path d="M129.955 322.959H76.6875L71.9424 291.735V195.918H134.701V291.735L129.955 322.959ZM77.9121 321.429H128.578L133.017 291.582V197.449H73.4731V291.582L77.9121 321.429Z" fill="#574C45"/>
<path d="M149.243 181.378L133.936 196.684H72.7082L57.4014 181.378V58.9286H149.243V181.378Z" fill="#F9F8F4"/>
<path d="M134.242 197.449H72.4018L56.6357 181.684V58.1633H150.008V181.684L134.242 197.449ZM73.0141 195.918H133.629L148.477 181.071V59.6939H58.1664V181.071L73.0141 195.918Z" fill="#574C45"/>
<path d="M179.856 103.316H149.242V140.051H179.856V103.316Z" fill="#F9F8F4"/>
<path d="M180.621 140.816H148.477V102.551H180.621V140.816ZM150.007 139.286H179.09V104.082H150.007V139.286Z" fill="#574C45"/>
<path d="M133.935 0.76532H72.708V86.4796H133.935V0.76532Z" fill="#F9F8F4"/>
<path d="M134.701 87.2449H71.9424V0H134.701V87.2449ZM73.4731 85.7143H133.17V1.53061H73.4731V85.7143Z" fill="#574C45"/>
<path d="M114.036 86.4796H92.6064V89.5408H114.036V86.4796Z" fill="#F9F8F4"/>
<path d="M114.801 90.3061H91.8408V85.7143H114.801V90.3061ZM93.3715 88.7755H113.27V87.2449H93.3715V88.7755Z" fill="#574C45"/>
<path d="M120.159 185.969H86.4844V94.1327H91.0764V89.5408H115.567V94.1327H120.159V185.969Z" fill="white"/>
<path d="M120.925 186.735H85.7188V93.3673H90.3108V88.7755H116.332V93.3673H120.925V186.735ZM87.2494 185.204H119.394V94.898H114.802V90.3061H91.8415V94.898H87.2494V185.204Z" fill="#574C45"/>
<path d="M120.159 314.541L115.567 319.133H91.0764L86.4844 314.541V170.663L103.322 185.969L120.159 170.663V314.541Z" fill="#F5D343"/>
<path d="M115.873 319.898H90.77L85.7188 314.847V168.98L103.322 185.051L120.925 168.98V314.847L115.873 319.898ZM91.3823 318.367H115.261L119.394 314.235V172.347L103.322 186.888L87.2494 172.347V314.235L91.3823 318.367Z" fill="#574C45"/>
<path d="M118.628 0.76532H88.0146V86.4796H100.26V436.99H106.383V86.4796H118.628V0.76532Z" fill="#A2D9F7"/>
<path d="M107.148 437.755H99.4945V87.2449H87.249V0H119.393V87.2449H107.148V437.755ZM101.025 436.224H105.617V85.7143H117.863V1.53061H88.7797V85.7143H101.025V436.224Z" fill="#574C45"/>
<path d="M118.628 86.4796H106.383V74.2347C113.118 74.2347 118.628 79.7449 118.628 86.4796Z" fill="#F9F8F4"/>
<path d="M119.393 87.2449H105.617V73.4694H106.383C113.577 73.4694 119.393 79.2857 119.393 86.4796V87.2449ZM107.148 85.7143H117.863C117.557 80.051 112.964 75.4592 107.148 75V85.7143Z" fill="#574C45"/>
<path d="M88.0146 86.4796H100.26V74.2347C93.5251 74.2347 88.0146 79.7449 88.0146 86.4796Z" fill="#F9F8F4"/>
<path d="M101.025 87.2449H87.249V86.4796C87.249 79.2857 93.0656 73.4694 100.26 73.4694H101.025V87.2449ZM88.7797 85.7143H99.4945V75C93.831 75.4592 89.2389 80.051 88.7797 85.7143Z" fill="#574C45"/>
<path d="M210.469 114.031H120.924V129.337H210.469V114.031Z" fill="white"/>
<path d="M210.469 114.031V129.337H120.924V114.031H210.469ZM212 112.5H210.469H120.924H119.394V114.031V129.337V130.867H120.924H210.469H212V129.337V114.031V112.5Z" fill="#574C45"/>
<path d="M204.346 118.622C205.191 118.622 205.877 117.937 205.877 117.092C205.877 116.246 205.191 115.561 204.346 115.561C203.501 115.561 202.815 116.246 202.815 117.092C202.815 117.937 203.501 118.622 204.346 118.622Z" fill="#574C45"/>
<path d="M207.408 123.214C208.253 123.214 208.938 122.529 208.938 121.684C208.938 120.838 208.253 120.153 207.408 120.153C206.562 120.153 205.877 120.838 205.877 121.684C205.877 122.529 206.562 123.214 207.408 123.214Z" fill="#574C45"/>
<path d="M204.346 126.276C205.191 126.276 205.877 125.59 205.877 124.745C205.877 123.9 205.191 123.214 204.346 123.214C203.501 123.214 202.815 123.9 202.815 124.745C202.815 125.59 203.501 126.276 204.346 126.276Z" fill="#574C45"/>
<path d="M201.286 121.684C202.131 121.684 202.816 120.998 202.816 120.153C202.816 119.308 202.131 118.622 201.286 118.622C200.44 118.622 199.755 119.308 199.755 120.153C199.755 120.998 200.44 121.684 201.286 121.684Z" fill="#574C45"/>
<path d="M199.754 124.745C200.6 124.745 201.285 124.06 201.285 123.214C201.285 122.369 200.6 121.684 199.754 121.684C198.909 121.684 198.224 122.369 198.224 123.214C198.224 124.06 198.909 124.745 199.754 124.745Z" fill="#574C45"/>
<path d="M196.693 126.276C197.538 126.276 198.223 125.59 198.223 124.745C198.223 123.9 197.538 123.214 196.693 123.214C195.847 123.214 195.162 123.9 195.162 124.745C195.162 125.59 195.847 126.276 196.693 126.276Z" fill="#574C45"/>
<path d="M196.693 121.684C197.538 121.684 198.223 120.998 198.223 120.153C198.223 119.308 197.538 118.622 196.693 118.622C195.847 118.622 195.162 119.308 195.162 120.153C195.162 120.998 195.847 121.684 196.693 121.684Z" fill="#574C45"/>
<path d="M192.101 118.622C192.946 118.622 193.632 117.937 193.632 117.092C193.632 116.246 192.946 115.561 192.101 115.561C191.256 115.561 190.57 116.246 190.57 117.092C190.57 117.937 191.256 118.622 192.101 118.622Z" fill="#574C45"/>
<path d="M192.101 123.214C192.946 123.214 193.632 122.529 193.632 121.684C193.632 120.838 192.946 120.153 192.101 120.153C191.256 120.153 190.57 120.838 190.57 121.684C190.57 122.529 191.256 123.214 192.101 123.214Z" fill="#574C45"/>
<path d="M190.571 126.276C191.416 126.276 192.101 125.59 192.101 124.745C192.101 123.9 191.416 123.214 190.571 123.214C189.725 123.214 189.04 123.9 189.04 124.745C189.04 125.59 189.725 126.276 190.571 126.276Z" fill="#574C45"/>
<path d="M187.509 124.745C188.355 124.745 189.04 124.06 189.04 123.214C189.04 122.369 188.355 121.684 187.509 121.684C186.664 121.684 185.979 122.369 185.979 123.214C185.979 124.06 186.664 124.745 187.509 124.745Z" fill="#574C45"/>
<path d="M187.509 120.153C188.355 120.153 189.04 119.468 189.04 118.622C189.04 117.777 188.355 117.092 187.509 117.092C186.664 117.092 185.979 117.777 185.979 118.622C185.979 119.468 186.664 120.153 187.509 120.153Z" fill="#574C45"/>
<path d="M182.916 123.214C183.762 123.214 184.447 122.529 184.447 121.684C184.447 120.838 183.762 120.153 182.916 120.153C182.071 120.153 181.386 120.838 181.386 121.684C181.386 122.529 182.071 123.214 182.916 123.214Z" fill="#574C45"/>
<path d="M179.856 121.684C180.701 121.684 181.387 120.998 181.387 120.153C181.387 119.308 180.701 118.622 179.856 118.622C179.011 118.622 178.325 119.308 178.325 120.153C178.325 120.998 179.011 121.684 179.856 121.684Z" fill="#574C45"/>
<path d="M175.263 123.214C176.108 123.214 176.794 122.529 176.794 121.684C176.794 120.838 176.108 120.153 175.263 120.153C174.418 120.153 173.732 120.838 173.732 121.684C173.732 122.529 174.418 123.214 175.263 123.214Z" fill="#574C45"/>
<path d="M170.671 121.684C171.517 121.684 172.202 120.998 172.202 120.153C172.202 119.308 171.517 118.622 170.671 118.622C169.826 118.622 169.141 119.308 169.141 120.153C169.141 120.998 169.826 121.684 170.671 121.684Z" fill="#574C45"/>
<path d="M170.671 126.276C171.517 126.276 172.202 125.59 172.202 124.745C172.202 123.9 171.517 123.214 170.671 123.214C169.826 123.214 169.141 123.9 169.141 124.745C169.141 125.59 169.826 126.276 170.671 126.276Z" fill="#574C45"/>
<path d="M179.856 126.276C180.701 126.276 181.387 125.59 181.387 124.745C181.387 123.9 180.701 123.214 179.856 123.214C179.011 123.214 178.325 123.9 178.325 124.745C178.325 125.59 179.011 126.276 179.856 126.276Z" fill="#574C45"/>
<path d="M166.08 120.153C166.925 120.153 167.61 119.468 167.61 118.622C167.61 117.777 166.925 117.092 166.08 117.092C165.234 117.092 164.549 117.777 164.549 118.622C164.549 119.468 165.234 120.153 166.08 120.153Z" fill="#574C45"/>
<path d="M166.08 124.745C166.925 124.745 167.61 124.06 167.61 123.214C167.61 122.369 166.925 121.684 166.08 121.684C165.234 121.684 164.549 122.369 164.549 123.214C164.549 124.06 165.234 124.745 166.08 124.745Z" fill="#574C45"/>
<path d="M163.018 126.276C163.863 126.276 164.549 125.59 164.549 124.745C164.549 123.9 163.863 123.214 163.018 123.214C162.173 123.214 161.487 123.9 161.487 124.745C161.487 125.59 162.173 126.276 163.018 126.276Z" fill="#574C45"/>
<path d="M158.426 126.276C159.272 126.276 159.957 125.59 159.957 124.745C159.957 123.9 159.272 123.214 158.426 123.214C157.581 123.214 156.896 123.9 156.896 124.745C156.896 125.59 157.581 126.276 158.426 126.276Z" fill="#574C45"/>
<path d="M159.956 121.684C160.802 121.684 161.487 120.998 161.487 120.153C161.487 119.308 160.802 118.622 159.956 118.622C159.111 118.622 158.426 119.308 158.426 120.153C158.426 120.998 159.111 121.684 159.956 121.684Z" fill="#574C45"/>
<path d="M155.365 118.622C156.21 118.622 156.895 117.937 156.895 117.092C156.895 116.246 156.21 115.561 155.365 115.561C154.519 115.561 153.834 116.246 153.834 117.092C153.834 117.937 154.519 118.622 155.365 118.622Z" fill="#574C45"/>
<path d="M153.833 123.214C154.679 123.214 155.364 122.529 155.364 121.684C155.364 120.838 154.679 120.153 153.833 120.153C152.988 120.153 152.303 120.838 152.303 121.684C152.303 122.529 152.988 123.214 153.833 123.214Z" fill="#574C45"/>
<path d="M150.773 120.153C151.618 120.153 152.304 119.468 152.304 118.622C152.304 117.777 151.618 117.092 150.773 117.092C149.927 117.092 149.242 117.777 149.242 118.622C149.242 119.468 149.927 120.153 150.773 120.153Z" fill="#574C45"/>
<path d="M144.65 120.153C145.495 120.153 146.18 119.468 146.18 118.622C146.18 117.777 145.495 117.092 144.65 117.092C143.804 117.092 143.119 117.777 143.119 118.622C143.119 119.468 143.804 120.153 144.65 120.153Z" fill="#574C45"/>
<path d="M146.18 123.214C147.025 123.214 147.711 122.529 147.711 121.684C147.711 120.838 147.025 120.153 146.18 120.153C145.335 120.153 144.649 120.838 144.649 121.684C144.649 122.529 145.335 123.214 146.18 123.214Z" fill="#574C45"/>
<path d="M150.773 126.276C151.618 126.276 152.304 125.59 152.304 124.745C152.304 123.9 151.618 123.214 150.773 123.214C149.927 123.214 149.242 123.9 149.242 124.745C149.242 125.59 149.927 126.276 150.773 126.276Z" fill="#574C45"/>
<path d="M144.65 126.276C145.495 126.276 146.18 125.59 146.18 124.745C146.18 123.9 145.495 123.214 144.65 123.214C143.804 123.214 143.119 123.9 143.119 124.745C143.119 125.59 143.804 126.276 144.65 126.276Z" fill="#574C45"/>
<path d="M141.588 123.214C142.434 123.214 143.119 122.529 143.119 121.684C143.119 120.838 142.434 120.153 141.588 120.153C140.743 120.153 140.058 120.838 140.058 121.684C140.058 122.529 140.743 123.214 141.588 123.214Z" fill="#574C45"/>
<path d="M138.527 126.276C139.372 126.276 140.057 125.59 140.057 124.745C140.057 123.9 139.372 123.214 138.527 123.214C137.681 123.214 136.996 123.9 136.996 124.745C136.996 125.59 137.681 126.276 138.527 126.276Z" fill="#574C45"/>
<path d="M136.997 121.684C137.842 121.684 138.527 120.998 138.527 120.153C138.527 119.308 137.842 118.622 136.997 118.622C136.151 118.622 135.466 119.308 135.466 120.153C135.466 120.998 136.151 121.684 136.997 121.684Z" fill="#574C45"/>
<path d="M138.527 118.622C139.372 118.622 140.057 117.937 140.057 117.092C140.057 116.246 139.372 115.561 138.527 115.561C137.681 115.561 136.996 116.246 136.996 117.092C136.996 117.937 137.681 118.622 138.527 118.622Z" fill="#574C45"/>
<path d="M132.405 120.153C133.25 120.153 133.935 119.468 133.935 118.622C133.935 117.777 133.25 117.092 132.405 117.092C131.559 117.092 130.874 117.777 130.874 118.622C130.874 119.468 131.559 120.153 132.405 120.153Z" fill="#574C45"/>
<path d="M133.935 123.214C134.78 123.214 135.466 122.529 135.466 121.684C135.466 120.838 134.78 120.153 133.935 120.153C133.09 120.153 132.404 120.838 132.404 121.684C132.404 122.529 133.09 123.214 133.935 123.214Z" fill="#574C45"/>
<path d="M130.873 126.276C131.719 126.276 132.404 125.59 132.404 124.745C132.404 123.9 131.719 123.214 130.873 123.214C130.028 123.214 129.343 123.9 129.343 124.745C129.343 125.59 130.028 126.276 130.873 126.276Z" fill="#574C45"/>
<path d="M127.812 124.745C128.657 124.745 129.343 124.06 129.343 123.214C129.343 122.369 128.657 121.684 127.812 121.684C126.967 121.684 126.281 122.369 126.281 123.214C126.281 124.06 126.967 124.745 127.812 124.745Z" fill="#574C45"/>
<path d="M123.22 121.684C124.066 121.684 124.751 120.998 124.751 120.153C124.751 119.308 124.066 118.622 123.22 118.622C122.375 118.622 121.689 119.308 121.689 120.153C121.689 120.998 122.375 121.684 123.22 121.684Z" fill="#574C45"/>
<path d="M123.22 124.745C124.066 124.745 124.751 124.06 124.751 123.214C124.751 122.369 124.066 121.684 123.22 121.684C122.375 121.684 121.689 122.369 121.689 123.214C121.689 124.06 122.375 124.745 123.22 124.745Z" fill="#574C45"/>
<path d="M120.159 123.214C121.004 123.214 121.689 122.529 121.689 121.684C121.689 120.838 121.004 120.153 120.159 120.153C119.313 120.153 118.628 120.838 118.628 121.684C118.628 122.529 119.313 123.214 120.159 123.214Z" fill="#574C45"/>
<path d="M117.097 120.153C117.942 120.153 118.628 119.468 118.628 118.622C118.628 117.777 117.942 117.092 117.097 117.092C116.252 117.092 115.566 117.777 115.566 118.622C115.566 119.468 116.252 120.153 117.097 120.153Z" fill="#574C45"/>
<path d="M117.097 126.276C117.942 126.276 118.628 125.59 118.628 124.745C118.628 123.9 117.942 123.214 117.097 123.214C116.252 123.214 115.566 123.9 115.566 124.745C115.566 125.59 116.252 126.276 117.097 126.276Z" fill="#574C45"/>
<path d="M114.036 123.214C114.881 123.214 115.566 122.529 115.566 121.684C115.566 120.838 114.881 120.153 114.036 120.153C113.19 120.153 112.505 120.838 112.505 121.684C112.505 122.529 113.19 123.214 114.036 123.214Z" fill="#574C45"/>
<path d="M114.036 118.622C114.881 118.622 115.566 117.937 115.566 117.092C115.566 116.246 114.881 115.561 114.036 115.561C113.19 115.561 112.505 116.246 112.505 117.092C112.505 117.937 113.19 118.622 114.036 118.622Z" fill="#574C45"/>
<path d="M110.975 121.684C111.82 121.684 112.506 120.998 112.506 120.153C112.506 119.308 111.82 118.622 110.975 118.622C110.13 118.622 109.444 119.308 109.444 120.153C109.444 120.998 110.13 121.684 110.975 121.684Z" fill="#574C45"/>
<path d="M106.382 123.214C107.228 123.214 107.913 122.529 107.913 121.684C107.913 120.838 107.228 120.153 106.382 120.153C105.537 120.153 104.852 120.838 104.852 121.684C104.852 122.529 105.537 123.214 106.382 123.214Z" fill="#574C45"/>
<path d="M110.975 127.806C111.82 127.806 112.506 127.121 112.506 126.276C112.506 125.43 111.82 124.745 110.975 124.745C110.13 124.745 109.444 125.43 109.444 126.276C109.444 127.121 110.13 127.806 110.975 127.806Z" fill="#574C45"/>
<path d="M114.036 130.867C114.881 130.867 115.566 130.182 115.566 129.337C115.566 128.491 114.881 127.806 114.036 127.806C113.19 127.806 112.505 128.491 112.505 129.337C112.505 130.182 113.19 130.867 114.036 130.867Z" fill="#574C45"/>
<path d="M101.79 124.745C102.636 124.745 103.321 124.06 103.321 123.214C103.321 122.369 102.636 121.684 101.79 121.684C100.945 121.684 100.26 122.369 100.26 123.214C100.26 124.06 100.945 124.745 101.79 124.745Z" fill="#574C45"/>
<path d="M98.7289 129.337C99.5743 129.337 100.26 128.651 100.26 127.806C100.26 126.961 99.5743 126.276 98.7289 126.276C97.8836 126.276 97.1982 126.961 97.1982 127.806C97.1982 128.651 97.8836 129.337 98.7289 129.337Z" fill="#574C45"/>
<path d="M103.322 129.337C104.167 129.337 104.852 128.651 104.852 127.806C104.852 126.961 104.167 126.276 103.322 126.276C102.476 126.276 101.791 126.961 101.791 127.806C101.791 128.651 102.476 129.337 103.322 129.337Z" fill="#574C45"/>
<path d="M107.913 130.867C108.759 130.867 109.444 130.182 109.444 129.337C109.444 128.491 108.759 127.806 107.913 127.806C107.068 127.806 106.383 128.491 106.383 129.337C106.383 130.182 107.068 130.867 107.913 130.867Z" fill="#574C45"/>
<path d="M109.444 133.929C110.289 133.929 110.974 133.243 110.974 132.398C110.974 131.553 110.289 130.867 109.444 130.867C108.598 130.867 107.913 131.553 107.913 132.398C107.913 133.243 108.598 133.929 109.444 133.929Z" fill="#574C45"/>
<path d="M103.322 133.929C104.167 133.929 104.852 133.243 104.852 132.398C104.852 131.553 104.167 130.867 103.322 130.867C102.476 130.867 101.791 131.553 101.791 132.398C101.791 133.243 102.476 133.929 103.322 133.929Z" fill="#574C45"/>
<path d="M100.26 132.398C101.106 132.398 101.791 131.713 101.791 130.867C101.791 130.022 101.106 129.337 100.26 129.337C99.4148 129.337 98.7295 130.022 98.7295 130.867C98.7295 131.713 99.4148 132.398 100.26 132.398Z" fill="#574C45"/>
<path d="M97.1987 135.459C98.044 135.459 98.7293 134.774 98.7293 133.929C98.7293 133.083 98.044 132.398 97.1987 132.398C96.3533 132.398 95.668 133.083 95.668 133.929C95.668 134.774 96.3533 135.459 97.1987 135.459Z" fill="#574C45"/>
<path d="M95.6674 138.52C96.5128 138.52 97.1981 137.835 97.1981 136.99C97.1981 136.144 96.5128 135.459 95.6674 135.459C94.822 135.459 94.1367 136.144 94.1367 136.99C94.1367 137.835 94.822 138.52 95.6674 138.52Z" fill="#574C45"/>
<path d="M98.7289 138.52C99.5743 138.52 100.26 137.835 100.26 136.99C100.26 136.144 99.5743 135.459 98.7289 135.459C97.8836 135.459 97.1982 136.144 97.1982 136.99C97.1982 137.835 97.8836 138.52 98.7289 138.52Z" fill="#574C45"/>
<path d="M106.382 140.051C107.228 140.051 107.913 139.366 107.913 138.52C107.913 137.675 107.228 136.99 106.382 136.99C105.537 136.99 104.852 137.675 104.852 138.52C104.852 139.366 105.537 140.051 106.382 140.051Z" fill="#574C45"/>
<path d="M103.322 138.52C104.167 138.52 104.852 137.835 104.852 136.99C104.852 136.144 104.167 135.459 103.322 135.459C102.476 135.459 101.791 136.144 101.791 136.99C101.791 137.835 102.476 138.52 103.322 138.52Z" fill="#574C45"/>
<path d="M109.444 144.643C110.289 144.643 110.974 143.958 110.974 143.112C110.974 142.267 110.289 141.582 109.444 141.582C108.598 141.582 107.913 142.267 107.913 143.112C107.913 143.958 108.598 144.643 109.444 144.643Z" fill="#574C45"/>
<path d="M106.382 146.173C107.228 146.173 107.913 145.488 107.913 144.643C107.913 143.798 107.228 143.112 106.382 143.112C105.537 143.112 104.852 143.798 104.852 144.643C104.852 145.488 105.537 146.173 106.382 146.173Z" fill="#574C45"/>
<path d="M101.79 144.643C102.636 144.643 103.321 143.958 103.321 143.112C103.321 142.267 102.636 141.582 101.79 141.582C100.945 141.582 100.26 142.267 100.26 143.112C100.26 143.958 100.945 144.643 101.79 144.643Z" fill="#574C45"/>
<path d="M97.1987 144.643C98.044 144.643 98.7293 143.958 98.7293 143.112C98.7293 142.267 98.044 141.582 97.1987 141.582C96.3533 141.582 95.668 142.267 95.668 143.112C95.668 143.958 96.3533 144.643 97.1987 144.643Z" fill="#574C45"/>
<path d="M94.1371 150.765C94.9825 150.765 95.6678 150.08 95.6678 149.235C95.6678 148.389 94.9825 147.704 94.1371 147.704C93.2918 147.704 92.6064 148.389 92.6064 149.235C92.6064 150.08 93.2918 150.765 94.1371 150.765Z" fill="#574C45"/>
<path d="M98.7289 149.235C99.5743 149.235 100.26 148.549 100.26 147.704C100.26 146.859 99.5743 146.173 98.7289 146.173C97.8836 146.173 97.1982 146.859 97.1982 147.704C97.1982 148.549 97.8836 149.235 98.7289 149.235Z" fill="#574C45"/>
<path d="M103.322 150.765C104.167 150.765 104.852 150.08 104.852 149.235C104.852 148.389 104.167 147.704 103.322 147.704C102.476 147.704 101.791 148.389 101.791 149.235C101.791 150.08 102.476 150.765 103.322 150.765Z" fill="#574C45"/>
<path d="M107.913 150.765C108.759 150.765 109.444 150.08 109.444 149.235C109.444 148.389 108.759 147.704 107.913 147.704C107.068 147.704 106.383 148.389 106.383 149.235C106.383 150.08 107.068 150.765 107.913 150.765Z" fill="#574C45"/>
<path d="M110.975 153.827C111.82 153.827 112.506 153.141 112.506 152.296C112.506 151.451 111.82 150.765 110.975 150.765C110.13 150.765 109.444 151.451 109.444 152.296C109.444 153.141 110.13 153.827 110.975 153.827Z" fill="#574C45"/>
<path d="M107.913 156.888C108.759 156.888 109.444 156.202 109.444 155.357C109.444 154.512 108.759 153.827 107.913 153.827C107.068 153.827 106.383 154.512 106.383 155.357C106.383 156.202 107.068 156.888 107.913 156.888Z" fill="#574C45"/>
<path d="M104.852 155.357C105.697 155.357 106.383 154.672 106.383 153.827C106.383 152.981 105.697 152.296 104.852 152.296C104.007 152.296 103.321 152.981 103.321 153.827C103.321 154.672 104.007 155.357 104.852 155.357Z" fill="#574C45"/>
<path d="M101.79 153.827C102.636 153.827 103.321 153.141 103.321 152.296C103.321 151.451 102.636 150.765 101.79 150.765C100.945 150.765 100.26 151.451 100.26 152.296C100.26 153.141 100.945 153.827 101.79 153.827Z" fill="#574C45"/>
<path d="M97.1987 155.357C98.044 155.357 98.7293 154.672 98.7293 153.827C98.7293 152.981 98.044 152.296 97.1987 152.296C96.3533 152.296 95.668 152.981 95.668 153.827C95.668 154.672 96.3533 155.357 97.1987 155.357Z" fill="#574C45"/>
<path d="M94.1371 158.418C94.9825 158.418 95.6678 157.733 95.6678 156.888C95.6678 156.042 94.9825 155.357 94.1371 155.357C93.2918 155.357 92.6064 156.042 92.6064 156.888C92.6064 157.733 93.2918 158.418 94.1371 158.418Z" fill="#574C45"/>
<path d="M97.1987 161.48C98.044 161.48 98.7293 160.794 98.7293 159.949C98.7293 159.104 98.044 158.418 97.1987 158.418C96.3533 158.418 95.668 159.104 95.668 159.949C95.668 160.794 96.3533 161.48 97.1987 161.48Z" fill="#574C45"/>
<path d="M101.79 158.418C102.636 158.418 103.321 157.733 103.321 156.888C103.321 156.042 102.636 155.357 101.79 155.357C100.945 155.357 100.26 156.042 100.26 156.888C100.26 157.733 100.945 158.418 101.79 158.418Z" fill="#574C45"/>
<path d="M97.1987 166.071C98.044 166.071 98.7293 165.386 98.7293 164.541C98.7293 163.695 98.044 163.01 97.1987 163.01C96.3533 163.01 95.668 163.695 95.668 164.541C95.668 165.386 96.3533 166.071 97.1987 166.071Z" fill="#574C45"/>
<path d="M94.1371 163.01C94.9825 163.01 95.6678 162.325 95.6678 161.48C95.6678 160.634 94.9825 159.949 94.1371 159.949C93.2918 159.949 92.6064 160.634 92.6064 161.48C92.6064 162.325 93.2918 163.01 94.1371 163.01Z" fill="#574C45"/>
<path d="M101.79 163.01C102.636 163.01 103.321 162.325 103.321 161.48C103.321 160.634 102.636 159.949 101.79 159.949C100.945 159.949 100.26 160.634 100.26 161.48C100.26 162.325 100.945 163.01 101.79 163.01Z" fill="#574C45"/>
<path d="M110.975 163.01C111.82 163.01 112.506 162.325 112.506 161.48C112.506 160.634 111.82 159.949 110.975 159.949C110.13 159.949 109.444 160.634 109.444 161.48C109.444 162.325 110.13 163.01 110.975 163.01Z" fill="#574C45"/>
<path d="M106.382 161.48C107.228 161.48 107.913 160.794 107.913 159.949C107.913 159.104 107.228 158.418 106.382 158.418C105.537 158.418 104.852 159.104 104.852 159.949C104.852 160.794 105.537 161.48 106.382 161.48Z" fill="#574C45"/>
<path d="M107.913 166.071C108.759 166.071 109.444 165.386 109.444 164.541C109.444 163.695 108.759 163.01 107.913 163.01C107.068 163.01 106.383 163.695 106.383 164.541C106.383 165.386 107.068 166.071 107.913 166.071Z" fill="#574C45"/>
<path d="M110.975 169.133C111.82 169.133 112.506 168.447 112.506 167.602C112.506 166.757 111.82 166.071 110.975 166.071C110.13 166.071 109.444 166.757 109.444 167.602C109.444 168.447 110.13 169.133 110.975 169.133Z" fill="#574C45"/>
<path d="M106.382 170.663C107.228 170.663 107.913 169.978 107.913 169.133C107.913 168.287 107.228 167.602 106.382 167.602C105.537 167.602 104.852 168.287 104.852 169.133C104.852 169.978 105.537 170.663 106.382 170.663Z" fill="#574C45"/>
<path d="M101.79 167.602C102.636 167.602 103.321 166.917 103.321 166.071C103.321 165.226 102.636 164.541 101.79 164.541C100.945 164.541 100.26 165.226 100.26 166.071C100.26 166.917 100.945 167.602 101.79 167.602Z" fill="#574C45"/>
<path d="M98.7289 172.194C99.5743 172.194 100.26 171.509 100.26 170.663C100.26 169.818 99.5743 169.133 98.7289 169.133C97.8836 169.133 97.1982 169.818 97.1982 170.663C97.1982 171.509 97.8836 172.194 98.7289 172.194Z" fill="#574C45"/>
<path d="M95.6674 170.663C96.5128 170.663 97.1981 169.978 97.1981 169.133C97.1981 168.287 96.5128 167.602 95.6674 167.602C94.822 167.602 94.1367 168.287 94.1367 169.133C94.1367 169.978 94.822 170.663 95.6674 170.663Z" fill="#574C45"/>
<path d="M94.1371 173.724C94.9825 173.724 95.6678 173.039 95.6678 172.194C95.6678 171.349 94.9825 170.663 94.1371 170.663C93.2918 170.663 92.6064 171.349 92.6064 172.194C92.6064 173.039 93.2918 173.724 94.1371 173.724Z" fill="#574C45"/>
<path d="M97.1987 178.316C98.044 178.316 98.7293 177.631 98.7293 176.786C98.7293 175.94 98.044 175.255 97.1987 175.255C96.3533 175.255 95.668 175.94 95.668 176.786C95.668 177.631 96.3533 178.316 97.1987 178.316Z" fill="#574C45"/>
<path d="M100.26 182.908C101.106 182.908 101.791 182.223 101.791 181.378C101.791 180.532 101.106 179.847 100.26 179.847C99.4148 179.847 98.7295 180.532 98.7295 181.378C98.7295 182.223 99.4148 182.908 100.26 182.908Z" fill="#574C45"/>
<path d="M103.322 173.724C104.167 173.724 104.852 173.039 104.852 172.194C104.852 171.349 104.167 170.663 103.322 170.663C102.476 170.663 101.791 171.349 101.791 172.194C101.791 173.039 102.476 173.724 103.322 173.724Z" fill="#574C45"/>
<path d="M100.26 176.786C101.106 176.786 101.791 176.1 101.791 175.255C101.791 174.41 101.106 173.724 100.26 173.724C99.4148 173.724 98.7295 174.41 98.7295 175.255C98.7295 176.1 99.4148 176.786 100.26 176.786Z" fill="#574C45"/>
<path d="M103.322 181.378C104.167 181.378 104.852 180.692 104.852 179.847C104.852 179.002 104.167 178.316 103.322 178.316C102.476 178.316 101.791 179.002 101.791 179.847C101.791 180.692 102.476 181.378 103.322 181.378Z" fill="#574C45"/>
<path d="M107.913 176.786C108.759 176.786 109.444 176.1 109.444 175.255C109.444 174.41 108.759 173.724 107.913 173.724C107.068 173.724 106.383 174.41 106.383 175.255C106.383 176.1 107.068 176.786 107.913 176.786Z" fill="#574C45"/>
<path d="M110.975 173.724C111.82 173.724 112.506 173.039 112.506 172.194C112.506 171.349 111.82 170.663 110.975 170.663C110.13 170.663 109.444 171.349 109.444 172.194C109.444 173.039 110.13 173.724 110.975 173.724Z" fill="#574C45"/>
<path d="M112.505 176.786C113.351 176.786 114.036 176.1 114.036 175.255C114.036 174.41 113.351 173.724 112.505 173.724C111.66 173.724 110.975 174.41 110.975 175.255C110.975 176.1 111.66 176.786 112.505 176.786Z" fill="#574C45"/>
<path d="M107.913 181.378C108.759 181.378 109.444 180.692 109.444 179.847C109.444 179.002 108.759 178.316 107.913 178.316C107.068 178.316 106.383 179.002 106.383 179.847C106.383 180.692 107.068 181.378 107.913 181.378Z" fill="#574C45"/>
<path d="M104.852 178.316C105.697 178.316 106.383 177.631 106.383 176.786C106.383 175.94 105.697 175.255 104.852 175.255C104.007 175.255 103.321 175.94 103.321 176.786C103.321 177.631 104.007 178.316 104.852 178.316Z" fill="#574C45"/>
<path d="M101.79 185.969C102.636 185.969 103.321 185.284 103.321 184.439C103.321 183.593 102.636 182.908 101.79 182.908C100.945 182.908 100.26 183.593 100.26 184.439C100.26 185.284 100.945 185.969 101.79 185.969Z" fill="#574C45"/>
<path d="M104.852 190.561C105.697 190.561 106.383 189.876 106.383 189.031C106.383 188.185 105.697 187.5 104.852 187.5C104.007 187.5 103.321 188.185 103.321 189.031C103.321 189.876 104.007 190.561 104.852 190.561Z" fill="#574C45"/>
<path d="M101.79 190.561C102.636 190.561 103.321 189.876 103.321 189.031C103.321 188.185 102.636 187.5 101.79 187.5C100.945 187.5 100.26 188.185 100.26 189.031C100.26 189.876 100.945 190.561 101.79 190.561Z" fill="#574C45"/>
<path d="M101.79 195.153C102.636 195.153 103.321 194.468 103.321 193.622C103.321 192.777 102.636 192.092 101.79 192.092C100.945 192.092 100.26 192.777 100.26 193.622C100.26 194.468 100.945 195.153 101.79 195.153Z" fill="#574C45"/>
<path d="M104.852 199.745C105.697 199.745 106.383 199.06 106.383 198.214C106.383 197.369 105.697 196.684 104.852 196.684C104.007 196.684 103.321 197.369 103.321 198.214C103.321 199.06 104.007 199.745 104.852 199.745Z" fill="#574C45"/>
<path d="M101.79 201.276C102.636 201.276 103.321 200.59 103.321 199.745C103.321 198.9 102.636 198.214 101.79 198.214C100.945 198.214 100.26 198.9 100.26 199.745C100.26 200.59 100.945 201.276 101.79 201.276Z" fill="#574C45"/>
<path d="M104.852 196.684C105.697 196.684 106.383 195.998 106.383 195.153C106.383 194.308 105.697 193.622 104.852 193.622C104.007 193.622 103.321 194.308 103.321 195.153C103.321 195.998 104.007 196.684 104.852 196.684Z" fill="#574C45"/>
<path d="M104.852 204.337C105.697 204.337 106.383 203.651 106.383 202.806C106.383 201.961 105.697 201.276 104.852 201.276C104.007 201.276 103.321 201.961 103.321 202.806C103.321 203.651 104.007 204.337 104.852 204.337Z" fill="#574C45"/>
<path d="M101.79 207.398C102.636 207.398 103.321 206.713 103.321 205.867C103.321 205.022 102.636 204.337 101.79 204.337C100.945 204.337 100.26 205.022 100.26 205.867C100.26 206.713 100.945 207.398 101.79 207.398Z" fill="#574C45"/>
<path d="M104.852 211.99C105.697 211.99 106.383 211.304 106.383 210.459C106.383 209.614 105.697 208.929 104.852 208.929C104.007 208.929 103.321 209.614 103.321 210.459C103.321 211.304 104.007 211.99 104.852 211.99Z" fill="#574C45"/>
<path d="M101.79 213.52C102.636 213.52 103.321 212.835 103.321 211.99C103.321 211.144 102.636 210.459 101.79 210.459C100.945 210.459 100.26 211.144 100.26 211.99C100.26 212.835 100.945 213.52 101.79 213.52Z" fill="#574C45"/>
<path d="M103.322 216.582C104.167 216.582 104.852 215.896 104.852 215.051C104.852 214.206 104.167 213.52 103.322 213.52C102.476 213.52 101.791 214.206 101.791 215.051C101.791 215.896 102.476 216.582 103.322 216.582Z" fill="#574C45"/>
<path d="M104.852 222.704C105.697 222.704 106.383 222.019 106.383 221.173C106.383 220.328 105.697 219.643 104.852 219.643C104.007 219.643 103.321 220.328 103.321 221.173C103.321 222.019 104.007 222.704 104.852 222.704Z" fill="#574C45"/>
<path d="M101.79 219.643C102.636 219.643 103.321 218.958 103.321 218.112C103.321 217.267 102.636 216.582 101.79 216.582C100.945 216.582 100.26 217.267 100.26 218.112C100.26 218.958 100.945 219.643 101.79 219.643Z" fill="#574C45"/>
<path d="M101.79 224.235C102.636 224.235 103.321 223.549 103.321 222.704C103.321 221.859 102.636 221.173 101.79 221.173C100.945 221.173 100.26 221.859 100.26 222.704C100.26 223.549 100.945 224.235 101.79 224.235Z" fill="#574C45"/>
<path d="M104.852 227.296C105.697 227.296 106.383 226.611 106.383 225.765C106.383 224.92 105.697 224.235 104.852 224.235C104.007 224.235 103.321 224.92 103.321 225.765C103.321 226.611 104.007 227.296 104.852 227.296Z" fill="#574C45"/>
<path d="M103.322 230.357C104.167 230.357 104.852 229.672 104.852 228.827C104.852 227.981 104.167 227.296 103.322 227.296C102.476 227.296 101.791 227.981 101.791 228.827C101.791 229.672 102.476 230.357 103.322 230.357Z" fill="#574C45"/>
<path d="M101.79 233.418C102.636 233.418 103.321 232.733 103.321 231.888C103.321 231.042 102.636 230.357 101.79 230.357C100.945 230.357 100.26 231.042 100.26 231.888C100.26 232.733 100.945 233.418 101.79 233.418Z" fill="#574C45"/>
<path d="M104.852 236.48C105.697 236.48 106.383 235.794 106.383 234.949C106.383 234.104 105.697 233.418 104.852 233.418C104.007 233.418 103.321 234.104 103.321 234.949C103.321 235.794 104.007 236.48 104.852 236.48Z" fill="#574C45"/>
<path d="M101.79 238.01C102.636 238.01 103.321 237.325 103.321 236.48C103.321 235.634 102.636 234.949 101.79 234.949C100.945 234.949 100.26 235.634 100.26 236.48C100.26 237.325 100.945 238.01 101.79 238.01Z" fill="#574C45"/>
<path d="M101.79 242.602C102.636 242.602 103.321 241.917 103.321 241.071C103.321 240.226 102.636 239.541 101.79 239.541C100.945 239.541 100.26 240.226 100.26 241.071C100.26 241.917 100.945 242.602 101.79 242.602Z" fill="#574C45"/>
<path d="M104.852 241.071C105.697 241.071 106.383 240.386 106.383 239.541C106.383 238.695 105.697 238.01 104.852 238.01C104.007 238.01 103.321 238.695 103.321 239.541C103.321 240.386 104.007 241.071 104.852 241.071Z" fill="#574C45"/>
<path d="M104.852 245.663C105.697 245.663 106.383 244.978 106.383 244.133C106.383 243.287 105.697 242.602 104.852 242.602C104.007 242.602 103.321 243.287 103.321 244.133C103.321 244.978 104.007 245.663 104.852 245.663Z" fill="#574C45"/>
<path d="M101.79 247.194C102.636 247.194 103.321 246.509 103.321 245.663C103.321 244.818 102.636 244.133 101.79 244.133C100.945 244.133 100.26 244.818 100.26 245.663C100.26 246.509 100.945 247.194 101.79 247.194Z" fill="#574C45"/>
<path d="M101.79 250.255C102.636 250.255 103.321 249.57 103.321 248.724C103.321 247.879 102.636 247.194 101.79 247.194C100.945 247.194 100.26 247.879 100.26 248.724C100.26 249.57 100.945 250.255 101.79 250.255Z" fill="#574C45"/>
<path d="M104.852 253.316C105.697 253.316 106.383 252.631 106.383 251.786C106.383 250.94 105.697 250.255 104.852 250.255C104.007 250.255 103.321 250.94 103.321 251.786C103.321 252.631 104.007 253.316 104.852 253.316Z" fill="#574C45"/>
<path d="M101.79 256.378C102.636 256.378 103.321 255.692 103.321 254.847C103.321 254.002 102.636 253.316 101.79 253.316C100.945 253.316 100.26 254.002 100.26 254.847C100.26 255.692 100.945 256.378 101.79 256.378Z" fill="#574C45"/>
<path d="M104.852 259.439C105.697 259.439 106.383 258.754 106.383 257.908C106.383 257.063 105.697 256.378 104.852 256.378C104.007 256.378 103.321 257.063 103.321 257.908C103.321 258.754 104.007 259.439 104.852 259.439Z" fill="#574C45"/>
<path d="M101.79 260.969C102.636 260.969 103.321 260.284 103.321 259.439C103.321 258.593 102.636 257.908 101.79 257.908C100.945 257.908 100.26 258.593 100.26 259.439C100.26 260.284 100.945 260.969 101.79 260.969Z" fill="#574C45"/>
<path d="M101.79 264.031C102.636 264.031 103.321 263.345 103.321 262.5C103.321 261.655 102.636 260.969 101.79 260.969C100.945 260.969 100.26 261.655 100.26 262.5C100.26 263.345 100.945 264.031 101.79 264.031Z" fill="#574C45"/>
<path d="M104.852 265.561C105.697 265.561 106.383 264.876 106.383 264.031C106.383 263.185 105.697 262.5 104.852 262.5C104.007 262.5 103.321 263.185 103.321 264.031C103.321 264.876 104.007 265.561 104.852 265.561Z" fill="#574C45"/>
<path d="M101.79 270.153C102.636 270.153 103.321 269.468 103.321 268.622C103.321 267.777 102.636 267.092 101.79 267.092C100.945 267.092 100.26 267.777 100.26 268.622C100.26 269.468 100.945 270.153 101.79 270.153Z" fill="#574C45"/>
<path d="M104.852 273.214C105.697 273.214 106.383 272.529 106.383 271.684C106.383 270.838 105.697 270.153 104.852 270.153C104.007 270.153 103.321 270.838 103.321 271.684C103.321 272.529 104.007 273.214 104.852 273.214Z" fill="#574C45"/>
<path d="M101.79 274.745C102.636 274.745 103.321 274.06 103.321 273.214C103.321 272.369 102.636 271.684 101.79 271.684C100.945 271.684 100.26 272.369 100.26 273.214C100.26 274.06 100.945 274.745 101.79 274.745Z" fill="#574C45"/>
<path d="M101.79 279.337C102.636 279.337 103.321 278.651 103.321 277.806C103.321 276.961 102.636 276.276 101.79 276.276C100.945 276.276 100.26 276.961 100.26 277.806C100.26 278.651 100.945 279.337 101.79 279.337Z" fill="#574C45"/>
<path d="M104.852 282.398C105.697 282.398 106.383 281.713 106.383 280.867C106.383 280.022 105.697 279.337 104.852 279.337C104.007 279.337 103.321 280.022 103.321 280.867C103.321 281.713 104.007 282.398 104.852 282.398Z" fill="#574C45"/>
<path d="M101.79 285.459C102.636 285.459 103.321 284.774 103.321 283.929C103.321 283.083 102.636 282.398 101.79 282.398C100.945 282.398 100.26 283.083 100.26 283.929C100.26 284.774 100.945 285.459 101.79 285.459Z" fill="#574C45"/>
<path d="M104.852 290.051C105.697 290.051 106.383 289.366 106.383 288.52C106.383 287.675 105.697 286.99 104.852 286.99C104.007 286.99 103.321 287.675 103.321 288.52C103.321 289.366 104.007 290.051 104.852 290.051Z" fill="#574C45"/>
<path d="M101.79 293.112C102.636 293.112 103.321 292.427 103.321 291.582C103.321 290.736 102.636 290.051 101.79 290.051C100.945 290.051 100.26 290.736 100.26 291.582C100.26 292.427 100.945 293.112 101.79 293.112Z" fill="#574C45"/>
<path d="M101.79 288.52C102.636 288.52 103.321 287.835 103.321 286.99C103.321 286.144 102.636 285.459 101.79 285.459C100.945 285.459 100.26 286.144 100.26 286.99C100.26 287.835 100.945 288.52 101.79 288.52Z" fill="#574C45"/>
<path d="M104.852 297.704C105.697 297.704 106.383 297.019 106.383 296.173C106.383 295.328 105.697 294.643 104.852 294.643C104.007 294.643 103.321 295.328 103.321 296.173C103.321 297.019 104.007 297.704 104.852 297.704Z" fill="#574C45"/>
<path d="M101.79 300.765C102.636 300.765 103.321 300.08 103.321 299.235C103.321 298.389 102.636 297.704 101.79 297.704C100.945 297.704 100.26 298.389 100.26 299.235C100.26 300.08 100.945 300.765 101.79 300.765Z" fill="#574C45"/>
<path d="M103.322 303.827C104.167 303.827 104.852 303.141 104.852 302.296C104.852 301.451 104.167 300.765 103.322 300.765C102.476 300.765 101.791 301.451 101.791 302.296C101.791 303.141 102.476 303.827 103.322 303.827Z" fill="#574C45"/>
<path d="M104.852 306.888C105.697 306.888 106.383 306.202 106.383 305.357C106.383 304.512 105.697 303.827 104.852 303.827C104.007 303.827 103.321 304.512 103.321 305.357C103.321 306.202 104.007 306.888 104.852 306.888Z" fill="#574C45"/>
<path d="M101.79 309.949C102.636 309.949 103.321 309.264 103.321 308.418C103.321 307.573 102.636 306.888 101.79 306.888C100.945 306.888 100.26 307.573 100.26 308.418C100.26 309.264 100.945 309.949 101.79 309.949Z" fill="#574C45"/>
<path d="M103.322 313.01C104.167 313.01 104.852 312.325 104.852 311.48C104.852 310.634 104.167 309.949 103.322 309.949C102.476 309.949 101.791 310.634 101.791 311.48C101.791 312.325 102.476 313.01 103.322 313.01Z" fill="#574C45"/>
<path d="M104.852 316.071C105.697 316.071 106.383 315.386 106.383 314.541C106.383 313.695 105.697 313.01 104.852 313.01C104.007 313.01 103.321 313.695 103.321 314.541C103.321 315.386 104.007 316.071 104.852 316.071Z" fill="#574C45"/>
<path d="M101.79 319.133C102.636 319.133 103.321 318.447 103.321 317.602C103.321 316.757 102.636 316.071 101.79 316.071C100.945 316.071 100.26 316.757 100.26 317.602C100.26 318.447 100.945 319.133 101.79 319.133Z" fill="#574C45"/>
<path d="M104.852 323.724C105.697 323.724 106.383 323.039 106.383 322.194C106.383 321.349 105.697 320.663 104.852 320.663C104.007 320.663 103.321 321.349 103.321 322.194C103.321 323.039 104.007 323.724 104.852 323.724Z" fill="#574C45"/>
<path d="M101.79 325.255C102.636 325.255 103.321 324.57 103.321 323.724C103.321 322.879 102.636 322.194 101.79 322.194C100.945 322.194 100.26 322.879 100.26 323.724C100.26 324.57 100.945 325.255 101.79 325.255Z" fill="#574C45"/>
<path d="M101.79 329.847C102.636 329.847 103.321 329.162 103.321 328.316C103.321 327.471 102.636 326.786 101.79 326.786C100.945 326.786 100.26 327.471 100.26 328.316C100.26 329.162 100.945 329.847 101.79 329.847Z" fill="#574C45"/>
<path d="M104.852 332.908C105.697 332.908 106.383 332.223 106.383 331.378C106.383 330.532 105.697 329.847 104.852 329.847C104.007 329.847 103.321 330.532 103.321 331.378C103.321 332.223 104.007 332.908 104.852 332.908Z" fill="#574C45"/>
<path d="M101.79 334.439C102.636 334.439 103.321 333.754 103.321 332.908C103.321 332.063 102.636 331.378 101.79 331.378C100.945 331.378 100.26 332.063 100.26 332.908C100.26 333.754 100.945 334.439 101.79 334.439Z" fill="#574C45"/>
<path d="M101.79 339.031C102.636 339.031 103.321 338.345 103.321 337.5C103.321 336.655 102.636 335.969 101.79 335.969C100.945 335.969 100.26 336.655 100.26 337.5C100.26 338.345 100.945 339.031 101.79 339.031Z" fill="#574C45"/>
<path d="M104.852 337.5C105.697 337.5 106.383 336.815 106.383 335.969C106.383 335.124 105.697 334.439 104.852 334.439C104.007 334.439 103.321 335.124 103.321 335.969C103.321 336.815 104.007 337.5 104.852 337.5Z" fill="#574C45"/>
<path d="M104.852 342.092C105.697 342.092 106.383 341.407 106.383 340.561C106.383 339.716 105.697 339.031 104.852 339.031C104.007 339.031 103.321 339.716 103.321 340.561C103.321 341.407 104.007 342.092 104.852 342.092Z" fill="#574C45"/>
<path d="M101.79 345.153C102.636 345.153 103.321 344.468 103.321 343.622C103.321 342.777 102.636 342.092 101.79 342.092C100.945 342.092 100.26 342.777 100.26 343.622C100.26 344.468 100.945 345.153 101.79 345.153Z" fill="#574C45"/>
<path d="M103.322 348.214C104.167 348.214 104.852 347.529 104.852 346.684C104.852 345.838 104.167 345.153 103.322 345.153C102.476 345.153 101.791 345.838 101.791 346.684C101.791 347.529 102.476 348.214 103.322 348.214Z" fill="#574C45"/>
<path d="M104.852 351.276C105.697 351.276 106.383 350.59 106.383 349.745C106.383 348.9 105.697 348.214 104.852 348.214C104.007 348.214 103.321 348.9 103.321 349.745C103.321 350.59 104.007 351.276 104.852 351.276Z" fill="#574C45"/>
<path d="M101.79 354.337C102.636 354.337 103.321 353.651 103.321 352.806C103.321 351.961 102.636 351.276 101.79 351.276C100.945 351.276 100.26 351.961 100.26 352.806C100.26 353.651 100.945 354.337 101.79 354.337Z" fill="#574C45"/>
<path d="M104.852 355.867C105.697 355.867 106.383 355.182 106.383 354.337C106.383 353.491 105.697 352.806 104.852 352.806C104.007 352.806 103.321 353.491 103.321 354.337C103.321 355.182 104.007 355.867 104.852 355.867Z" fill="#574C45"/>
<path d="M101.79 358.929C102.636 358.929 103.321 358.243 103.321 357.398C103.321 356.553 102.636 355.867 101.79 355.867C100.945 355.867 100.26 356.553 100.26 357.398C100.26 358.243 100.945 358.929 101.79 358.929Z" fill="#574C45"/>
<path d="M104.852 363.52C105.697 363.52 106.383 362.835 106.383 361.99C106.383 361.144 105.697 360.459 104.852 360.459C104.007 360.459 103.321 361.144 103.321 361.99C103.321 362.835 104.007 363.52 104.852 363.52Z" fill="#574C45"/>
<path d="M104.852 360.459C105.697 360.459 106.383 359.774 106.383 358.929C106.383 358.083 105.697 357.398 104.852 357.398C104.007 357.398 103.321 358.083 103.321 358.929C103.321 359.774 104.007 360.459 104.852 360.459Z" fill="#574C45"/>
<path d="M101.79 366.582C102.636 366.582 103.321 365.896 103.321 365.051C103.321 364.206 102.636 363.52 101.79 363.52C100.945 363.52 100.26 364.206 100.26 365.051C100.26 365.896 100.945 366.582 101.79 366.582Z" fill="#574C45"/>
<path d="M104.852 369.643C105.697 369.643 106.383 368.958 106.383 368.112C106.383 367.267 105.697 366.582 104.852 366.582C104.007 366.582 103.321 367.267 103.321 368.112C103.321 368.958 104.007 369.643 104.852 369.643Z" fill="#574C45"/>
<path d="M101.79 372.704C102.636 372.704 103.321 372.019 103.321 371.173C103.321 370.328 102.636 369.643 101.79 369.643C100.945 369.643 100.26 370.328 100.26 371.173C100.26 372.019 100.945 372.704 101.79 372.704Z" fill="#574C45"/>
<path d="M104.852 374.235C105.697 374.235 106.383 373.549 106.383 372.704C106.383 371.859 105.697 371.173 104.852 371.173C104.007 371.173 103.321 371.859 103.321 372.704C103.321 373.549 104.007 374.235 104.852 374.235Z" fill="#574C45"/>
<path d="M101.79 377.296C102.636 377.296 103.321 376.611 103.321 375.765C103.321 374.92 102.636 374.235 101.79 374.235C100.945 374.235 100.26 374.92 100.26 375.765C100.26 376.611 100.945 377.296 101.79 377.296Z" fill="#574C45"/>
<path d="M104.852 378.827C105.697 378.827 106.383 378.141 106.383 377.296C106.383 376.451 105.697 375.765 104.852 375.765C104.007 375.765 103.321 376.451 103.321 377.296C103.321 378.141 104.007 378.827 104.852 378.827Z" fill="#574C45"/>
<path d="M103.322 381.888C104.167 381.888 104.852 381.202 104.852 380.357C104.852 379.512 104.167 378.827 103.322 378.827C102.476 378.827 101.791 379.512 101.791 380.357C101.791 381.202 102.476 381.888 103.322 381.888Z" fill="#574C45"/>
<path d="M101.79 384.949C102.636 384.949 103.321 384.264 103.321 383.418C103.321 382.573 102.636 381.888 101.79 381.888C100.945 381.888 100.26 382.573 100.26 383.418C100.26 384.264 100.945 384.949 101.79 384.949Z" fill="#574C45"/>
<path d="M104.852 388.01C105.697 388.01 106.383 387.325 106.383 386.48C106.383 385.634 105.697 384.949 104.852 384.949C104.007 384.949 103.321 385.634 103.321 386.48C103.321 387.325 104.007 388.01 104.852 388.01Z" fill="#574C45"/>
<path d="M101.79 391.071C102.636 391.071 103.321 390.386 103.321 389.541C103.321 388.695 102.636 388.01 101.79 388.01C100.945 388.01 100.26 388.695 100.26 389.541C100.26 390.386 100.945 391.071 101.79 391.071Z" fill="#574C45"/>
<path d="M104.852 394.133C105.697 394.133 106.383 393.447 106.383 392.602C106.383 391.757 105.697 391.071 104.852 391.071C104.007 391.071 103.321 391.757 103.321 392.602C103.321 393.447 104.007 394.133 104.852 394.133Z" fill="#574C45"/>
<path d="M103.322 397.194C104.167 397.194 104.852 396.509 104.852 395.663C104.852 394.818 104.167 394.133 103.322 394.133C102.476 394.133 101.791 394.818 101.791 395.663C101.791 396.509 102.476 397.194 103.322 397.194Z" fill="#574C45"/>
<path d="M101.79 401.786C102.636 401.786 103.321 401.1 103.321 400.255C103.321 399.41 102.636 398.724 101.79 398.724C100.945 398.724 100.26 399.41 100.26 400.255C100.26 401.1 100.945 401.786 101.79 401.786Z" fill="#574C45"/>
<path d="M104.852 400.255C105.697 400.255 106.383 399.57 106.383 398.724C106.383 397.879 105.697 397.194 104.852 397.194C104.007 397.194 103.321 397.879 103.321 398.724C103.321 399.57 104.007 400.255 104.852 400.255Z" fill="#574C45"/>
<path d="M104.852 404.847C105.697 404.847 106.383 404.162 106.383 403.316C106.383 402.471 105.697 401.786 104.852 401.786C104.007 401.786 103.321 402.471 103.321 403.316C103.321 404.162 104.007 404.847 104.852 404.847Z" fill="#574C45"/>
<path d="M101.79 407.908C102.636 407.908 103.321 407.223 103.321 406.378C103.321 405.532 102.636 404.847 101.79 404.847C100.945 404.847 100.26 405.532 100.26 406.378C100.26 407.223 100.945 407.908 101.79 407.908Z" fill="#574C45"/>
<path d="M104.852 410.969C105.697 410.969 106.383 410.284 106.383 409.439C106.383 408.593 105.697 407.908 104.852 407.908C104.007 407.908 103.321 408.593 103.321 409.439C103.321 410.284 104.007 410.969 104.852 410.969Z" fill="#574C45"/>
<path d="M101.79 412.5C102.636 412.5 103.321 411.815 103.321 410.969C103.321 410.124 102.636 409.439 101.79 409.439C100.945 409.439 100.26 410.124 100.26 410.969C100.26 411.815 100.945 412.5 101.79 412.5Z" fill="#574C45"/>
<path d="M103.322 415.561C104.167 415.561 104.852 414.876 104.852 414.031C104.852 413.185 104.167 412.5 103.322 412.5C102.476 412.5 101.791 413.185 101.791 414.031C101.791 414.876 102.476 415.561 103.322 415.561Z" fill="#574C45"/>
<path d="M104.852 420.153C105.697 420.153 106.383 419.468 106.383 418.622C106.383 417.777 105.697 417.092 104.852 417.092C104.007 417.092 103.321 417.777 103.321 418.622C103.321 419.468 104.007 420.153 104.852 420.153Z" fill="#574C45"/>
<path d="M101.79 421.684C102.636 421.684 103.321 420.998 103.321 420.153C103.321 419.308 102.636 418.622 101.79 418.622C100.945 418.622 100.26 419.308 100.26 420.153C100.26 420.998 100.945 421.684 101.79 421.684Z" fill="#574C45"/>
<path d="M101.79 426.276C102.636 426.276 103.321 425.59 103.321 424.745C103.321 423.9 102.636 423.214 101.79 423.214C100.945 423.214 100.26 423.9 100.26 424.745C100.26 425.59 100.945 426.276 101.79 426.276Z" fill="#574C45"/>
<path d="M104.852 429.337C105.697 429.337 106.383 428.651 106.383 427.806C106.383 426.961 105.697 426.276 104.852 426.276C104.007 426.276 103.321 426.961 103.321 427.806C103.321 428.651 104.007 429.337 104.852 429.337Z" fill="#574C45"/>
<path d="M104.852 424.745C105.697 424.745 106.383 424.06 106.383 423.214C106.383 422.369 105.697 421.684 104.852 421.684C104.007 421.684 103.321 422.369 103.321 423.214C103.321 424.06 104.007 424.745 104.852 424.745Z" fill="#574C45"/>
<path d="M101.79 432.398C102.636 432.398 103.321 431.713 103.321 430.867C103.321 430.022 102.636 429.337 101.79 429.337C100.945 429.337 100.26 430.022 100.26 430.867C100.26 431.713 100.945 432.398 101.79 432.398Z" fill="#574C45"/>
<path d="M104.852 436.99C105.697 436.99 106.383 436.305 106.383 435.459C106.383 434.614 105.697 433.929 104.852 433.929C104.007 433.929 103.321 434.614 103.321 435.459C103.321 436.305 104.007 436.99 104.852 436.99Z" fill="#574C45"/>
<path d="M101.79 435.459C102.636 435.459 103.321 434.774 103.321 433.929C103.321 433.083 102.636 432.398 101.79 432.398C100.945 432.398 100.26 433.083 100.26 433.929C100.26 434.774 100.945 435.459 101.79 435.459Z" fill="#574C45"/>
<rect x="105" y="11" width="100" height="1" fill="#554D48"/>
<circle cx="201" cy="11" r="11" fill="#BCB29A"/>
<path d="M201.814 5.76H202.332V15H200.848V7.51L198.972 8.112L198.608 6.81L201.814 5.76Z" fill="#362A24"/>
<rect x="110" y="81" width="95" height="1" fill="#554D48"/>
<circle cx="201" cy="81" r="11" fill="#BCB29A"/>
<path d="M200.354 83.712H204.26V85H197.638V84.664L200.928 81.122C201.46 80.562 201.838 80.0953 202.062 79.722C202.286 79.3487 202.398 78.9707 202.398 78.588C202.398 78.112 202.258 77.7247 201.978 77.426C201.698 77.118 201.325 76.964 200.858 76.964C200.391 76.964 200.013 77.1227 199.724 77.44C199.435 77.7573 199.29 78.1587 199.29 78.644C199.29 78.812 199.313 79.05 199.36 79.358H197.862C197.797 79.1247 197.764 78.8587 197.764 78.56C197.764 77.7667 198.053 77.076 198.632 76.488C199.211 75.9 199.957 75.606 200.872 75.606C201.749 75.606 202.477 75.8813 203.056 76.432C203.644 76.9827 203.938 77.664 203.938 78.476C203.938 79.1107 203.77 79.6847 203.434 80.198C203.135 80.674 202.65 81.2713 201.978 81.99L200.354 83.712Z" fill="#362A24"/>
<rect x="200" y="122" width="35" height="1" fill="#554D48"/>
<circle cx="231" cy="122" r="11" fill="#BCB29A"/>
<path d="M234.115 123.032C234.115 123.947 233.784 124.698 233.121 125.286C232.468 125.865 231.675 126.154 230.741 126.154C230.013 126.154 229.369 125.977 228.809 125.622C228.249 125.258 227.811 124.768 227.493 124.152L228.529 123.424C229.127 124.339 229.85 124.796 230.699 124.796C231.259 124.796 231.712 124.637 232.057 124.32C232.412 123.993 232.589 123.569 232.589 123.046C232.589 122.523 232.403 122.122 232.029 121.842C231.665 121.562 231.143 121.422 230.461 121.422H229.439V121.016L231.595 118.118H228.151V116.76H233.905V117.166L231.665 120.19C232.337 120.302 232.916 120.605 233.401 121.1C233.877 121.585 234.115 122.229 234.115 123.032Z" fill="#362A24"/>
<rect x="110" y="172" width="95" height="1" fill="#554D48"/>
<circle cx="201" cy="172" r="11" fill="#BCB29A"/>
<path d="M204.685 173.116V174.39H203.425V176H201.941V174.39H197.321V173.984L200.275 166.76H201.801L199.183 173.116H201.941V170.274H203.425V173.116H204.685Z" fill="#362A24"/>
<rect x="110" y="214" width="95" height="1" fill="#554D48"/>
<circle cx="201" cy="214" r="11" fill="#BCB29A"/>
<path d="M204.23 215.018C204.23 215.933 203.899 216.684 203.236 217.272C202.573 217.86 201.771 218.154 200.828 218.154C200.081 218.154 199.423 217.977 198.854 217.622C198.285 217.267 197.837 216.782 197.51 216.166L198.546 215.424C199.143 216.339 199.89 216.796 200.786 216.796C201.346 216.796 201.803 216.637 202.158 216.32C202.522 215.993 202.704 215.569 202.704 215.046C202.704 214.523 202.517 214.122 202.144 213.842C201.78 213.553 201.257 213.408 200.576 213.408H198.448V208.76H203.712V210.09H199.904V212.26C200.268 212.176 200.66 212.134 201.08 212.134C201.957 212.134 202.699 212.391 203.306 212.904C203.922 213.417 204.23 214.122 204.23 215.018Z" fill="#362A24"/>
<rect x="125" y="256" width="80" height="1" fill="#554D48"/>
<circle cx="201" cy="256" r="11" fill="#BCB29A"/>
<path d="M204.278 256.962C204.278 257.858 203.956 258.614 203.312 259.23C202.668 259.846 201.898 260.154 201.002 260.154C200.116 260.173 199.346 259.869 198.692 259.244C198.039 258.609 197.722 257.844 197.74 256.948C197.74 256.603 197.792 256.267 197.894 255.94C198.006 255.613 198.137 255.329 198.286 255.086C198.417 254.871 198.655 254.517 199 254.022L201.31 250.76H203.06L200.834 253.91C200.956 253.882 201.091 253.868 201.24 253.868C202.062 253.868 202.771 254.171 203.368 254.778C203.975 255.375 204.278 256.103 204.278 256.962ZM202.808 256.962C202.808 256.449 202.631 256.015 202.276 255.66C201.922 255.305 201.497 255.128 201.002 255.128C200.498 255.128 200.069 255.305 199.714 255.66C199.369 256.005 199.196 256.439 199.196 256.962C199.196 257.494 199.369 257.933 199.714 258.278C200.06 258.623 200.489 258.796 201.002 258.796C201.506 258.796 201.931 258.623 202.276 258.278C202.631 257.923 202.808 257.485 202.808 256.962Z" fill="#362A24"/>
<rect x="103" y="338" width="102" height="1" fill="#554D48"/>
<circle cx="201" cy="338" r="11" fill="#BCB29A"/>
<path d="M197.915 332.76H204.257V333.166L199.791 342H198.181L202.255 334.09H197.915V332.76Z" fill="#362A24"/>
<rect x="200" y="399" width="35" height="1" fill="#554D48"/>
<circle cx="231" cy="399" r="11" fill="#BCB29A"/>
<path d="M234.353 400.592C234.353 401.367 234.04 401.987 233.415 402.454C232.799 402.921 231.996 403.154 231.007 403.154C230.008 403.154 229.196 402.921 228.571 402.454C227.946 401.987 227.633 401.367 227.633 400.592C227.633 399.481 228.3 398.683 229.635 398.198C228.59 397.629 228.067 396.887 228.067 395.972C228.067 395.225 228.342 394.647 228.893 394.236C229.453 393.816 230.158 393.606 231.007 393.606C231.847 393.606 232.542 393.816 233.093 394.236C233.644 394.647 233.919 395.225 233.919 395.972C233.919 396.896 233.396 397.638 232.351 398.198C233.686 398.693 234.353 399.491 234.353 400.592ZM229.481 396.028C229.481 396.355 229.593 396.625 229.817 396.84C230.05 397.055 230.442 397.283 230.993 397.526C231.544 397.293 231.931 397.069 232.155 396.854C232.388 396.63 232.505 396.355 232.505 396.028C232.505 395.664 232.365 395.375 232.085 395.16C231.814 394.936 231.455 394.824 231.007 394.824C230.55 394.824 230.181 394.936 229.901 395.16C229.621 395.375 229.481 395.664 229.481 396.028ZM232.855 400.536C232.855 400.135 232.71 399.813 232.421 399.57C232.132 399.327 231.656 399.085 230.993 398.842C230.34 399.075 229.864 399.318 229.565 399.57C229.276 399.822 229.131 400.144 229.131 400.536C229.131 400.965 229.294 401.306 229.621 401.558C229.957 401.801 230.419 401.922 231.007 401.922C231.595 401.922 232.048 401.801 232.365 401.558C232.692 401.306 232.855 400.965 232.855 400.536Z" fill="#362A24"/>
<rect x="200" y="443" width="35" height="1" fill="#554D48"/>
<circle cx="231" cy="443" r="11" fill="#BCB29A"/>
<path d="M234.278 440.812C234.278 441.167 234.222 441.507 234.11 441.834C234.026 442.095 233.896 442.38 233.718 442.688C233.569 442.94 233.331 443.29 233.004 443.738L230.708 447H228.944L231.17 443.85C231.049 443.878 230.914 443.892 230.764 443.892C229.962 443.892 229.257 443.593 228.65 442.996C228.044 442.389 227.74 441.657 227.74 440.798C227.74 439.902 228.062 439.146 228.706 438.53C229.35 437.914 230.12 437.606 231.016 437.606C231.903 437.587 232.673 437.895 233.326 438.53C233.98 439.155 234.297 439.916 234.278 440.812ZM232.29 442.1C232.636 441.755 232.808 441.321 232.808 440.798C232.808 440.275 232.636 439.841 232.29 439.496C231.936 439.141 231.511 438.964 231.016 438.964C230.503 438.964 230.069 439.141 229.714 439.496C229.369 439.841 229.196 440.275 229.196 440.798C229.196 441.33 229.369 441.769 229.714 442.114C230.06 442.459 230.494 442.632 231.016 442.632C231.511 442.632 231.936 442.455 232.29 442.1Z" fill="#362A24"/>
</svg>
