<svg width="50" height="33" viewBox="0 0 50 33" fill="none" xmlns="http://www.w3.org/2000/svg">
<g clip-path="url(#clip0)">
<path d="M49.7124 12.885C49.7483 12.8492 49.7843 12.8134 49.8203 12.7777C49.8563 12.7419 49.8922 12.6703 49.9282 12.6345C49.9282 12.5987 49.9642 12.5629 49.9642 12.5271V12.4555C49.9642 12.4197 50.0001 12.3482 50.0001 12.3124V12.2408C50.0001 12.205 49.9642 12.205 49.9642 12.1692V12.1334C49.9642 12.0976 49.9642 12.026 49.9282 11.9902C49.9282 11.9544 49.8922 11.8829 49.8563 11.8471C49.8203 11.8113 49.8203 11.7755 49.8203 11.7755L40.9714 0.322124L40.9354 0.286333C40.8994 0.214749 40.8275 0.178957 40.7915 0.143165L40.7555 0.107374C40.7196 0.107374 40.7196 0.071582 40.6836 0.071582C40.6476 0.071582 40.6117 0.0357902 40.5757 0.0357902L40.5037 -1.54227e-06C40.4678 -1.54227e-06 40.4318 -0.0357933 40.3958 -0.0357933H40.3239H9.67642H9.64045C9.60448 -0.0357933 9.53253 -0.0357933 9.49656 -1.54227e-06L9.42462 0.0357902C9.38865 0.0357902 9.35268 0.0357902 9.35268 0.071582C9.31671 0.071582 9.3167 0.107374 9.28073 0.143165L9.24476 0.178957C9.17282 0.214749 9.13685 0.250541 9.10088 0.286333L9.06491 0.322124L0.180018 11.7397C0.144046 11.7755 0.144046 11.8113 0.144046 11.8471C0.108075 11.8829 0.072104 11.9544 0.072104 11.9902C0.0361328 12.0618 0.0361328 12.0976 0.0361328 12.1692C0.0361328 12.205 0.0361328 12.2408 0.0361328 12.2408V12.3482C0.0361328 12.3839 0.0361328 12.4197 0.072104 12.4913V12.5629C0.072104 12.5987 0.072104 12.6345 0.108075 12.6703C0.108075 12.7061 0.144046 12.7419 0.180018 12.7777L0.215989 12.8134C0.25196 12.885 0.287931 12.9208 0.323902 12.9566L0.359874 12.9924C0.359874 12.9924 0.359874 12.9924 0.395845 12.9924C0.431816 12.9924 0.431816 13.0282 0.467787 13.0282L0.503759 13.064L0.53973 13.0998C0.647643 13.1356 0.719586 13.1714 0.8275 13.1714H6.18721V33.1074H7.84189V13.0998H12.5181V22.5488H14.1728V13.0998H35.5757V22.2267H37.2304V13.0998H41.8347V33.0358H43.4894V13.0998H49.1368C49.2088 13.0998 49.3167 13.064 49.4246 13.0282C49.4246 13.0282 49.4606 13.0282 49.4606 12.9924L49.4966 12.9566C49.5325 12.9566 49.5325 12.9208 49.5685 12.9208C49.6045 12.9208 49.6045 12.885 49.6045 12.885C49.6764 12.9208 49.7124 12.885 49.7124 12.885ZM2.48218 11.4176L10.0361 1.68221H39.9642L40.0361 1.75379L47.5541 11.4176H2.48218Z" fill="#C0B49C"/>
</g>
<defs>
<clipPath id="clip0">
<rect width="50" height="33" fill="white"/>
</clipPath>
</defs>
</svg>
