<svg width="50" height="41" viewBox="0 0 50 41" fill="none" xmlns="http://www.w3.org/2000/svg">
<path d="M0 0V41H50V0H0ZM16.1523 32.2808H2.99805V33.8364H16.1621V39.4444H1.5332V1.55558H16.1621L16.1523 32.2808ZM32.3145 39.4444H17.6855V33.8364H32.3145V39.4444ZM48.4668 39.4444H33.8477V33.8364H48.4766L48.4668 39.4444ZM48.4668 32.2808H33.8477V29.0805H32.3145V32.2808H17.6855V1.55558H32.3145V22.3132H33.8477V1.55558H48.4766L48.4668 32.2808Z" fill="#C0B49C"/>
<path d="M33.8477 24.1165H32.3145V25.6721H33.8477V24.1165Z" fill="#C0B49C"/>
<path d="M6.17358 2.4477L2.37012 7.95831L3.62596 8.8506L7.42943 3.33998L6.17358 2.4477Z" fill="#C0B49C"/>
<path d="M7.64868 5.19956L3.84521 10.7102L5.10106 11.6025L8.90452 6.09185L7.64868 5.19956Z" fill="#C0B49C"/>
<path d="M22.3284 2.45117L18.5249 7.96179L19.7807 8.85407L23.5842 3.34345L22.3284 2.45117Z" fill="#C0B49C"/>
<path d="M23.8035 5.20241L20 10.7137L21.256 11.606L25.0595 6.09469L23.8035 5.20241Z" fill="#C0B49C"/>
<path d="M38.4792 2.45403L34.6758 7.96465L35.9316 8.85693L39.7351 3.34631L38.4792 2.45403Z" fill="#C0B49C"/>
<path d="M39.9573 5.20422L36.1538 10.7155L37.4098 11.6078L41.2133 6.0965L39.9573 5.20422Z" fill="#C0B49C"/>
</svg>
