<svg width="180" height="40" viewBox="0 0 180 40" fill="none" xmlns="http://www.w3.org/2000/svg">
<path d="M0.5 0.693713L44.8419 15.4743L44.8921 15.4911L44.9448 15.4969L89.9448 20.4969L90 20.5031L90.0552 20.4969L135.055 15.4969L135.108 15.4911L135.158 15.4743L179.5 0.693712V19.6396L134.892 34.5089L90 39.4969L45.1079 34.5089L0.5 19.6396V0.693713Z" fill="#EDEAE3" stroke="#BCB299"/>
<mask id="mask0" mask-type="alpha" maskUnits="userSpaceOnUse" x="0" y="0" width="180" height="40">
<path d="M0.5 0.693713L44.8419 15.4743L44.8921 15.4911L44.9448 15.4969L89.9448 20.4969L90 20.5031L90.0552 20.4969L135.055 15.4969L135.108 15.4911L135.158 15.4743L179.5 0.693712V19.6396L134.892 34.5089L90 39.4969L45.1079 34.5089L0.5 19.6396V0.693713Z" fill="#EDEAE3" stroke="#BCB299"/>
</mask>
<g mask="url(#mask0)">
<mask id="mask1" mask-type="alpha" maskUnits="userSpaceOnUse" x="-5" y="-34" width="100" height="100">
<rect x="-5" y="-34" width="100" height="100" fill="#C4C4C4"/>
</mask>
<g mask="url(#mask1)">
<line x1="-23.119" y1="73.735" x2="86.4826" y2="-35.8665" stroke="#BCB299" stroke-width="0.4"/>
<line x1="-17.2425" y1="73.735" x2="92.3591" y2="-35.8665" stroke="#BCB299" stroke-width="0.4"/>
<line x1="-105.388" y1="73.735" x2="4.21306" y2="-35.8665" stroke="#BCB299" stroke-width="0.4"/>
<line x1="-11.366" y1="73.735" x2="98.2355" y2="-35.8665" stroke="#BCB299" stroke-width="0.4"/>
<line x1="-99.5123" y1="73.735" x2="10.0893" y2="-35.8665" stroke="#BCB299" stroke-width="0.4"/>
<line x1="-5.48981" y1="73.735" x2="104.112" y2="-35.8665" stroke="#BCB299" stroke-width="0.4"/>
<line x1="-93.6358" y1="73.735" x2="15.9657" y2="-35.8665" stroke="#BCB299" stroke-width="0.4"/>
<line x1="0.386655" y1="73.735" x2="109.988" y2="-35.8665" stroke="#BCB299" stroke-width="0.4"/>
<line x1="-87.7593" y1="73.735" x2="21.8422" y2="-35.8665" stroke="#BCB299" stroke-width="0.4"/>
<line x1="6.26312" y1="73.735" x2="115.865" y2="-35.8665" stroke="#BCB299" stroke-width="0.4"/>
<line x1="-81.8831" y1="73.735" x2="27.7184" y2="-35.8665" stroke="#BCB299" stroke-width="0.4"/>
<line x1="12.1393" y1="73.735" x2="121.741" y2="-35.8665" stroke="#BCB299" stroke-width="0.4"/>
<line x1="-76.0067" y1="73.735" x2="33.5949" y2="-35.8665" stroke="#BCB299" stroke-width="0.4"/>
<line x1="18.0158" y1="73.735" x2="127.617" y2="-35.8665" stroke="#BCB299" stroke-width="0.4"/>
<line x1="-70.1302" y1="73.735" x2="39.4714" y2="-35.8665" stroke="#BCB299" stroke-width="0.4"/>
<line x1="23.8923" y1="73.735" x2="133.494" y2="-35.8665" stroke="#BCB299" stroke-width="0.4"/>
<line x1="-64.2537" y1="73.735" x2="45.3478" y2="-35.8665" stroke="#BCB299" stroke-width="0.4"/>
<line x1="29.7687" y1="73.735" x2="139.37" y2="-35.8665" stroke="#BCB299" stroke-width="0.4"/>
<line x1="-58.3773" y1="73.735" x2="51.2243" y2="-35.8665" stroke="#BCB299" stroke-width="0.4"/>
<line x1="35.6452" y1="73.735" x2="145.247" y2="-35.8665" stroke="#BCB299" stroke-width="0.4"/>
<line x1="-52.501" y1="73.735" x2="57.1005" y2="-35.8665" stroke="#BCB299" stroke-width="0.4"/>
<line x1="41.5214" y1="73.735" x2="151.123" y2="-35.8665" stroke="#BCB299" stroke-width="0.4"/>
<line x1="-46.6246" y1="73.735" x2="62.977" y2="-35.8665" stroke="#BCB299" stroke-width="0.4"/>
<line x1="47.3979" y1="73.735" x2="156.999" y2="-35.8665" stroke="#BCB299" stroke-width="0.4"/>
<line x1="-40.7481" y1="73.735" x2="68.8534" y2="-35.8665" stroke="#BCB299" stroke-width="0.4"/>
<line x1="53.2744" y1="73.735" x2="162.876" y2="-35.8665" stroke="#BCB299" stroke-width="0.4"/>
<line x1="-34.8719" y1="73.735" x2="74.7297" y2="-35.8665" stroke="#BCB299" stroke-width="0.4"/>
<line x1="59.1506" y1="73.735" x2="168.752" y2="-35.8665" stroke="#BCB299" stroke-width="0.4"/>
<line x1="-28.9954" y1="73.735" x2="80.6061" y2="-35.8665" stroke="#BCB299" stroke-width="0.4"/>
<line x1="65.027" y1="73.735" x2="174.629" y2="-35.8665" stroke="#BCB299" stroke-width="0.4"/>
<line x1="70.9035" y1="73.735" x2="180.505" y2="-35.8665" stroke="#BCB299" stroke-width="0.4"/>
<line x1="76.78" y1="73.735" x2="186.382" y2="-35.8665" stroke="#BCB299" stroke-width="0.4"/>
<line x1="82.6564" y1="73.735" x2="192.258" y2="-35.8665" stroke="#BCB299" stroke-width="0.4"/>
<line x1="88.5327" y1="73.735" x2="198.134" y2="-35.8665" stroke="#BCB299" stroke-width="0.4"/>
<line x1="94.4091" y1="73.735" x2="204.011" y2="-35.8665" stroke="#BCB299" stroke-width="0.4"/>
</g>
<mask id="mask2" mask-type="alpha" maskUnits="userSpaceOnUse" x="95" y="-34" width="100" height="100">
<rect x="95" y="-34" width="100" height="100" fill="#C4C4C4"/>
</mask>
<g mask="url(#mask2)">
<line x1="76.881" y1="73.735" x2="186.483" y2="-35.8665" stroke="#BCB299" stroke-width="0.4"/>
<line x1="-11.265" y1="73.735" x2="98.3366" y2="-35.8665" stroke="#BCB299" stroke-width="0.4"/>
<line x1="82.7575" y1="73.735" x2="192.359" y2="-35.8665" stroke="#BCB299" stroke-width="0.4"/>
<line x1="-5.38849" y1="73.735" x2="104.213" y2="-35.8665" stroke="#BCB299" stroke-width="0.4"/>
<line x1="88.634" y1="73.735" x2="198.236" y2="-35.8665" stroke="#BCB299" stroke-width="0.4"/>
<line x1="0.487729" y1="73.735" x2="110.089" y2="-35.8665" stroke="#BCB299" stroke-width="0.4"/>
<line x1="94.5102" y1="73.735" x2="204.112" y2="-35.8665" stroke="#BCB299" stroke-width="0.4"/>
<line x1="6.36419" y1="73.735" x2="115.966" y2="-35.8665" stroke="#BCB299" stroke-width="0.4"/>
<line x1="100.387" y1="73.735" x2="209.988" y2="-35.8665" stroke="#BCB299" stroke-width="0.4"/>
<line x1="12.2407" y1="73.735" x2="121.842" y2="-35.8665" stroke="#BCB299" stroke-width="0.4"/>
<line x1="106.263" y1="73.735" x2="215.865" y2="-35.8665" stroke="#BCB299" stroke-width="0.4"/>
<line x1="18.1169" y1="73.735" x2="127.718" y2="-35.8665" stroke="#BCB299" stroke-width="0.4"/>
<line x1="112.139" y1="73.735" x2="221.741" y2="-35.8665" stroke="#BCB299" stroke-width="0.4"/>
<line x1="23.9933" y1="73.735" x2="133.595" y2="-35.8665" stroke="#BCB299" stroke-width="0.4"/>
<line x1="118.016" y1="73.735" x2="227.617" y2="-35.8665" stroke="#BCB299" stroke-width="0.4"/>
<line x1="29.8698" y1="73.735" x2="139.471" y2="-35.8665" stroke="#BCB299" stroke-width="0.4"/>
<line x1="123.892" y1="73.735" x2="233.494" y2="-35.8665" stroke="#BCB299" stroke-width="0.4"/>
<line x1="35.7463" y1="73.735" x2="145.348" y2="-35.8665" stroke="#BCB299" stroke-width="0.4"/>
<line x1="129.769" y1="73.735" x2="239.37" y2="-35.8665" stroke="#BCB299" stroke-width="0.4"/>
<line x1="41.6227" y1="73.735" x2="151.224" y2="-35.8665" stroke="#BCB299" stroke-width="0.4"/>
<line x1="135.645" y1="73.735" x2="245.247" y2="-35.8665" stroke="#BCB299" stroke-width="0.4"/>
<line x1="47.499" y1="73.735" x2="157.101" y2="-35.8665" stroke="#BCB299" stroke-width="0.4"/>
<line x1="141.521" y1="73.735" x2="251.123" y2="-35.8665" stroke="#BCB299" stroke-width="0.4"/>
<line x1="53.3754" y1="73.735" x2="162.977" y2="-35.8665" stroke="#BCB299" stroke-width="0.4"/>
<line x1="147.398" y1="73.735" x2="256.999" y2="-35.8665" stroke="#BCB299" stroke-width="0.4"/>
<line x1="59.2519" y1="73.735" x2="168.853" y2="-35.8665" stroke="#BCB299" stroke-width="0.4"/>
<line x1="153.274" y1="73.735" x2="262.876" y2="-35.8665" stroke="#BCB299" stroke-width="0.4"/>
<line x1="65.1281" y1="73.735" x2="174.73" y2="-35.8665" stroke="#BCB299" stroke-width="0.4"/>
<line x1="159.151" y1="73.735" x2="268.752" y2="-35.8665" stroke="#BCB299" stroke-width="0.4"/>
<line x1="71.0046" y1="73.735" x2="180.606" y2="-35.8665" stroke="#BCB299" stroke-width="0.4"/>
<line x1="165.027" y1="73.735" x2="274.629" y2="-35.8665" stroke="#BCB299" stroke-width="0.4"/>
<line x1="170.904" y1="73.735" x2="280.505" y2="-35.8665" stroke="#BCB299" stroke-width="0.4"/>
<line x1="176.78" y1="73.735" x2="286.382" y2="-35.8665" stroke="#BCB299" stroke-width="0.4"/>
</g>
</g>
<rect x="44" y="15" width="1" height="20" fill="#BCB299"/>
<rect x="90" y="20" width="1" height="20" fill="#BCB299"/>
<rect x="134" y="15" width="1" height="20" fill="#BCB299"/>
</svg>
