<svg width="180" height="40" viewBox="0 0 180 40" fill="none" xmlns="http://www.w3.org/2000/svg">
<path d="M0.5 19.6898V0.694505C6.52641 2.71779 11.9489 4.73561 17.1388 6.66685C37.52 14.2511 54.3128 20.5 90 20.5C125.687 20.5 142.48 14.2511 162.861 6.66685C168.051 4.73561 173.474 2.71778 179.5 0.694504V19.6898C179.449 19.7148 179.391 19.7432 179.326 19.7748C179.027 19.9201 178.58 20.1337 177.994 20.4058C176.82 20.9501 175.086 21.7287 172.846 22.6636C168.367 24.5333 161.866 27.0276 153.79 29.5223C137.635 34.5122 115.186 39.5 90 39.5C64.8138 39.5 42.365 34.5122 26.2101 29.5223C18.1336 27.0276 11.6331 24.5333 7.15353 22.6636C4.91382 21.7287 3.17954 20.9501 2.00633 20.4058C1.41974 20.1337 0.973424 19.9201 0.674355 19.7748C0.60923 19.7432 0.551088 19.7148 0.5 19.6898Z" fill="#EDEAE3" stroke="#BCB299"/>
<mask id="mask0" mask-type="alpha" maskUnits="userSpaceOnUse" x="0" y="0" width="180" height="40">
<path d="M0.5 19.6898V0.694505C6.52641 2.71779 11.9489 4.73561 17.1388 6.66685C37.52 14.2511 54.3128 20.5 90 20.5C125.687 20.5 142.48 14.2511 162.861 6.66685C168.051 4.73561 173.474 2.71778 179.5 0.694504V19.6898C179.449 19.7148 179.391 19.7432 179.326 19.7748C179.027 19.9201 178.58 20.1337 177.994 20.4058C176.82 20.9501 175.086 21.7287 172.846 22.6636C168.367 24.5333 161.866 27.0276 153.79 29.5223C137.635 34.5122 115.186 39.5 90 39.5C64.8138 39.5 42.365 34.5122 26.2101 29.5223C18.1336 27.0276 11.6331 24.5333 7.15353 22.6636C4.91382 21.7287 3.17954 20.9501 2.00633 20.4058C1.41974 20.1337 0.973424 19.9201 0.674355 19.7748C0.60923 19.7432 0.551088 19.7148 0.5 19.6898Z" fill="#EDEAE3" stroke="#BCB299"/>
</mask>
<g mask="url(#mask0)">
<mask id="mask1" mask-type="alpha" maskUnits="userSpaceOnUse" x="0" y="-30" width="100" height="100">
<rect y="-30" width="100" height="100" fill="#C4C4C4"/>
</mask>
<g mask="url(#mask1)">
<line x1="-18.119" y1="77.735" x2="91.4826" y2="-31.8665" stroke="#BCB299" stroke-width="0.4"/>
<line x1="-106.265" y1="77.735" x2="3.33659" y2="-31.8665" stroke="#BCB299" stroke-width="0.4"/>
<line x1="-12.2425" y1="77.735" x2="97.3591" y2="-31.8665" stroke="#BCB299" stroke-width="0.4"/>
<line x1="-100.388" y1="77.735" x2="9.21306" y2="-31.8665" stroke="#BCB299" stroke-width="0.4"/>
<line x1="-6.36603" y1="77.735" x2="103.236" y2="-31.8665" stroke="#BCB299" stroke-width="0.4"/>
<line x1="-94.5123" y1="77.735" x2="15.0893" y2="-31.8665" stroke="#BCB299" stroke-width="0.4"/>
<line x1="-0.48981" y1="77.735" x2="109.112" y2="-31.8665" stroke="#BCB299" stroke-width="0.4"/>
<line x1="-88.6358" y1="77.735" x2="20.9657" y2="-31.8665" stroke="#BCB299" stroke-width="0.4"/>
<line x1="5.38665" y1="77.735" x2="114.988" y2="-31.8665" stroke="#BCB299" stroke-width="0.4"/>
<line x1="-82.7593" y1="77.735" x2="26.8422" y2="-31.8665" stroke="#BCB299" stroke-width="0.4"/>
<line x1="11.2631" y1="77.735" x2="120.865" y2="-31.8665" stroke="#BCB299" stroke-width="0.4"/>
<line x1="-76.8831" y1="77.735" x2="32.7184" y2="-31.8665" stroke="#BCB299" stroke-width="0.4"/>
<line x1="17.1393" y1="77.735" x2="126.741" y2="-31.8665" stroke="#BCB299" stroke-width="0.4"/>
<line x1="-71.0067" y1="77.735" x2="38.5949" y2="-31.8665" stroke="#BCB299" stroke-width="0.4"/>
<line x1="23.0158" y1="77.735" x2="132.617" y2="-31.8665" stroke="#BCB299" stroke-width="0.4"/>
<line x1="-65.1302" y1="77.735" x2="44.4714" y2="-31.8665" stroke="#BCB299" stroke-width="0.4"/>
<line x1="28.8923" y1="77.735" x2="138.494" y2="-31.8665" stroke="#BCB299" stroke-width="0.4"/>
<line x1="-59.2537" y1="77.735" x2="50.3478" y2="-31.8665" stroke="#BCB299" stroke-width="0.4"/>
<line x1="34.7687" y1="77.735" x2="144.37" y2="-31.8665" stroke="#BCB299" stroke-width="0.4"/>
<line x1="-53.3773" y1="77.735" x2="56.2243" y2="-31.8665" stroke="#BCB299" stroke-width="0.4"/>
<line x1="40.6452" y1="77.735" x2="150.247" y2="-31.8665" stroke="#BCB299" stroke-width="0.4"/>
<line x1="-47.501" y1="77.735" x2="62.1005" y2="-31.8665" stroke="#BCB299" stroke-width="0.4"/>
<line x1="46.5214" y1="77.735" x2="156.123" y2="-31.8665" stroke="#BCB299" stroke-width="0.4"/>
<line x1="-41.6246" y1="77.735" x2="67.977" y2="-31.8665" stroke="#BCB299" stroke-width="0.4"/>
<line x1="52.3979" y1="77.735" x2="161.999" y2="-31.8665" stroke="#BCB299" stroke-width="0.4"/>
<line x1="-35.7481" y1="77.735" x2="73.8534" y2="-31.8665" stroke="#BCB299" stroke-width="0.4"/>
<line x1="58.2744" y1="77.735" x2="167.876" y2="-31.8665" stroke="#BCB299" stroke-width="0.4"/>
<line x1="-29.8719" y1="77.735" x2="79.7297" y2="-31.8665" stroke="#BCB299" stroke-width="0.4"/>
<line x1="64.1506" y1="77.735" x2="173.752" y2="-31.8665" stroke="#BCB299" stroke-width="0.4"/>
<line x1="-23.9954" y1="77.735" x2="85.6061" y2="-31.8665" stroke="#BCB299" stroke-width="0.4"/>
<line x1="70.027" y1="77.735" x2="179.629" y2="-31.8665" stroke="#BCB299" stroke-width="0.4"/>
<line x1="75.9035" y1="77.735" x2="185.505" y2="-31.8665" stroke="#BCB299" stroke-width="0.4"/>
<line x1="81.78" y1="77.735" x2="191.382" y2="-31.8665" stroke="#BCB299" stroke-width="0.4"/>
<line x1="87.6564" y1="77.735" x2="197.258" y2="-31.8665" stroke="#BCB299" stroke-width="0.4"/>
<line x1="93.5327" y1="77.735" x2="203.134" y2="-31.8665" stroke="#BCB299" stroke-width="0.4"/>
<line x1="99.4091" y1="77.735" x2="209.011" y2="-31.8665" stroke="#BCB299" stroke-width="0.4"/>
</g>
<mask id="mask2" mask-type="alpha" maskUnits="userSpaceOnUse" x="100" y="-30" width="100" height="100">
<rect x="100" y="-30" width="100" height="100" fill="#C4C4C4"/>
</mask>
<g mask="url(#mask2)">
<line x1="81.881" y1="77.735" x2="191.483" y2="-31.8665" stroke="#BCB299" stroke-width="0.4"/>
<line x1="-6.26496" y1="77.735" x2="103.337" y2="-31.8665" stroke="#BCB299" stroke-width="0.4"/>
<line x1="87.7575" y1="77.735" x2="197.359" y2="-31.8665" stroke="#BCB299" stroke-width="0.4"/>
<line x1="-0.388492" y1="77.735" x2="109.213" y2="-31.8665" stroke="#BCB299" stroke-width="0.4"/>
<line x1="93.634" y1="77.735" x2="203.236" y2="-31.8665" stroke="#BCB299" stroke-width="0.4"/>
<line x1="5.48773" y1="77.735" x2="115.089" y2="-31.8665" stroke="#BCB299" stroke-width="0.4"/>
<line x1="99.5102" y1="77.735" x2="209.112" y2="-31.8665" stroke="#BCB299" stroke-width="0.4"/>
<line x1="11.3642" y1="77.735" x2="120.966" y2="-31.8665" stroke="#BCB299" stroke-width="0.4"/>
<line x1="105.387" y1="77.735" x2="214.988" y2="-31.8665" stroke="#BCB299" stroke-width="0.4"/>
<line x1="17.2407" y1="77.735" x2="126.842" y2="-31.8665" stroke="#BCB299" stroke-width="0.4"/>
<line x1="111.263" y1="77.735" x2="220.865" y2="-31.8665" stroke="#BCB299" stroke-width="0.4"/>
<line x1="23.1169" y1="77.735" x2="132.718" y2="-31.8665" stroke="#BCB299" stroke-width="0.4"/>
<line x1="117.139" y1="77.735" x2="226.741" y2="-31.8665" stroke="#BCB299" stroke-width="0.4"/>
<line x1="28.9933" y1="77.735" x2="138.595" y2="-31.8665" stroke="#BCB299" stroke-width="0.4"/>
<line x1="123.016" y1="77.735" x2="232.617" y2="-31.8665" stroke="#BCB299" stroke-width="0.4"/>
<line x1="34.8698" y1="77.735" x2="144.471" y2="-31.8665" stroke="#BCB299" stroke-width="0.4"/>
<line x1="128.892" y1="77.735" x2="238.494" y2="-31.8665" stroke="#BCB299" stroke-width="0.4"/>
<line x1="40.7463" y1="77.735" x2="150.348" y2="-31.8665" stroke="#BCB299" stroke-width="0.4"/>
<line x1="134.769" y1="77.735" x2="244.37" y2="-31.8665" stroke="#BCB299" stroke-width="0.4"/>
<line x1="46.6227" y1="77.735" x2="156.224" y2="-31.8665" stroke="#BCB299" stroke-width="0.4"/>
<line x1="140.645" y1="77.735" x2="250.247" y2="-31.8665" stroke="#BCB299" stroke-width="0.4"/>
<line x1="52.499" y1="77.735" x2="162.101" y2="-31.8665" stroke="#BCB299" stroke-width="0.4"/>
<line x1="146.521" y1="77.735" x2="256.123" y2="-31.8665" stroke="#BCB299" stroke-width="0.4"/>
<line x1="58.3754" y1="77.735" x2="167.977" y2="-31.8665" stroke="#BCB299" stroke-width="0.4"/>
<line x1="152.398" y1="77.735" x2="261.999" y2="-31.8665" stroke="#BCB299" stroke-width="0.4"/>
<line x1="64.2519" y1="77.735" x2="173.853" y2="-31.8665" stroke="#BCB299" stroke-width="0.4"/>
<line x1="158.274" y1="77.735" x2="267.876" y2="-31.8665" stroke="#BCB299" stroke-width="0.4"/>
<line x1="70.1281" y1="77.735" x2="179.73" y2="-31.8665" stroke="#BCB299" stroke-width="0.4"/>
<line x1="164.151" y1="77.735" x2="273.752" y2="-31.8665" stroke="#BCB299" stroke-width="0.4"/>
<line x1="76.0046" y1="77.735" x2="185.606" y2="-31.8665" stroke="#BCB299" stroke-width="0.4"/>
<line x1="170.027" y1="77.735" x2="279.629" y2="-31.8665" stroke="#BCB299" stroke-width="0.4"/>
<line x1="175.904" y1="77.735" x2="285.505" y2="-31.8665" stroke="#BCB299" stroke-width="0.4"/>
</g>
</g>
<rect x="44" y="15" width="1" height="19" fill="#BCB299"/>
<rect x="90" y="20" width="1" height="20" fill="#BCB299"/>
<rect x="134" y="16" width="1" height="19" fill="#BCB299"/>
</svg>
