<svg width="188" height="92" viewBox="0 0 188 92" fill="none" xmlns="http://www.w3.org/2000/svg">
<path d="M186.5 2.65273V71.6056C186.421 71.6245 186.329 71.6462 186.226 71.6707C185.794 71.7731 185.156 71.9233 184.332 72.1145C182.682 72.4969 180.286 73.0434 177.301 73.6991C171.33 75.0108 163.003 76.7596 153.58 78.5084C134.723 82.0078 111.512 85.5 94 85.5C76.4881 85.5 53.2767 82.0078 34.4204 78.5084C24.9971 76.7596 16.6703 75.0108 10.6994 73.6991C7.71411 73.0434 5.31796 72.4969 3.66845 72.1145C2.84371 71.9233 2.20563 71.7731 1.77392 71.6707C1.67073 71.6462 1.57934 71.6245 1.5 71.6056V2.65273C1.88337 2.75513 2.43632 2.90142 3.1459 3.08554C4.62372 3.46899 6.78103 4.01656 9.50087 4.67352C14.9404 5.98741 22.6308 7.7391 31.6366 9.4908C49.6426 12.9931 72.9289 16.5 94 16.5C115.071 16.5 138.357 12.9931 156.363 9.4908C165.369 7.7391 173.06 5.98741 178.499 4.67352C181.219 4.01656 183.376 3.46899 184.854 3.08554C185.564 2.90142 186.117 2.75513 186.5 2.65273Z" fill="#EDEAE3" stroke="#BCB299"/>
<mask id="mask0" mask-type="alpha" maskUnits="userSpaceOnUse" x="0" y="3" width="188" height="84">
<path d="M187 4.29917V72.2085C186.568 72.3095 185.961 72.4508 185.193 72.6269C183.528 73.0089 181.108 73.555 178.092 74.2103C172.061 75.5211 163.65 77.2688 154.132 79.0164C135.076 82.5152 111.653 86 94 86C76.3475 86 52.9238 82.5152 33.8681 79.0164C24.3499 77.2688 15.9389 75.5211 9.90769 74.2103C6.89227 73.555 4.47219 73.0089 2.80658 72.6269C2.03889 72.4508 1.4315 72.3095 1 72.2085V4.29917C1.29884 4.37716 1.64867 4.46784 2.04725 4.57016C3.54338 4.95423 5.72654 5.50246 8.47851 6.16011C13.9821 7.47534 21.7625 9.22865 30.8735 10.982C49.0847 14.4865 72.6567 18 94 18C115.343 18 138.915 14.4865 157.126 10.982C166.238 9.22865 174.018 7.47534 179.521 6.16011C182.273 5.50246 184.457 4.95423 185.953 4.57016C186.351 4.46784 186.701 4.37716 187 4.29917Z" fill="#EDEAE3" stroke="#BCB299" stroke-width="2"/>
</mask>
<g mask="url(#mask0)">
<mask id="mask1" mask-type="alpha" maskUnits="userSpaceOnUse" x="-2" y="-5" width="100" height="100">
<rect x="-2" y="-5" width="100" height="100" fill="#C4C4C4"/>
</mask>
<g mask="url(#mask1)">
<line x1="-20.119" y1="102.735" x2="89.4826" y2="-6.86651" stroke="#BCB299" stroke-width="0.4"/>
<line x1="-108.265" y1="102.735" x2="1.33659" y2="-6.86651" stroke="#BCB299" stroke-width="0.4"/>
<line x1="-14.2425" y1="102.735" x2="95.3591" y2="-6.86651" stroke="#BCB299" stroke-width="0.4"/>
<line x1="-102.388" y1="102.735" x2="7.21306" y2="-6.86651" stroke="#BCB299" stroke-width="0.4"/>
<line x1="-8.36603" y1="102.735" x2="101.236" y2="-6.86651" stroke="#BCB299" stroke-width="0.4"/>
<line x1="-96.5123" y1="102.735" x2="13.0893" y2="-6.86651" stroke="#BCB299" stroke-width="0.4"/>
<line x1="-2.48981" y1="102.735" x2="107.112" y2="-6.86651" stroke="#BCB299" stroke-width="0.4"/>
<line x1="-90.6358" y1="102.735" x2="18.9657" y2="-6.86651" stroke="#BCB299" stroke-width="0.4"/>
<line x1="3.38665" y1="102.735" x2="112.988" y2="-6.86651" stroke="#BCB299" stroke-width="0.4"/>
<line x1="-84.7593" y1="102.735" x2="24.8422" y2="-6.86651" stroke="#BCB299" stroke-width="0.4"/>
<line x1="9.26312" y1="102.735" x2="118.865" y2="-6.86651" stroke="#BCB299" stroke-width="0.4"/>
<line x1="-78.8831" y1="102.735" x2="30.7184" y2="-6.86651" stroke="#BCB299" stroke-width="0.4"/>
<line x1="15.1393" y1="102.735" x2="124.741" y2="-6.86651" stroke="#BCB299" stroke-width="0.4"/>
<line x1="-73.0067" y1="102.735" x2="36.5949" y2="-6.86651" stroke="#BCB299" stroke-width="0.4"/>
<line x1="21.0158" y1="102.735" x2="130.617" y2="-6.86651" stroke="#BCB299" stroke-width="0.4"/>
<line x1="-67.1302" y1="102.735" x2="42.4714" y2="-6.86651" stroke="#BCB299" stroke-width="0.4"/>
<line x1="26.8923" y1="102.735" x2="136.494" y2="-6.86651" stroke="#BCB299" stroke-width="0.4"/>
<line x1="-61.2537" y1="102.735" x2="48.3478" y2="-6.86651" stroke="#BCB299" stroke-width="0.4"/>
<line x1="32.7687" y1="102.735" x2="142.37" y2="-6.86651" stroke="#BCB299" stroke-width="0.4"/>
<line x1="-55.3773" y1="102.735" x2="54.2243" y2="-6.86651" stroke="#BCB299" stroke-width="0.4"/>
<line x1="38.6452" y1="102.735" x2="148.247" y2="-6.86651" stroke="#BCB299" stroke-width="0.4"/>
<line x1="-49.501" y1="102.735" x2="60.1005" y2="-6.86651" stroke="#BCB299" stroke-width="0.4"/>
<line x1="44.5214" y1="102.735" x2="154.123" y2="-6.86651" stroke="#BCB299" stroke-width="0.4"/>
<line x1="-43.6246" y1="102.735" x2="65.977" y2="-6.86651" stroke="#BCB299" stroke-width="0.4"/>
<line x1="50.3979" y1="102.735" x2="159.999" y2="-6.86651" stroke="#BCB299" stroke-width="0.4"/>
<line x1="-37.7481" y1="102.735" x2="71.8534" y2="-6.86651" stroke="#BCB299" stroke-width="0.4"/>
<line x1="56.2744" y1="102.735" x2="165.876" y2="-6.86651" stroke="#BCB299" stroke-width="0.4"/>
<line x1="-31.8719" y1="102.735" x2="77.7297" y2="-6.86651" stroke="#BCB299" stroke-width="0.4"/>
<line x1="62.1506" y1="102.735" x2="171.752" y2="-6.86651" stroke="#BCB299" stroke-width="0.4"/>
<line x1="-25.9954" y1="102.735" x2="83.6061" y2="-6.86651" stroke="#BCB299" stroke-width="0.4"/>
<line x1="68.027" y1="102.735" x2="177.629" y2="-6.86651" stroke="#BCB299" stroke-width="0.4"/>
<line x1="73.9035" y1="102.735" x2="183.505" y2="-6.86651" stroke="#BCB299" stroke-width="0.4"/>
<line x1="79.78" y1="102.735" x2="189.382" y2="-6.86651" stroke="#BCB299" stroke-width="0.4"/>
<line x1="85.6564" y1="102.735" x2="195.258" y2="-6.86651" stroke="#BCB299" stroke-width="0.4"/>
<line x1="91.5327" y1="102.735" x2="201.134" y2="-6.86651" stroke="#BCB299" stroke-width="0.4"/>
<line x1="97.4091" y1="102.735" x2="207.011" y2="-6.86651" stroke="#BCB299" stroke-width="0.4"/>
</g>
<mask id="mask2" mask-type="alpha" maskUnits="userSpaceOnUse" x="98" y="-5" width="100" height="100">
<rect x="98" y="-5" width="100" height="100" fill="#C4C4C4"/>
</mask>
<g mask="url(#mask2)">
<line x1="79.881" y1="102.735" x2="189.483" y2="-6.86651" stroke="#BCB299" stroke-width="0.4"/>
<line x1="-8.26496" y1="102.735" x2="101.337" y2="-6.86651" stroke="#BCB299" stroke-width="0.4"/>
<line x1="85.7575" y1="102.735" x2="195.359" y2="-6.86651" stroke="#BCB299" stroke-width="0.4"/>
<line x1="-2.38849" y1="102.735" x2="107.213" y2="-6.86651" stroke="#BCB299" stroke-width="0.4"/>
<line x1="91.634" y1="102.735" x2="201.236" y2="-6.86651" stroke="#BCB299" stroke-width="0.4"/>
<line x1="3.48773" y1="102.735" x2="113.089" y2="-6.86651" stroke="#BCB299" stroke-width="0.4"/>
<line x1="97.5102" y1="102.735" x2="207.112" y2="-6.86651" stroke="#BCB299" stroke-width="0.4"/>
<line x1="9.36419" y1="102.735" x2="118.966" y2="-6.86651" stroke="#BCB299" stroke-width="0.4"/>
<line x1="103.387" y1="102.735" x2="212.988" y2="-6.86651" stroke="#BCB299" stroke-width="0.4"/>
<line x1="15.2407" y1="102.735" x2="124.842" y2="-6.86651" stroke="#BCB299" stroke-width="0.4"/>
<line x1="109.263" y1="102.735" x2="218.865" y2="-6.86651" stroke="#BCB299" stroke-width="0.4"/>
<line x1="21.1169" y1="102.735" x2="130.718" y2="-6.86651" stroke="#BCB299" stroke-width="0.4"/>
<line x1="115.139" y1="102.735" x2="224.741" y2="-6.86651" stroke="#BCB299" stroke-width="0.4"/>
<line x1="26.9933" y1="102.735" x2="136.595" y2="-6.86651" stroke="#BCB299" stroke-width="0.4"/>
<line x1="121.016" y1="102.735" x2="230.617" y2="-6.86651" stroke="#BCB299" stroke-width="0.4"/>
<line x1="32.8698" y1="102.735" x2="142.471" y2="-6.86651" stroke="#BCB299" stroke-width="0.4"/>
<line x1="126.892" y1="102.735" x2="236.494" y2="-6.86651" stroke="#BCB299" stroke-width="0.4"/>
<line x1="38.7463" y1="102.735" x2="148.348" y2="-6.86651" stroke="#BCB299" stroke-width="0.4"/>
<line x1="132.769" y1="102.735" x2="242.37" y2="-6.86651" stroke="#BCB299" stroke-width="0.4"/>
<line x1="44.6227" y1="102.735" x2="154.224" y2="-6.86651" stroke="#BCB299" stroke-width="0.4"/>
<line x1="138.645" y1="102.735" x2="248.247" y2="-6.86651" stroke="#BCB299" stroke-width="0.4"/>
<line x1="50.499" y1="102.735" x2="160.101" y2="-6.86651" stroke="#BCB299" stroke-width="0.4"/>
<line x1="144.521" y1="102.735" x2="254.123" y2="-6.86651" stroke="#BCB299" stroke-width="0.4"/>
<line x1="56.3754" y1="102.735" x2="165.977" y2="-6.86651" stroke="#BCB299" stroke-width="0.4"/>
<line x1="150.398" y1="102.735" x2="259.999" y2="-6.86651" stroke="#BCB299" stroke-width="0.4"/>
<line x1="62.2519" y1="102.735" x2="171.853" y2="-6.86651" stroke="#BCB299" stroke-width="0.4"/>
<line x1="156.274" y1="102.735" x2="265.876" y2="-6.86651" stroke="#BCB299" stroke-width="0.4"/>
<line x1="68.1281" y1="102.735" x2="177.73" y2="-6.86651" stroke="#BCB299" stroke-width="0.4"/>
<line x1="162.151" y1="102.735" x2="271.752" y2="-6.86651" stroke="#BCB299" stroke-width="0.4"/>
<line x1="74.0046" y1="102.735" x2="183.606" y2="-6.86651" stroke="#BCB299" stroke-width="0.4"/>
<line x1="168.027" y1="102.735" x2="277.629" y2="-6.86651" stroke="#BCB299" stroke-width="0.4"/>
<line x1="173.904" y1="102.735" x2="283.505" y2="-6.86651" stroke="#BCB299" stroke-width="0.4"/>
<line x1="179.78" y1="102.735" x2="289.382" y2="-6.86651" stroke="#BCB299" stroke-width="0.4"/>
<line x1="185.656" y1="102.735" x2="295.258" y2="-6.86651" stroke="#BCB299" stroke-width="0.4"/>
</g>
</g>
<path fill-rule="evenodd" clip-rule="evenodd" d="M0 4C0 1.79086 1.79086 0 4 0C6.20914 0 8 1.79086 8 4V65.4964C8 69.2325 10.5709 72.4727 14.2224 73.2632C33.3321 77.4 67.9089 84 94 84C120.091 84 154.668 77.4 173.778 73.2632C177.429 72.4727 180 69.2324 180 65.4964V4C180 1.79086 181.791 0 184 0C186.209 0 188 1.79086 188 4V70V77C188 77.5929 187.639 78.1058 187.069 78.267C180.217 80.2019 136.687 92 94 92C51.313 92 7.78324 80.2019 0.931421 78.267C0.360796 78.1058 0 77.5929 0 77V70V4Z" fill="#BCB299"/>
</svg>
