<svg width="60" height="60" viewBox="0 0 60 60" fill="none" xmlns="http://www.w3.org/2000/svg">
<path d="M35.5909 25.5244C35.4854 26.0049 35.0283 26.2979 34.5479 26.2041C34.0674 26.0987 33.7744 25.6416 33.8682 25.1612C34.3838 22.7705 35.7315 20.626 37.6065 19.1026C39.4229 17.626 41.7315 16.7237 44.2276 16.7237C47.1338 16.7237 49.7705 17.9307 51.6807 19.8408C53.6143 21.7744 54.8213 24.4463 54.8213 27.3057C54.8213 31.9463 50.7549 36.8448 47.3682 40.4658C47.7315 40.7823 48.0479 41.1573 48.294 41.5791C48.7276 42.294 48.9737 43.126 48.9737 44.0166C48.9737 45.3291 48.4463 46.5127 47.5791 47.3799C46.7237 48.2354 45.5284 48.7744 44.2276 48.7744C42.9151 48.7744 41.7315 48.2471 40.8643 47.3799C40.0088 46.5244 39.4698 45.3291 39.4698 44.0166C39.4698 43.126 39.7159 42.294 40.1494 41.5791C40.3955 41.169 40.7119 40.794 41.0752 40.4658C38.2159 37.4073 34.876 33.4229 33.9151 29.4737C33.7979 29.0049 34.0909 28.5244 34.5596 28.419C35.0284 28.3018 35.5088 28.5948 35.6143 29.0635C36.5284 32.7901 39.9619 36.751 42.7744 39.7159C43.2549 40.2198 43.7471 40.7237 44.2276 41.2159C44.6729 40.7588 45.1182 40.2901 45.5518 39.8213C48.8096 36.376 53.0518 31.5362 53.0518 27.2823C53.0518 24.9033 52.044 22.6768 50.4268 21.0596C48.833 19.4658 46.6416 18.4463 44.2158 18.4463C42.1299 18.4463 40.208 19.1963 38.6963 20.4268C37.1494 21.751 36.0127 23.5323 35.5909 25.5244ZM37.0557 45.3643C37.5244 45.2471 38.0049 45.5166 38.1338 45.9854C38.2627 46.4541 37.9815 46.9346 37.5127 47.0635L35.4151 47.626C34.9463 47.7549 34.4659 47.4737 34.3369 47.0049C34.208 46.5362 34.4893 46.0557 34.958 45.9268L37.0557 45.3643ZM31.6651 46.8174C32.1338 46.7002 32.6143 46.9698 32.7432 47.4385C32.8604 47.9073 32.5909 48.3877 32.1221 48.5166L30.0244 49.0791C29.5557 49.208 29.0752 48.9268 28.9463 48.458C28.8291 47.9893 29.0987 47.5088 29.5674 47.3799L31.6651 46.8174ZM38.3213 39.9971C38.7666 40.1846 38.9776 40.7002 38.8018 41.1455C38.6143 41.5909 38.0987 41.8018 37.6533 41.626L35.6494 40.794C35.2041 40.6065 34.9932 40.0908 35.169 39.6455C35.3565 39.2002 35.8721 38.9893 36.3174 39.1768L38.3213 39.9971ZM33.1651 37.8409C33.6104 38.0284 33.8213 38.544 33.6455 38.9893C33.458 39.4346 32.9424 39.6455 32.4971 39.458L30.4932 38.626C30.0479 38.4385 29.8369 37.9229 30.0127 37.4776C30.2002 37.0323 30.7158 36.8213 31.1612 36.9971L33.1651 37.8409ZM28.0205 35.6846C28.4659 35.8721 28.6768 36.3877 28.4893 36.833C28.3018 37.2783 27.7862 37.4893 27.3408 37.3135L25.3369 36.4815C24.8916 36.294 24.6807 35.7784 24.8682 35.333C25.0557 34.8877 25.5713 34.6768 26.0166 34.8526L28.0205 35.6846ZM22.876 33.5284C23.3213 33.7159 23.5323 34.2315 23.3565 34.6768C23.169 35.1221 22.6533 35.333 22.208 35.1573L20.2041 34.3252C19.7588 34.1377 19.5479 33.6221 19.7237 33.1768C19.9112 32.7315 20.4268 32.5205 20.8721 32.708L22.876 33.5284ZM17.7315 31.3721C18.1768 31.5596 18.3877 32.0752 18.2119 32.5205C18.0244 32.9659 17.5088 33.1768 17.0635 32.9893L15.0596 32.1573C14.6143 31.9698 14.4033 31.4541 14.5791 31.0088C14.7666 30.5635 15.2823 30.3526 15.7276 30.5283L17.7315 31.3721ZM29.6143 13.1729C30.0127 12.9033 30.5518 13.0088 30.833 13.3955C31.1026 13.794 30.9971 14.3448 30.5987 14.6143L28.8174 15.8448C28.419 16.1143 27.8682 16.0205 27.5987 15.6221C27.3291 15.2237 27.4229 14.6729 27.8213 14.4033L29.6143 13.1729ZM25.0088 16.3369C25.4073 16.0674 25.958 16.1612 26.2276 16.5596C26.4971 16.958 26.4033 17.5088 26.0049 17.7783L24.2119 19.0088C23.8135 19.2901 23.2744 19.1846 22.9932 18.7862C22.7237 18.3877 22.8291 17.8369 23.2158 17.5674L25.0088 16.3369ZM20.4151 19.501C20.8135 19.2315 21.3643 19.3369 21.6338 19.7237C21.9033 20.1221 21.7979 20.6729 21.4112 20.9424L19.6182 22.1729C19.2198 22.4424 18.669 22.3369 18.3994 21.9502C18.1299 21.5518 18.2237 21.001 18.6221 20.7315L20.4151 19.501ZM15.8096 22.6651C16.208 22.3838 16.7588 22.4893 17.0283 22.8877C17.2979 23.2862 17.2041 23.8369 16.8057 24.1065L15.0127 25.3369C14.6143 25.6182 14.0752 25.5127 13.794 25.1143C13.5244 24.7158 13.6299 24.1651 14.0283 23.8955L15.8096 22.6651ZM36.3409 5.4971C37.6534 5.4971 38.8369 6.02444 39.6924 6.89163C40.5479 7.7471 41.0869 8.94241 41.0869 10.2432C41.0869 11.5557 40.5596 12.7393 39.6924 13.6065C38.8369 14.4619 37.6534 14.9893 36.3409 14.9893C35.0284 14.9893 33.8448 14.4619 32.9893 13.6065C32.1338 12.751 31.5948 11.5557 31.5948 10.2432C31.5948 8.93069 32.1221 7.7471 32.9893 6.89163C33.8448 6.02444 35.0284 5.4971 36.3409 5.4971ZM38.4502 8.1221C37.9112 7.58303 37.1612 7.24319 36.3409 7.24319C35.5205 7.24319 34.7705 7.57132 34.2315 8.1221C33.6924 8.66116 33.3526 9.41116 33.3526 10.2315C33.3526 11.0635 33.6924 11.8018 34.2315 12.3526C34.7705 12.8916 35.5205 13.2315 36.3409 13.2315C37.1612 13.2315 37.9112 12.8916 38.4502 12.3526C38.9893 11.8135 39.3291 11.0635 39.3291 10.2315C39.3291 9.41116 39.001 8.67288 38.4502 8.1221ZM8.73147 24.001C10.044 24.001 11.2276 24.5283 12.083 25.3955C12.9385 26.251 13.4776 27.4463 13.4776 28.7588C13.4776 30.0713 12.9502 31.2549 12.083 32.1104C11.2276 32.9659 10.0323 33.5049 8.73147 33.5049C7.41897 33.5049 6.23538 32.9776 5.36819 32.1104C4.51272 31.2549 3.98538 30.0596 3.98538 28.7588C3.98538 27.4463 4.51272 26.2627 5.36819 25.3955C6.22366 24.5283 7.41897 24.001 8.73147 24.001ZM10.8408 26.626C10.3018 26.0869 9.55178 25.7471 8.73147 25.7471C7.89944 25.7471 7.16116 26.0869 6.61038 26.626C6.07132 27.1651 5.73147 27.9151 5.73147 28.7471C5.73147 29.5674 6.07132 30.3174 6.61038 30.8565C7.14944 31.3955 7.89944 31.7354 8.73147 31.7354C9.55178 31.7354 10.3018 31.4073 10.8408 30.8565C11.3799 30.3174 11.7198 29.5674 11.7198 28.7471C11.708 27.9151 11.3799 27.1651 10.8408 26.626ZM46.1612 41.7666L45.4463 42.5049C45.083 42.8916 44.6846 43.0909 44.2393 43.0909C43.6534 43.1026 43.2784 42.7979 42.8916 42.3994C42.6924 42.1885 42.4815 41.9776 42.2705 41.7666C42.0244 41.9776 41.8135 42.2237 41.6494 42.5049C41.3799 42.9502 41.2276 43.4776 41.2276 44.0401C41.2276 44.8721 41.5674 45.6104 42.1065 46.1612C42.6455 46.7002 43.3955 47.0401 44.2158 47.0401C45.0362 47.0401 45.7862 46.7002 46.3252 46.1612C46.8643 45.6221 47.2041 44.8721 47.2041 44.0401C47.2041 43.4776 47.0518 42.9502 46.7823 42.5049C46.6299 42.2237 46.4073 41.9776 46.1612 41.7666ZM22.7237 45.1651C24.0362 45.1651 25.2198 45.6924 26.0869 46.5596C26.9424 47.4151 27.4815 48.6104 27.4815 49.9229C27.4815 51.2354 26.9541 52.419 26.0869 53.2744C25.2315 54.1299 24.0362 54.669 22.7237 54.669C21.4112 54.669 20.2276 54.1416 19.3721 53.2744C18.5166 52.419 17.9776 51.2237 17.9776 49.9229C17.9776 48.6104 18.5049 47.4268 19.3721 46.5596C20.2276 45.6924 21.4112 45.1651 22.7237 45.1651ZM24.833 47.8018C24.294 47.2627 23.544 46.9229 22.7119 46.9229C21.8916 46.9229 21.1416 47.2627 20.6026 47.8018C20.0635 48.3409 19.7237 49.0909 19.7237 49.9112C19.7237 50.7315 20.0518 51.4815 20.6026 52.0205C21.1533 52.5596 21.8916 52.8994 22.7119 52.8994C23.544 52.8994 24.2823 52.5596 24.833 52.0205C25.3721 51.4815 25.7119 50.7315 25.7119 49.9112C25.7119 49.0791 25.3721 48.3409 24.833 47.8018ZM48.5635 51.294C48.9268 50.9776 49.4776 51.0127 49.794 51.376C50.1104 51.7393 50.0752 52.2901 49.7119 52.6065C43.794 57.7744 36.3526 60.2354 28.9698 59.9776C21.6338 59.7315 14.3799 56.8135 8.79007 51.2119C3.1885 45.6221 0.270534 38.3682 0.0244406 31.0323C-0.233372 23.6612 2.22757 16.1963 7.39553 10.2901C7.71194 9.92679 8.26272 9.89163 8.626 10.208C8.98928 10.5244 9.02444 11.0752 8.70804 11.4385C3.84475 17.0049 1.53616 24.0244 1.77053 30.9737C2.00491 37.876 4.75882 44.6963 10.0205 49.9698C15.2823 55.2432 22.1143 57.9971 29.0166 58.2315C35.9776 58.4659 42.9971 56.1573 48.5635 51.294ZM11.4385 8.70804C11.0752 9.02444 10.5244 8.98928 10.208 8.626C9.89163 8.26272 9.92679 7.71194 10.2901 7.39553C16.1963 2.22757 23.6612 -0.233372 31.0323 0.0244406C38.3682 0.270534 45.6221 3.1885 51.2119 8.79007C56.8018 14.3799 59.7315 21.6455 59.9776 28.9698C60.2354 36.3526 57.7744 43.8057 52.6065 49.7119C52.2901 50.0752 51.7393 50.1104 51.376 49.794C51.0127 49.4776 50.9776 48.9268 51.294 48.5635C56.1573 42.9971 58.4659 35.9776 58.2315 29.0283C57.9971 22.126 55.2432 15.3057 49.9698 10.0323C44.6963 4.75882 37.876 2.00491 30.9737 1.78225C24.0244 1.53616 17.0049 3.84475 11.4385 8.70804ZM44.2276 21.5635C45.8213 21.5635 47.2627 22.208 48.3057 23.251C49.3487 24.294 49.9932 25.7354 49.9932 27.3291C49.9932 28.9229 49.3487 30.3643 48.3057 31.4073C47.2627 32.4502 45.8213 33.0948 44.2276 33.0948C42.6338 33.0948 41.1924 32.4502 40.1494 31.4073C39.1065 30.3643 38.4619 28.9229 38.4619 27.3291C38.4619 25.7354 39.1065 24.294 40.1494 23.251C41.1924 22.208 42.6338 21.5635 44.2276 21.5635ZM47.0635 24.4932C46.3369 23.7666 45.3409 23.3213 44.2276 23.3213C43.126 23.3213 42.1182 23.7666 41.3916 24.4932C40.6651 25.2198 40.2198 26.2158 40.2198 27.3291C40.2198 28.4424 40.6651 29.4385 41.3916 30.1651C42.1182 30.8916 43.1143 31.3369 44.2276 31.3369C45.3291 31.3369 46.3369 30.8916 47.0635 30.1651C47.7901 29.4385 48.2354 28.4424 48.2354 27.3291C48.2354 26.2158 47.7901 25.2198 47.0635 24.4932Z" fill="#362A24"/>
</svg>
