<svg width="60" height="60" viewBox="0 0 60 60" fill="none" xmlns="http://www.w3.org/2000/svg">
<path d="M52.2756 44.563H48.4606C48.0591 44.563 47.7402 44.8819 47.7402 45.2835C47.7402 45.685 48.0591 46.0039 48.4606 46.0039H52.2756C52.6772 46.0039 52.9961 45.685 52.9961 45.2835C52.9961 44.8819 52.6772 44.563 52.2756 44.563Z" fill="#362A24"/>
<path d="M38.9173 20.374H35.1024C34.7008 20.374 34.3819 20.6929 34.3819 21.0945C34.3819 21.4961 34.7008 21.815 35.1024 21.815H38.9173C39.3189 21.815 39.6378 21.4961 39.6378 21.0945C39.6378 20.6929 39.3071 20.374 38.9173 20.374Z" fill="#362A24"/>
<path d="M21.7205 45.9922H25.5354C25.7244 45.9922 25.9134 45.9213 26.0433 45.7796C26.1732 45.6497 26.2559 45.4607 26.2559 45.2717C26.2559 44.8702 25.937 44.5513 25.5354 44.5513H21.7205C21.3189 44.5513 21 44.8702 21 45.2717C21 45.6733 21.3307 45.9922 21.7205 45.9922Z" fill="#362A24"/>
<path d="M42.0945 0H17.9055C16.8071 0 15.9094 0.897638 15.9094 1.99606V24.189H4.53543C3.43701 24.189 2.53937 25.0866 2.53937 26.185V48.4606L2.3622 48.5079C0.980315 48.8976 0 50.185 0 51.6378V55.4528C0 57.248 1.46457 58.7126 3.25984 58.7126H6.49606L6.55512 58.8425C6.88583 59.5394 7.59449 59.9764 8.35039 59.9764H15.9921C16.7598 59.9764 17.4567 59.5276 17.7874 58.8425L17.8465 58.7126H42.1299L42.189 58.8425C42.5197 59.5394 43.2283 59.9764 43.9843 59.9764H51.626C52.3937 59.9764 53.0905 59.5276 53.4213 58.8425L53.4803 58.7126H56.7047C58.5 58.7126 59.9646 57.248 59.9646 55.4528V51.6378C59.9646 50.185 58.9843 48.8976 57.5906 48.4961L57.4134 48.4488V26.185C57.4134 25.0866 56.5158 24.189 55.4173 24.189H44.0433V1.99606C44.0906 0.897638 43.1929 0 42.0945 0ZM26.8937 1.44094H33.0945V7.35827L26.8937 5.29134V1.44094ZM17.3504 1.99606C17.3504 1.68898 17.5984 1.44094 17.9055 1.44094H25.4646V5.81102C25.4646 6.11811 25.6654 6.38976 25.9606 6.49606L33.6024 9.04724C33.815 9.11811 34.063 9.08268 34.252 8.95276C34.4409 8.82283 34.5472 8.59842 34.5472 8.37402V1.44094H42.1063C42.4134 1.44094 42.6614 1.68898 42.6614 1.99606V24.189H36.378H17.3622V1.99606H17.3504ZM13.5354 25.6299H19.7362V31.5472L13.5354 29.4803V25.6299ZM3.98032 26.185C3.98032 25.878 4.22835 25.6299 4.53543 25.6299H12.0945V30C12.0945 30.3071 12.2953 30.5787 12.5906 30.685L20.2323 33.2362C20.4567 33.3071 20.6929 33.2717 20.8819 33.1417C21.0709 33.0118 21.1772 32.7874 21.1772 32.563V25.6299H29.2913V48.378H26.185C26.1496 48.378 26.126 48.378 26.0787 48.3898H26.0433H26.0079C25.9724 48.378 25.937 48.378 25.9016 48.378H3.98032V26.185ZM16.5472 58.0039C16.5472 58.311 16.2992 58.5591 15.9921 58.5591H8.36221C8.05512 58.5591 7.80709 58.311 7.80709 58.0039V55.4528C7.80709 55.1457 8.05512 54.8976 8.36221 54.8976H16.0039C16.311 54.8976 16.5591 55.1457 16.5591 55.4528V58.0039H16.5472ZM52.1929 58.0039C52.1929 58.311 51.9449 58.5591 51.6378 58.5591H43.9961C43.689 58.5591 43.4409 58.311 43.4409 58.0039V55.4528C43.4409 55.1457 43.689 54.8976 43.9961 54.8976H51.6378C51.9449 54.8976 52.1929 55.1457 52.1929 55.4528V58.0039ZM47.6102 33.1299C47.7992 33 47.9055 32.7756 47.9055 32.5512V25.6299H55.4646C55.7717 25.6299 56.0197 25.878 56.0197 26.185V48.378H52.9134C52.5118 48.378 52.1929 48.6968 52.1929 49.0984C52.1929 49.5 52.5118 49.8189 52.9134 49.8189H56.7283C57.7323 49.8189 58.5591 50.6339 58.5591 51.6496V55.4646C58.5591 56.4685 57.7441 57.2953 56.7283 57.2953H53.622V55.4646C53.622 54.3661 52.7244 53.4685 51.626 53.4685H43.9843C42.8858 53.4685 41.9882 54.3661 41.9882 55.4646V57.2953H17.9882V55.4646C17.9882 54.3661 17.0906 53.4685 15.9921 53.4685H8.36221C7.26378 53.4685 6.36614 54.3661 6.36614 55.4646V57.2953H3.25984C2.25591 57.2953 1.42913 56.4803 1.42913 55.4646V51.6496C1.42913 50.6457 2.24409 49.8189 3.25984 49.8189H25.9016C25.937 49.8189 25.9606 49.8189 26.0079 49.8071H26.0433H26.0787C26.1142 49.8071 26.1496 49.8189 26.185 49.8189H49.0984C49.5 49.8189 49.8189 49.5 49.8189 49.0984C49.8189 48.6968 49.5 48.378 49.0984 48.378H30.7205V25.6299H38.8346V30C38.8346 30.3071 39.0354 30.5787 39.3307 30.685L46.9724 33.2362C47.1732 33.2953 47.4213 33.2598 47.6102 33.1299ZM46.4646 25.6299V31.5472L40.2638 29.4803V25.6299H46.4646Z" fill="#362A24"/>
</svg>
