<svg width="50" height="50" viewBox="0 0 50 50" fill="none" xmlns="http://www.w3.org/2000/svg">
<path d="M46.7742 10.5544L47.4597 6.45161H48.3871C49.2742 6.45161 50 5.72581 50 4.83871V1.6129C50 0.725806 49.2742 0 48.3871 0H1.6129C0.725806 0 0 0.725806 0 1.6129V4.83871C0 5.72581 0.725806 6.45161 1.6129 6.45161H2.54032L3.22581 10.5544V43.5484C2.33871 43.5484 1.6129 44.2742 1.6129 45.1613V48.3871H0V50H50V48.3871H48.3871V45.1613C48.3871 44.2742 47.6613 43.5484 46.7742 43.5484V10.5544ZM40.3226 43.5484V14.5161H41.9355V43.5484H40.3226ZM33.871 45.1613V48.3871H32.2581V45.1613C32.2581 44.2742 31.5323 43.5484 30.6452 43.5484V10.5544L31.3306 6.45161H34.7984L35.4839 10.5544V43.5484C34.5968 43.5484 33.871 44.2742 33.871 45.1613ZM4.83871 12.0968C4.83871 11.6532 5.20161 11.2903 5.64516 11.2903C6.08871 11.2903 6.45161 11.6532 6.45161 12.0968C6.45161 12.5403 6.08871 12.9032 5.64516 12.9032C5.20161 12.9032 4.83871 12.5403 4.83871 12.0968ZM12.9032 12.0968C12.9032 12.5403 12.5403 12.9032 12.0968 12.9032C11.6532 12.9032 11.2903 12.5403 11.2903 12.0968C11.2903 11.6532 11.6532 11.2903 12.0968 11.2903C12.5403 11.2903 12.9032 11.6532 12.9032 12.0968ZM9.67742 12.0968C9.67742 12.5403 9.31452 12.9032 8.87097 12.9032C8.42742 12.9032 8.06452 12.5403 8.06452 12.0968C8.06452 11.6532 8.42742 11.2903 8.87097 11.2903C9.31452 11.2903 9.67742 11.6532 9.67742 12.0968ZM9.67742 14.5161V43.5484H8.06452V14.5161H9.67742ZM11.2903 14.5161H12.9133L12.9032 43.5484H11.2903V14.5161ZM14.5161 43.5484V10.5544L15.2016 6.45161H18.6694L19.3548 10.5544V43.5484C18.4677 43.5484 17.7419 44.2742 17.7419 45.1613V48.3871H16.129V45.1613C16.129 44.2742 15.4032 43.5484 14.5161 43.5484ZM27.4194 43.5484V14.5161H29.0423L29.0323 43.5484H27.4194ZM29.0323 12.0968C29.0323 12.5403 28.6694 12.9032 28.2258 12.9032C27.7823 12.9032 27.4194 12.5403 27.4194 12.0968C27.4194 11.6532 27.7823 11.2903 28.2258 11.2903C28.6694 11.2903 29.0323 11.6532 29.0323 12.0968ZM25.8065 12.0968C25.8065 12.5403 25.4435 12.9032 25 12.9032C24.5565 12.9032 24.1935 12.5403 24.1935 12.0968C24.1935 11.6532 24.5565 11.2903 25 11.2903C25.4435 11.2903 25.8065 11.6532 25.8065 12.0968ZM22.5806 12.0968C22.5806 12.5403 22.2177 12.9032 21.7742 12.9032C21.3306 12.9032 20.9677 12.5403 20.9677 12.0968C20.9677 11.6532 21.3306 11.2903 21.7742 11.2903C22.2177 11.2903 22.5806 11.6532 22.5806 12.0968ZM20.9677 14.5161H22.5806V43.5484H20.9677V14.5161ZM24.1935 14.5161H25.8065V43.5484H24.1935V14.5161ZM29.1532 9.67742H20.8367L20.3024 6.45161H29.6875L29.1532 9.67742ZM19.3548 45.1613H30.6452V48.3871H19.3548V45.1613ZM41.9355 12.0968C41.9355 12.5403 41.5726 12.9032 41.129 12.9032C40.6855 12.9032 40.3226 12.5403 40.3226 12.0968C40.3226 11.6532 40.6855 11.2903 41.129 11.2903C41.5726 11.2903 41.9355 11.6532 41.9355 12.0968ZM38.7097 12.0968C38.7097 12.5403 38.3468 12.9032 37.9032 12.9032C37.4597 12.9032 37.0968 12.5403 37.0968 12.0968C37.0968 11.6532 37.4597 11.2903 37.9032 11.2903C38.3468 11.2903 38.7097 11.6532 38.7097 12.0968ZM37.0968 14.5161H38.7097V43.5484H37.0968V14.5161ZM43.5484 12.0968C43.5484 11.6532 43.9113 11.2903 44.3548 11.2903C44.7984 11.2903 45.1613 11.6532 45.1613 12.0968C45.1613 12.5403 44.7984 12.9032 44.3548 12.9032C43.9113 12.9032 43.5484 12.5403 43.5484 12.0968ZM45.2823 9.67742H36.9657L36.4314 6.45161H45.8165L45.2823 9.67742ZM1.6129 1.6129H48.3871V4.83871H1.6129V1.6129ZM13.5685 6.45161L13.0343 9.67742H4.70766L4.17339 6.45161H13.5685ZM4.83871 14.5161H6.45161V43.5484H4.83871V14.5161ZM3.22581 45.1613H14.5161V48.3871H3.22581V45.1613ZM35.4839 48.3871V45.1613H46.7742V48.3871H35.4839ZM43.5484 43.5484V14.5161H45.1714L45.1613 43.5484H43.5484Z" fill="#C0B49C"/>
</svg>
