<svg width="31" height="36" viewBox="0 0 31 36" fill="none" xmlns="http://www.w3.org/2000/svg">
<g clip-path="url(#clip0)">
<path d="M30.2078 22.2891C30.6969 21.7266 31 20.9883 31 20.1797C31 18.4359 29.6084 17.0156 27.9 17.0156H21.886C22.4784 15.1664 22.7333 12.7195 22.7333 11.6719V10.6172C22.7333 8.28984 20.8802 6.39844 18.6 6.39844H17.5667C17.0913 6.39844 16.678 6.72891 16.5678 7.2L16.0029 9.49922C15.2176 12.7195 12.71 16.2703 10.1198 16.9172C9.66511 15.7359 8.54222 14.9062 7.23333 14.9062H1.03333C0.461556 14.9062 0 15.3773 0 15.9609V34.9453C0 35.5289 0.461556 36 1.03333 36H7.23333C8.46644 36 9.53422 35.2617 10.0302 34.2L13.578 35.4094C14.7422 35.8031 15.9478 36.007 17.174 36.007H25.8333C27.5418 36.007 28.9333 34.5867 28.9333 32.843C28.9333 32.4281 28.8576 32.0344 28.7129 31.6758C30.0287 31.3102 31 30.0797 31 28.6242C31 27.8156 30.6969 27.0773 30.2078 26.5148C30.6969 25.9523 31 25.2141 31 24.4055C31 23.5969 30.6969 22.8516 30.2078 22.2891ZM8.26667 32.8359C8.26667 33.4195 7.80511 33.8906 7.23333 33.8906H2.06667V17.0156H7.23333C7.80511 17.0156 8.26667 17.4867 8.26667 18.0703V32.8359ZM25.8333 23.3438H27.9C28.4718 23.3438 28.9333 23.8148 28.9333 24.3984C28.9333 24.982 28.4718 25.4531 27.9 25.4531H25.8333C25.2616 25.4531 24.8 25.9242 24.8 26.5078C24.8 27.0914 25.2616 27.5625 25.8333 27.5625H27.9C28.4718 27.5625 28.9333 28.0336 28.9333 28.6172C28.9333 29.2008 28.4718 29.6719 27.9 29.6719H25.8333C25.2616 29.6719 24.8 30.143 24.8 30.7266C24.8 31.3102 25.2616 31.7812 25.8333 31.7812C26.4051 31.7812 26.8667 32.2523 26.8667 32.8359C26.8667 33.4195 26.4051 33.8906 25.8333 33.8906H17.174C16.1751 33.8906 15.1831 33.7289 14.2324 33.4055L10.3333 32.0766V19.0266C11.9522 18.7102 13.5436 17.6625 14.9764 15.9469C16.3749 14.2734 17.5116 12.0516 18.0076 10.0055L18.3727 8.50781H18.6C19.7367 8.50781 20.6667 9.45703 20.6667 10.6172V11.6719C20.6667 13.0852 20.2327 15.8062 19.6747 17.0156H17.5667C16.9949 17.0156 16.5333 17.4867 16.5333 18.0703C16.5333 18.6539 16.9949 19.125 17.5667 19.125H27.9C28.4718 19.125 28.9333 19.5961 28.9333 20.1797C28.9333 20.7633 28.4718 21.2344 27.9 21.2344H25.8333C25.2616 21.2344 24.8 21.7055 24.8 22.2891C24.8 22.8727 25.2616 23.3438 25.8333 23.3438Z" fill="#362A24"/>
<path d="M5.16712 31.7812C5.73782 31.7812 6.20046 31.3091 6.20046 30.7266C6.20046 30.1441 5.73782 29.6719 5.16712 29.6719C4.59643 29.6719 4.13379 30.1441 4.13379 30.7266C4.13379 31.3091 4.59643 31.7812 5.16712 31.7812Z" fill="#362A24"/>
<path d="M19.6329 0C19.0612 0 18.5996 0.471094 18.5996 1.05469V3.23438C18.5996 3.81797 19.0612 4.28906 19.6329 4.28906C20.2047 4.28906 20.6663 3.81797 20.6663 3.23438V1.05469C20.6663 0.471094 20.2047 0 19.6329 0Z" fill="#362A24"/>
<path d="M15.2524 4.64746L13.792 3.15684C13.3856 2.74199 12.7311 2.74199 12.3316 3.15684C11.932 3.57168 11.9251 4.23965 12.3316 4.64746L13.792 6.13809C14.1984 6.55293 14.8529 6.55293 15.2524 6.13809C15.652 5.73027 15.652 5.0623 15.2524 4.64746Z" fill="#362A24"/>
<path d="M26.9425 3.15684C26.5361 2.74199 25.8816 2.74199 25.4821 3.15684L24.0216 4.64746C23.6152 5.0623 23.6152 5.73027 24.0216 6.13809C24.4281 6.55293 25.0825 6.55293 25.4821 6.13809L26.9425 4.64746C27.3421 4.23965 27.3421 3.57168 26.9425 3.15684Z" fill="#362A24"/>
</g>
<defs>
<clipPath id="clip0">
<rect width="31" height="36" fill="white"/>
</clipPath>
</defs>
</svg>
