<svg width="211" height="108" viewBox="0 0 211 108" fill="none" xmlns="http://www.w3.org/2000/svg">
<mask id="path-1-inside-1" fill="white">
<path fill-rule="evenodd" clip-rule="evenodd" d="M211 11H161V35H111V59H61V83H11V108H211V83V11Z"/>
</mask>
<path fill-rule="evenodd" clip-rule="evenodd" d="M211 11H161V35H111V59H61V83H11V108H211V83V11Z" fill="#EDEAE3"/>
<path d="M161 11V9H159V11H161ZM211 11H213V9H211V11ZM161 35V37H163V35H161ZM111 35V33H109V35H111ZM111 59V61H113V59H111ZM61 59V57H59V59H61ZM61 83V85H63V83H61ZM11 83V81H9V83H11ZM11 108H9V110H11V108ZM211 108V110H213V108H211ZM161 13H211V9H161V13ZM163 35V11H159V35H163ZM161 33H111V37H161V33ZM109 35V59H113V35H109ZM111 57H61V61H111V57ZM59 59V83H63V59H59ZM61 81H11V85H61V81ZM9 83V108H13V83H9ZM11 110H211V106H11V110ZM213 108V83H209V108H213ZM209 11V83H213V11H209Z" fill="#BCB299" mask="url(#path-1-inside-1)"/>
<mask id="mask0" mask-type="alpha" maskUnits="userSpaceOnUse" x="11" y="11" width="200" height="97">
<mask id="path-3-inside-2" mask-type="luminance" fill="white">
<path fill-rule="evenodd" clip-rule="evenodd" d="M211 11H161V35H111V59H61V83H11V108H211V83V11Z"/>
</mask>
<path fill-rule="evenodd" clip-rule="evenodd" d="M211 11H161V35H111V59H61V83H11V108H211V83V11Z" fill="#EDEAE3"/>
<path d="M161 11V10H160V11H161ZM211 11H212V10H211V11ZM161 35V36H162V35H161ZM111 35V34H110V35H111ZM111 59V60H112V59H111ZM61 59V58H60V59H61ZM61 83V84H62V83H61ZM11 83V82H10V83H11ZM11 108H10V109H11V108ZM211 108V109H212V108H211ZM161 12H211V10H161V12ZM162 35V11H160V35H162ZM161 34H111V36H161V34ZM110 35V59H112V35H110ZM111 58H61V60H111V58ZM60 59V83H62V59H60ZM61 82H11V84H61V82ZM10 83V108H12V83H10ZM11 109H211V107H11V109ZM212 108V83H210V108H212ZM210 11V83H212V11H210Z" fill="#BCB299" mask="url(#path-3-inside-2)"/>
</mask>
<g mask="url(#mask0)">
<mask id="mask1" mask-type="alpha" maskUnits="userSpaceOnUse" x="11" y="11" width="100" height="100">
<rect x="11" y="11" width="100" height="100" fill="#C4C4C4"/>
</mask>
<g mask="url(#mask1)">
<line x1="-7.11896" y1="118.735" x2="102.483" y2="9.13349" stroke="#BCB299" stroke-width="0.4"/>
<line x1="-95.265" y1="118.735" x2="14.3366" y2="9.13349" stroke="#BCB299" stroke-width="0.4"/>
<line x1="-1.2425" y1="118.735" x2="108.359" y2="9.13349" stroke="#BCB299" stroke-width="0.4"/>
<line x1="-89.3885" y1="118.735" x2="20.2131" y2="9.13349" stroke="#BCB299" stroke-width="0.4"/>
<line x1="4.63397" y1="118.735" x2="114.236" y2="9.13349" stroke="#BCB299" stroke-width="0.4"/>
<line x1="-83.5123" y1="118.735" x2="26.0893" y2="9.13349" stroke="#BCB299" stroke-width="0.4"/>
<line x1="10.5102" y1="118.735" x2="120.112" y2="9.13349" stroke="#BCB299" stroke-width="0.4"/>
<line x1="-77.6358" y1="118.735" x2="31.9657" y2="9.13349" stroke="#BCB299" stroke-width="0.4"/>
<line x1="16.3867" y1="118.735" x2="125.988" y2="9.13349" stroke="#BCB299" stroke-width="0.4"/>
<line x1="-71.7593" y1="118.735" x2="37.8422" y2="9.13349" stroke="#BCB299" stroke-width="0.4"/>
<line x1="22.2631" y1="118.735" x2="131.865" y2="9.13349" stroke="#BCB299" stroke-width="0.4"/>
<line x1="-65.8831" y1="118.735" x2="43.7184" y2="9.13349" stroke="#BCB299" stroke-width="0.4"/>
<line x1="28.1393" y1="118.735" x2="137.741" y2="9.13349" stroke="#BCB299" stroke-width="0.4"/>
<line x1="-60.0067" y1="118.735" x2="49.5949" y2="9.13349" stroke="#BCB299" stroke-width="0.4"/>
<line x1="34.0158" y1="118.735" x2="143.617" y2="9.13349" stroke="#BCB299" stroke-width="0.4"/>
<line x1="-54.1302" y1="118.735" x2="55.4714" y2="9.13349" stroke="#BCB299" stroke-width="0.4"/>
<line x1="39.8923" y1="118.735" x2="149.494" y2="9.13349" stroke="#BCB299" stroke-width="0.4"/>
<line x1="-48.2537" y1="118.735" x2="61.3478" y2="9.13349" stroke="#BCB299" stroke-width="0.4"/>
<line x1="45.7687" y1="118.735" x2="155.37" y2="9.13349" stroke="#BCB299" stroke-width="0.4"/>
<line x1="-42.3773" y1="118.735" x2="67.2243" y2="9.13349" stroke="#BCB299" stroke-width="0.4"/>
<line x1="51.6452" y1="118.735" x2="161.247" y2="9.13349" stroke="#BCB299" stroke-width="0.4"/>
<line x1="-36.501" y1="118.735" x2="73.1005" y2="9.13349" stroke="#BCB299" stroke-width="0.4"/>
<line x1="57.5214" y1="118.735" x2="167.123" y2="9.13349" stroke="#BCB299" stroke-width="0.4"/>
<line x1="-30.6246" y1="118.735" x2="78.977" y2="9.13349" stroke="#BCB299" stroke-width="0.4"/>
<line x1="63.3979" y1="118.735" x2="172.999" y2="9.13349" stroke="#BCB299" stroke-width="0.4"/>
<line x1="-24.7481" y1="118.735" x2="84.8534" y2="9.13349" stroke="#BCB299" stroke-width="0.4"/>
<line x1="69.2744" y1="118.735" x2="178.876" y2="9.13349" stroke="#BCB299" stroke-width="0.4"/>
<line x1="-18.8719" y1="118.735" x2="90.7297" y2="9.13349" stroke="#BCB299" stroke-width="0.4"/>
<line x1="75.1506" y1="118.735" x2="184.752" y2="9.13349" stroke="#BCB299" stroke-width="0.4"/>
<line x1="-12.9954" y1="118.735" x2="96.6061" y2="9.13349" stroke="#BCB299" stroke-width="0.4"/>
<line x1="81.027" y1="118.735" x2="190.629" y2="9.13349" stroke="#BCB299" stroke-width="0.4"/>
<line x1="86.9035" y1="118.735" x2="196.505" y2="9.13349" stroke="#BCB299" stroke-width="0.4"/>
<line x1="92.78" y1="118.735" x2="202.382" y2="9.13349" stroke="#BCB299" stroke-width="0.4"/>
<line x1="98.6564" y1="118.735" x2="208.258" y2="9.13349" stroke="#BCB299" stroke-width="0.4"/>
<line x1="104.533" y1="118.735" x2="214.134" y2="9.13349" stroke="#BCB299" stroke-width="0.4"/>
<line x1="110.409" y1="118.735" x2="220.011" y2="9.13349" stroke="#BCB299" stroke-width="0.4"/>
</g>
<mask id="mask2" mask-type="alpha" maskUnits="userSpaceOnUse" x="111" y="11" width="100" height="100">
<rect x="111" y="11" width="100" height="100" fill="#C4C4C4"/>
</mask>
<g mask="url(#mask2)">
<line x1="92.881" y1="118.735" x2="202.483" y2="9.13349" stroke="#BCB299" stroke-width="0.4"/>
<line x1="4.73504" y1="118.735" x2="114.337" y2="9.13349" stroke="#BCB299" stroke-width="0.4"/>
<line x1="98.7575" y1="118.735" x2="208.359" y2="9.13349" stroke="#BCB299" stroke-width="0.4"/>
<line x1="10.6115" y1="118.735" x2="120.213" y2="9.13349" stroke="#BCB299" stroke-width="0.4"/>
<line x1="104.634" y1="118.735" x2="214.236" y2="9.13349" stroke="#BCB299" stroke-width="0.4"/>
<line x1="16.4877" y1="118.735" x2="126.089" y2="9.13349" stroke="#BCB299" stroke-width="0.4"/>
<line x1="110.51" y1="118.735" x2="220.112" y2="9.13349" stroke="#BCB299" stroke-width="0.4"/>
<line x1="22.3642" y1="118.735" x2="131.966" y2="9.13349" stroke="#BCB299" stroke-width="0.4"/>
<line x1="116.387" y1="118.735" x2="225.988" y2="9.13349" stroke="#BCB299" stroke-width="0.4"/>
<line x1="28.2407" y1="118.735" x2="137.842" y2="9.13349" stroke="#BCB299" stroke-width="0.4"/>
<line x1="122.263" y1="118.735" x2="231.865" y2="9.13349" stroke="#BCB299" stroke-width="0.4"/>
<line x1="34.1169" y1="118.735" x2="143.718" y2="9.13349" stroke="#BCB299" stroke-width="0.4"/>
<line x1="128.139" y1="118.735" x2="237.741" y2="9.13349" stroke="#BCB299" stroke-width="0.4"/>
<line x1="39.9933" y1="118.735" x2="149.595" y2="9.13349" stroke="#BCB299" stroke-width="0.4"/>
<line x1="134.016" y1="118.735" x2="243.617" y2="9.13349" stroke="#BCB299" stroke-width="0.4"/>
<line x1="45.8698" y1="118.735" x2="155.471" y2="9.13349" stroke="#BCB299" stroke-width="0.4"/>
<line x1="139.892" y1="118.735" x2="249.494" y2="9.13349" stroke="#BCB299" stroke-width="0.4"/>
<line x1="51.7463" y1="118.735" x2="161.348" y2="9.13349" stroke="#BCB299" stroke-width="0.4"/>
<line x1="145.769" y1="118.735" x2="255.37" y2="9.13349" stroke="#BCB299" stroke-width="0.4"/>
<line x1="57.6227" y1="118.735" x2="167.224" y2="9.13349" stroke="#BCB299" stroke-width="0.4"/>
<line x1="151.645" y1="118.735" x2="261.247" y2="9.13349" stroke="#BCB299" stroke-width="0.4"/>
<line x1="63.499" y1="118.735" x2="173.101" y2="9.13349" stroke="#BCB299" stroke-width="0.4"/>
<line x1="157.521" y1="118.735" x2="267.123" y2="9.13349" stroke="#BCB299" stroke-width="0.4"/>
<line x1="69.3754" y1="118.735" x2="178.977" y2="9.13349" stroke="#BCB299" stroke-width="0.4"/>
<line x1="163.398" y1="118.735" x2="272.999" y2="9.13349" stroke="#BCB299" stroke-width="0.4"/>
<line x1="75.2519" y1="118.735" x2="184.853" y2="9.13349" stroke="#BCB299" stroke-width="0.4"/>
<line x1="169.274" y1="118.735" x2="278.876" y2="9.13349" stroke="#BCB299" stroke-width="0.4"/>
<line x1="81.1281" y1="118.735" x2="190.73" y2="9.13349" stroke="#BCB299" stroke-width="0.4"/>
<line x1="175.151" y1="118.735" x2="284.752" y2="9.13349" stroke="#BCB299" stroke-width="0.4"/>
<line x1="87.0046" y1="118.735" x2="196.606" y2="9.13349" stroke="#BCB299" stroke-width="0.4"/>
<line x1="181.027" y1="118.735" x2="290.629" y2="9.13349" stroke="#BCB299" stroke-width="0.4"/>
<line x1="186.904" y1="118.735" x2="296.505" y2="9.13349" stroke="#BCB299" stroke-width="0.4"/>
<line x1="192.78" y1="118.735" x2="302.382" y2="9.13349" stroke="#BCB299" stroke-width="0.4"/>
<line x1="198.656" y1="118.735" x2="308.258" y2="9.13349" stroke="#BCB299" stroke-width="0.4"/>
<line x1="204.533" y1="118.735" x2="314.134" y2="9.13349" stroke="#BCB299" stroke-width="0.4"/>
<line x1="210.409" y1="118.735" x2="320.011" y2="9.13349" stroke="#BCB299" stroke-width="0.4"/>
</g>
</g>
<rect x="0.5" y="83.5" width="11" height="24" fill="#EDEAE3" stroke="#BCB299"/>
<rect x="0.5" y="72.5" width="50" height="11" fill="#EDEAE3" stroke="#BCB299"/>
<rect x="50.5" y="48.5" width="50" height="11" fill="#EDEAE3" stroke="#BCB299"/>
<rect x="100.5" y="24.5" width="50" height="11" fill="#EDEAE3" stroke="#BCB299"/>
<rect x="150.5" y="0.5" width="60" height="11" fill="#EDEAE3" stroke="#BCB299"/>
<rect x="50.5" y="59.5" width="11" height="24" fill="#EDEAE3" stroke="#BCB299"/>
<rect x="100.5" y="35.5" width="11" height="24" fill="#EDEAE3" stroke="#BCB299"/>
<rect x="150.5" y="11.5" width="11" height="24" fill="#EDEAE3" stroke="#BCB299"/>
</svg>
