<svg width="193" height="107" viewBox="0 0 193 107" fill="none" xmlns="http://www.w3.org/2000/svg">
<path d="M5.49731 2.49512H190.396V100.997L5.49731 21.6178V2.49512Z" fill="#EDEAE3" stroke="#BCB299"/>
<mask id="mask0" mask-type="alpha" maskUnits="userSpaceOnUse" x="6" y="1" width="185" height="101">
<path d="M7.99609 2.99512H189.896V100.232L7.99609 21.2911V2.99512Z" fill="#EDEAE3" stroke="#BCB299" stroke-width="2"/>
</mask>
<g mask="url(#mask0)">
<mask id="mask1" mask-type="alpha" maskUnits="userSpaceOnUse" x="2" y="2" width="100" height="100">
<rect x="2" y="2" width="100" height="100" fill="#C4C4C4"/>
</mask>
<g mask="url(#mask1)">
<line x1="-16.119" y1="109.735" x2="93.4826" y2="0.133494" stroke="#BCB299" stroke-width="0.4"/>
<line x1="-10.2425" y1="109.735" x2="99.3591" y2="0.133494" stroke="#BCB299" stroke-width="0.4"/>
<line x1="-98.3885" y1="109.735" x2="11.2131" y2="0.133494" stroke="#BCB299" stroke-width="0.4"/>
<line x1="-4.36603" y1="109.735" x2="105.236" y2="0.133494" stroke="#BCB299" stroke-width="0.4"/>
<line x1="-92.5123" y1="109.735" x2="17.0893" y2="0.133494" stroke="#BCB299" stroke-width="0.4"/>
<line x1="1.51019" y1="109.735" x2="111.112" y2="0.133494" stroke="#BCB299" stroke-width="0.4"/>
<line x1="-86.6358" y1="109.735" x2="22.9657" y2="0.133494" stroke="#BCB299" stroke-width="0.4"/>
<line x1="7.38665" y1="109.735" x2="116.988" y2="0.133494" stroke="#BCB299" stroke-width="0.4"/>
<line x1="-80.7593" y1="109.735" x2="28.8422" y2="0.133494" stroke="#BCB299" stroke-width="0.4"/>
<line x1="13.2631" y1="109.735" x2="122.865" y2="0.133494" stroke="#BCB299" stroke-width="0.4"/>
<line x1="-74.8831" y1="109.735" x2="34.7184" y2="0.133494" stroke="#BCB299" stroke-width="0.4"/>
<line x1="19.1393" y1="109.735" x2="128.741" y2="0.133494" stroke="#BCB299" stroke-width="0.4"/>
<line x1="-69.0067" y1="109.735" x2="40.5949" y2="0.133494" stroke="#BCB299" stroke-width="0.4"/>
<line x1="25.0158" y1="109.735" x2="134.617" y2="0.133494" stroke="#BCB299" stroke-width="0.4"/>
<line x1="-63.1302" y1="109.735" x2="46.4714" y2="0.133494" stroke="#BCB299" stroke-width="0.4"/>
<line x1="30.8923" y1="109.735" x2="140.494" y2="0.133494" stroke="#BCB299" stroke-width="0.4"/>
<line x1="-57.2537" y1="109.735" x2="52.3478" y2="0.133494" stroke="#BCB299" stroke-width="0.4"/>
<line x1="36.7687" y1="109.735" x2="146.37" y2="0.133494" stroke="#BCB299" stroke-width="0.4"/>
<line x1="-51.3773" y1="109.735" x2="58.2243" y2="0.133494" stroke="#BCB299" stroke-width="0.4"/>
<line x1="42.6452" y1="109.735" x2="152.247" y2="0.133494" stroke="#BCB299" stroke-width="0.4"/>
<line x1="-45.501" y1="109.735" x2="64.1005" y2="0.133494" stroke="#BCB299" stroke-width="0.4"/>
<line x1="48.5214" y1="109.735" x2="158.123" y2="0.133494" stroke="#BCB299" stroke-width="0.4"/>
<line x1="-39.6246" y1="109.735" x2="69.977" y2="0.133494" stroke="#BCB299" stroke-width="0.4"/>
<line x1="54.3979" y1="109.735" x2="163.999" y2="0.133494" stroke="#BCB299" stroke-width="0.4"/>
<line x1="-33.7481" y1="109.735" x2="75.8534" y2="0.133494" stroke="#BCB299" stroke-width="0.4"/>
<line x1="60.2744" y1="109.735" x2="169.876" y2="0.133494" stroke="#BCB299" stroke-width="0.4"/>
<line x1="-27.8719" y1="109.735" x2="81.7297" y2="0.133494" stroke="#BCB299" stroke-width="0.4"/>
<line x1="66.1506" y1="109.735" x2="175.752" y2="0.133494" stroke="#BCB299" stroke-width="0.4"/>
<line x1="-21.9954" y1="109.735" x2="87.6061" y2="0.133494" stroke="#BCB299" stroke-width="0.4"/>
<line x1="72.027" y1="109.735" x2="181.629" y2="0.133494" stroke="#BCB299" stroke-width="0.4"/>
<line x1="77.9035" y1="109.735" x2="187.505" y2="0.133494" stroke="#BCB299" stroke-width="0.4"/>
<line x1="83.78" y1="109.735" x2="193.382" y2="0.133494" stroke="#BCB299" stroke-width="0.4"/>
<line x1="89.6564" y1="109.735" x2="199.258" y2="0.133494" stroke="#BCB299" stroke-width="0.4"/>
<line x1="95.5327" y1="109.735" x2="205.134" y2="0.133494" stroke="#BCB299" stroke-width="0.4"/>
<line x1="101.409" y1="109.735" x2="211.011" y2="0.133494" stroke="#BCB299" stroke-width="0.4"/>
</g>
<mask id="mask2" mask-type="alpha" maskUnits="userSpaceOnUse" x="102" y="2" width="100" height="100">
<rect x="102" y="2" width="100" height="100" fill="#C4C4C4"/>
</mask>
<g mask="url(#mask2)">
<line x1="83.881" y1="109.735" x2="193.483" y2="0.133494" stroke="#BCB299" stroke-width="0.4"/>
<line x1="-4.26496" y1="109.735" x2="105.337" y2="0.133494" stroke="#BCB299" stroke-width="0.4"/>
<line x1="89.7575" y1="109.735" x2="199.359" y2="0.133494" stroke="#BCB299" stroke-width="0.4"/>
<line x1="1.61151" y1="109.735" x2="111.213" y2="0.133494" stroke="#BCB299" stroke-width="0.4"/>
<line x1="95.634" y1="109.735" x2="205.236" y2="0.133494" stroke="#BCB299" stroke-width="0.4"/>
<line x1="7.48773" y1="109.735" x2="117.089" y2="0.133494" stroke="#BCB299" stroke-width="0.4"/>
<line x1="101.51" y1="109.735" x2="211.112" y2="0.133494" stroke="#BCB299" stroke-width="0.4"/>
<line x1="13.3642" y1="109.735" x2="122.966" y2="0.133494" stroke="#BCB299" stroke-width="0.4"/>
<line x1="107.387" y1="109.735" x2="216.988" y2="0.133494" stroke="#BCB299" stroke-width="0.4"/>
<line x1="19.2407" y1="109.735" x2="128.842" y2="0.133494" stroke="#BCB299" stroke-width="0.4"/>
<line x1="113.263" y1="109.735" x2="222.865" y2="0.133494" stroke="#BCB299" stroke-width="0.4"/>
<line x1="25.1169" y1="109.735" x2="134.718" y2="0.133494" stroke="#BCB299" stroke-width="0.4"/>
<line x1="119.139" y1="109.735" x2="228.741" y2="0.133494" stroke="#BCB299" stroke-width="0.4"/>
<line x1="30.9933" y1="109.735" x2="140.595" y2="0.133494" stroke="#BCB299" stroke-width="0.4"/>
<line x1="125.016" y1="109.735" x2="234.617" y2="0.133494" stroke="#BCB299" stroke-width="0.4"/>
<line x1="36.8698" y1="109.735" x2="146.471" y2="0.133494" stroke="#BCB299" stroke-width="0.4"/>
<line x1="130.892" y1="109.735" x2="240.494" y2="0.133494" stroke="#BCB299" stroke-width="0.4"/>
<line x1="42.7463" y1="109.735" x2="152.348" y2="0.133494" stroke="#BCB299" stroke-width="0.4"/>
<line x1="136.769" y1="109.735" x2="246.37" y2="0.133494" stroke="#BCB299" stroke-width="0.4"/>
<line x1="48.6227" y1="109.735" x2="158.224" y2="0.133494" stroke="#BCB299" stroke-width="0.4"/>
<line x1="142.645" y1="109.735" x2="252.247" y2="0.133494" stroke="#BCB299" stroke-width="0.4"/>
<line x1="54.499" y1="109.735" x2="164.101" y2="0.133494" stroke="#BCB299" stroke-width="0.4"/>
<line x1="148.521" y1="109.735" x2="258.123" y2="0.133494" stroke="#BCB299" stroke-width="0.4"/>
<line x1="60.3754" y1="109.735" x2="169.977" y2="0.133494" stroke="#BCB299" stroke-width="0.4"/>
<line x1="154.398" y1="109.735" x2="263.999" y2="0.133494" stroke="#BCB299" stroke-width="0.4"/>
<line x1="66.2519" y1="109.735" x2="175.853" y2="0.133494" stroke="#BCB299" stroke-width="0.4"/>
<line x1="160.274" y1="109.735" x2="269.876" y2="0.133494" stroke="#BCB299" stroke-width="0.4"/>
<line x1="72.1281" y1="109.735" x2="181.73" y2="0.133494" stroke="#BCB299" stroke-width="0.4"/>
<line x1="166.151" y1="109.735" x2="275.752" y2="0.133494" stroke="#BCB299" stroke-width="0.4"/>
<line x1="78.0046" y1="109.735" x2="187.606" y2="0.133494" stroke="#BCB299" stroke-width="0.4"/>
<line x1="172.027" y1="109.735" x2="281.629" y2="0.133494" stroke="#BCB299" stroke-width="0.4"/>
<line x1="177.904" y1="109.735" x2="287.505" y2="0.133494" stroke="#BCB299" stroke-width="0.4"/>
<line x1="183.78" y1="109.735" x2="293.382" y2="0.133494" stroke="#BCB299" stroke-width="0.4"/>
<line x1="189.656" y1="109.735" x2="299.258" y2="0.133494" stroke="#BCB299" stroke-width="0.4"/>
</g>
</g>
<path fill-rule="evenodd" clip-rule="evenodd" d="M7.99566 3.99783C7.99566 1.78989 6.20577 0 3.99783 0C1.78989 0 0 1.78989 0 3.99783V26.7458C0 26.8505 0.0848908 26.9354 0.189609 26.9354H0.462462C0.468709 26.9354 0.472933 26.9418 0.470501 26.9475C0.468622 26.952 0.470707 26.9571 0.475154 26.959L187.379 105.684C189.438 106.552 191.81 105.587 192.68 103.53C193.551 101.468 192.585 99.0906 190.522 98.2217L14.1139 23.917C10.4064 22.3554 7.99566 18.7241 7.99566 14.7012V3.99783Z" fill="#BCB299"/>
</svg>
