<svg width="60" height="60" viewBox="0 0 60 60" fill="none" xmlns="http://www.w3.org/2000/svg">
<path d="M3.95669 60H56.0433C56.3976 60 56.6929 59.7047 56.6929 59.3504V54.815H57.5551C58.9016 54.815 60 53.7165 60 52.3701C60 51.0236 58.9016 49.9252 57.5551 49.9252H49.8071V22.9488L49.9961 22.9016C55.252 21.7205 59.0551 16.9724 59.0551 11.5866C59.0551 5.19685 53.8583 0 47.4567 0C41.0551 0 35.8583 5.19685 35.8583 11.5866C35.8583 16.9606 39.6732 21.7205 44.9173 22.9016L45.1063 22.9488V49.937H37.1575V28.878C37.1575 28.5236 36.8622 28.2283 36.5079 28.2283H11.5866C11.2323 28.2283 10.937 28.5236 10.937 28.878V49.9252H2.44488C1.09843 49.9252 0 51.0236 0 52.3701C0 53.7165 1.09843 54.815 2.44488 54.815H3.30709V59.3504C3.30709 59.7047 3.60236 60 3.95669 60ZM37.1575 11.5866C37.1575 5.91732 41.7756 1.29921 47.4567 1.29921C53.1378 1.29921 57.7559 5.91732 57.7559 11.5866C57.7559 17.2559 53.1378 21.874 47.4567 21.874C41.7756 21.8858 37.1575 17.2677 37.1575 11.5866ZM48.5079 23.1378V49.9252H46.4055V23.1378L46.6535 23.1496C47.1968 23.185 47.7047 23.185 48.248 23.1496L48.5079 23.1378ZM21.1181 29.5276H26.9646V36.0591L24.2717 35.0787C24.1299 35.0315 23.9646 35.0315 23.8228 35.0787L21.1299 36.0591V29.5276H21.1181ZM12.2362 29.5276H19.8189V36.9803C19.8189 37.1929 19.9252 37.3937 20.1024 37.5118C20.2795 37.6299 20.5039 37.6654 20.6929 37.5945L24.0472 36.378L27.4016 37.5945C27.6024 37.6654 27.8268 37.6417 28.0039 37.5118C28.1811 37.3937 28.2874 37.1929 28.2874 36.9803V29.5276H35.8701V49.9252H19.8071H12.248V29.5276H12.2362ZM2.44488 53.5158C1.8189 53.5158 1.29921 53.0079 1.29921 52.3701C1.29921 51.7323 1.80709 51.2244 2.44488 51.2244H57.5551C58.1811 51.2244 58.7008 51.7323 58.7008 52.3701C58.7008 53.0079 58.1929 53.5158 57.5551 53.5158H45.7559C45.4016 53.5158 45.1063 53.811 45.1063 54.1654C45.1063 54.5197 45.4016 54.815 45.7559 54.815H55.3937V58.7008H4.6063V54.815H42.2008C42.5551 54.815 42.8504 54.5197 42.8504 54.1654C42.8504 53.811 42.5551 53.5158 42.2008 53.5158H2.44488Z" fill="#362A24"/>
<path d="M52.122 4.61813C50.7402 3.69687 49.122 3.20081 47.4567 3.20081C42.8268 3.20081 39.0591 6.96852 39.0591 11.5866C39.0591 16.2166 42.8268 19.9725 47.4567 19.9725C52.0866 19.9725 55.8543 16.2047 55.8543 11.5866C55.8543 10.1221 55.4764 8.68112 54.7441 7.42915C54.5669 7.12207 54.1654 7.00396 53.8583 7.19293C53.7047 7.27561 53.5984 7.41734 53.5512 7.5827C53.5039 7.74805 53.5276 7.92522 53.6102 8.07876C54.2244 9.14175 54.5433 10.3583 54.5433 11.5984C54.5433 15.5079 51.3661 18.6851 47.4449 18.6851C43.5354 18.6851 40.3465 15.5079 40.3465 11.5984C40.3465 7.68899 43.5236 4.51183 47.4449 4.51183C48.8504 4.51183 50.2205 4.92522 51.3898 5.70474C51.685 5.90553 52.0984 5.82285 52.2992 5.52758C52.3937 5.38584 52.4291 5.20868 52.3937 5.04333C52.3583 4.86616 52.2638 4.71262 52.122 4.61813Z" fill="#362A24"/>
<path d="M46.7362 13.5236C46.9724 13.6062 47.2205 13.6535 47.4685 13.6535C48.6614 13.6535 49.6417 12.685 49.6417 11.4921C49.6417 10.6062 49.0984 9.8149 48.2716 9.48419L48.1181 9.42513V6.72041C48.1181 6.36608 47.8228 6.0708 47.4685 6.0708C47.1142 6.0708 46.8189 6.36608 46.8189 6.72041V9.42513L46.6653 9.48419C45.8386 9.8149 45.2953 10.6062 45.2953 11.4921C45.2953 11.8346 45.3779 12.1653 45.5315 12.4724L45.6024 12.6141L44.563 13.7834C44.4449 13.9133 44.3858 14.0787 44.3976 14.2558C44.4094 14.433 44.4803 14.5865 44.6102 14.7047C44.7283 14.811 44.8819 14.87 45.0472 14.87C45.2362 14.87 45.4134 14.7873 45.5315 14.6574L46.5827 13.4763L46.7362 13.5236ZM47.4685 10.618C47.9409 10.618 48.3307 11.0078 48.3307 11.4802C48.3307 11.9527 47.9409 12.3425 47.4685 12.3425C46.9961 12.3425 46.6063 11.9527 46.6063 11.4802C46.5945 11.0078 46.9842 10.618 47.4685 10.618Z" fill="#362A24"/>
</svg>
