<svg width="45" height="60" viewBox="0 0 45 60" fill="none" xmlns="http://www.w3.org/2000/svg">
<g clip-path="url(#clip0)">
<path d="M44.1272 15.6097C44.6043 15.6097 45 15.2113 45 14.7308V10.8168C45 9.0238 43.557 7.57068 41.7766 7.57068H41.2413V7.03162C41.2413 5.23865 39.7983 3.78552 38.0178 3.78552H36.6563V2.76599C36.6563 1.24255 35.4228 -0.0113525 33.8984 -0.0113525C32.3856 -0.0113525 31.1404 1.23083 31.1404 2.76599V3.78552H3.21179C1.44298 3.78552 0 5.25037 0 7.03162V14.1449V52.9691C0 54.7621 1.44298 56.2152 3.22343 56.2152H3.75873V56.7543C3.75873 58.5472 5.20171 60.0004 6.98216 60.0004H41.7766C43.557 60.0004 45 58.5472 45 56.7543V18.8441C45 18.3636 44.6043 17.9652 44.1272 17.9652C43.6501 17.9652 43.2545 18.3636 43.2545 18.8441V56.7543C43.2545 57.5746 42.5912 58.2425 41.7766 58.2425H6.98216C6.16757 58.2425 5.50427 57.5746 5.50427 56.7543V56.2152H38.0178C39.7983 56.2152 41.2413 54.7621 41.2413 52.9691V45.1879V9.32849H41.7766C42.5912 9.32849 43.2545 9.99646 43.2545 10.8168V14.7308C43.2545 15.223 43.6501 15.6097 44.1272 15.6097ZM32.8976 2.77771C32.8976 2.21521 33.3514 1.75818 33.91 1.75818C34.4686 1.75818 34.9224 2.21521 34.9224 2.77771V3.79724H32.9092V2.77771H32.8976ZM39.4957 52.9691C39.4957 53.7894 38.8324 54.4574 38.0178 54.4574H3.22343C2.40884 54.4574 1.74554 53.7894 1.74554 52.9691V14.7426V7.03162C1.74554 6.2113 2.40884 5.54333 3.22343 5.54333H31.1521V8.44958C31.1521 9.97302 32.3856 11.2269 33.91 11.2269C35.4228 11.2269 36.668 9.98474 36.668 8.44958C36.668 7.96912 36.2723 7.57068 35.7952 7.57068C35.3181 7.57068 34.9108 7.96912 34.9108 8.44958C34.9108 9.01208 34.4569 9.46912 33.8984 9.46912C33.3398 9.46912 32.886 9.01208 32.886 8.44958V5.54333H38.0062C38.8208 5.54333 39.4841 6.2113 39.4841 7.03162V44.6019V52.9691H39.4957Z" fill="#362A24"/>
<path d="M10.3452 24.7969V28.582C10.3452 29.0625 10.7409 29.4609 11.218 29.4609H30.0233C30.5004 29.4609 30.896 29.0625 30.896 28.582V24.7969C30.896 24.3164 30.5004 23.918 30.0233 23.918H11.218C10.7409 23.918 10.3452 24.3047 10.3452 24.7969ZM12.0908 25.6758H29.1505V27.7031H12.0908V25.6758Z" fill="#362A24"/>
<path d="M4.6315 13.125H18.7355C19.2126 13.125 19.6082 12.7266 19.6082 12.2461V8.46094C19.6082 7.98047 19.2126 7.58203 18.7355 7.58203H4.6315C4.15438 7.58203 3.75873 7.98047 3.75873 8.46094V12.2461C3.75873 12.7266 4.15438 13.125 4.6315 13.125ZM5.50427 9.32813H17.8627V11.3672H5.50427V9.32813Z" fill="#362A24"/>
<path d="M4.6315 20.6953H18.7355C19.2126 20.6953 19.6082 20.2969 19.6082 19.8164C19.6082 19.3359 19.2126 18.9375 18.7355 18.9375H4.6315C4.15438 18.9375 3.75873 19.3359 3.75873 19.8164C3.75873 20.2969 4.15438 20.6953 4.6315 20.6953Z" fill="#362A24"/>
<path d="M4.6315 16.9102H15.2095C15.6866 16.9102 16.0822 16.5117 16.0822 16.0313C16.0822 15.5508 15.6866 15.1523 15.2095 15.1523H4.6315C4.15438 15.1523 3.75873 15.5508 3.75873 16.0313C3.75873 16.5117 4.15438 16.9102 4.6315 16.9102Z" fill="#362A24"/>
<path d="M7.99457 32.3672C7.99457 32.8477 8.39022 33.2461 8.86734 33.2461H32.3739C32.8511 33.2461 33.2467 32.8477 33.2467 32.3672C33.2467 31.8867 32.8511 31.4883 32.3739 31.4883H8.86734C8.37859 31.4883 7.99457 31.8867 7.99457 32.3672Z" fill="#362A24"/>
<path d="M36.6098 36.0703H4.6315C4.15438 36.0703 3.75873 36.4688 3.75873 36.9492C3.75873 37.4297 4.15438 37.8281 4.6315 37.8281H36.6098C37.0869 37.8281 37.4826 37.4297 37.4826 36.9492C37.4826 36.4688 37.0869 36.0703 36.6098 36.0703Z" fill="#362A24"/>
<path d="M36.6098 40.6406H4.6315C4.15438 40.6406 3.75873 41.0391 3.75873 41.5195C3.75873 42 4.15438 42.3984 4.6315 42.3984H36.6098C37.0869 42.3984 37.4826 42 37.4826 41.5195C37.4826 41.0391 37.0869 40.6406 36.6098 40.6406Z" fill="#362A24"/>
<path d="M21.0861 45.2227H4.6315C4.15438 45.2227 3.75873 45.6211 3.75873 46.1016C3.75873 46.582 4.15438 46.9805 4.6315 46.9805H21.0861C21.5632 46.9805 21.9589 46.582 21.9589 46.1016C21.9589 45.6211 21.5749 45.2227 21.0861 45.2227Z" fill="#362A24"/>
</g>
<defs>
<clipPath id="clip0">
<rect width="45" height="60" fill="white"/>
</clipPath>
</defs>
</svg>
