<svg width="18" height="9" viewBox="0 0 18 9" fill="none" xmlns="http://www.w3.org/2000/svg">
<g clip-path="url(#clip0)">
<path d="M0.206367 3.98573C0.206718 3.98537 0.206718 3.98537 0.207071 3.98501L3.8809 0.210814C4.15617 -0.0718873 4.60125 -0.0707986 4.87547 0.213355C5.14934 0.497508 5.14828 0.956943 4.87301 1.23965L2.40609 3.7738H17.2969C17.6854 3.7738 18 4.0986 18 4.49961C18 4.90061 17.6854 5.22541 17.2969 5.22541H2.40609L4.87266 7.7592C5.14793 8.0419 5.14898 8.50134 4.87512 8.78549C4.60125 9.06965 4.15582 9.07073 3.88055 8.78803L0.206718 5.01384C0.206367 5.01348 0.206367 5.01348 0.206015 5.01311C-0.0692577 4.72969 -0.068203 4.26844 0.206367 3.98573Z" fill="#362A24"/>
</g>
<defs>
<clipPath id="clip0">
<rect width="18" height="9" fill="white" transform="matrix(-1 0 0 1 18 0)"/>
</clipPath>
</defs>
</svg>
