<svg width="18" height="9" viewBox="0 0 18 9" fill="none" xmlns="http://www.w3.org/2000/svg">
<g clip-path="url(#clip0)">
<path d="M17.7936 3.98573C17.7933 3.98537 17.7933 3.98537 17.7929 3.98501L14.1191 0.210814C13.8438 -0.0718873 13.3988 -0.0707986 13.1245 0.213355C12.8507 0.497508 12.8517 0.956943 13.127 1.23965L15.5939 3.7738H0.703125C0.314648 3.7738 0 4.0986 0 4.49961C0 4.90061 0.314648 5.22541 0.703125 5.22541H15.5939L13.1273 7.7592C12.8521 8.0419 12.851 8.50134 13.1249 8.78549C13.3987 9.06965 13.8442 9.07073 14.1195 8.78803L17.7933 5.01384C17.7936 5.01348 17.7936 5.01348 17.794 5.01311C18.0693 4.72969 18.0682 4.26844 17.7936 3.98573Z" fill="#362A24"/>
</g>
<defs>
<clipPath id="clip0">
<rect width="18" height="9" fill="white"/>
</clipPath>
</defs>
</svg>
