<?xml version="1.0" encoding="utf-8"?>
<!-- Generator: Adobe Illustrator 22.0.1, SVG Export Plug-In . SVG Version: 6.00 Build 0)  -->
<svg version="1.1" id="Capa_1" xmlns="http://www.w3.org/2000/svg" xmlns:xlink="http://www.w3.org/1999/xlink" x="0px" y="0px"
	 viewBox="0 0 1011.5 704" style="enable-background:new 0 0 1011.5 704;" xml:space="preserve">
<style type="text/css">
	.st0{fill:#453933;}
	.st1{fill:#DFA729;}
</style>
<g>
	<g>
		<path class="st0" d="M256.5,502.6c-55.2,0-100,44.8-100,100s44.8,100,100,100s100-44.8,100-100S311.7,502.6,256.5,502.6z
			 M256.5,669.3c-36.8,0-66.7-29.9-66.7-66.7c0-36.8,29.9-66.7,66.7-66.7s66.7,29.9,66.7,66.7C323.2,639.4,293.3,669.3,256.5,669.3z
			"/>
	</g>
</g>
<g>
	<g>
		<rect x="239.9" y="585.9" class="st0" width="33.3" height="33.3"/>
	</g>
</g>
<g>
	<g>
		<path class="st0" d="M823.2,502.6c-55.2,0-100,44.8-100,100s44.8,100,100,100s100-44.8,100-100S878.3,502.6,823.2,502.6z
			 M823.2,669.3c-36.8,0-66.7-29.9-66.7-66.7s29.9-66.7,66.7-66.7s66.7,29.9,66.7,66.7C889.9,639.4,860,669.3,823.2,669.3z"/>
	</g>
</g>
<g>
	<g>
		<rect x="806.5" y="585.9" class="st0" width="33.3" height="33.3"/>
	</g>
</g>
<g>
	<g>
		<path class="st0" d="M1005.3,463.1l-100-250c-2.6-6.3-8.7-10.5-15.5-10.5H673.2c-9.2,0-16.7,7.5-16.7,16.7v383.3
			c0,9.2,7.4,16.7,16.7,16.7h66.7v-33.3h-50v-350h188.7l94.6,236.5v113.5h-66.7v33.3h83.3c9.2,0,16.7-7.4,16.7-16.7V469.3
			C1006.5,467.2,1006.1,465.1,1005.3,463.1z"/>
	</g>
</g>
<g>
	<g>
		<path class="st1" d="M673.2,69.3h-650c-9.2,0-16.7,7.5-16.7,16.7v516.7c0,9.2,7.5,16.7,16.7,16.7h150v-33.3H39.9V102.6h616.7
			v483.3H339.9v33.3h333.3c9.2,0,16.7-7.4,16.7-16.7V85.9C689.9,76.7,682.4,69.3,673.2,69.3z"/>
	</g>
</g>
<g>
	<g>
		<path class="st0" d="M789.9,402.6v-100h116.7v-33.3H773.2c-9.2,0-16.7,7.5-16.7,16.7v133.3c0,9.2,7.4,16.7,16.7,16.7h200v-33.3
			H789.9z"/>
	</g>
</g>
<g>
	<g>
		<rect x="939.9" y="519.3" class="st0" width="50" height="33.3"/>
	</g>
</g>
<g>
	<g>
		<rect x="6.5" y="516.3" class="st1" width="133.3" height="33.3"/>
	</g>
</g>
<g>
	<g>
		<rect x="373.2" y="516.3" class="st1" width="300" height="33.3"/>
	</g>
</g>
<g>
	<g>
		<rect x="89.9" y="401.1" class="st1" width="516.7" height="33.3"/>
	</g>
</g>
<g>
	<g>
		<rect x="73.2" y="1.1" class="st1" width="150" height="33.3"/>
	</g>
</g>
<g>
	<g>
		<rect x="6.5" y="2.6" class="st1" width="33.3" height="33.3"/>
	</g>
</g>
</svg>
