<?xml version="1.0" encoding="utf-8"?>
<!-- Generator: Adobe Illustrator 22.0.1, SVG Export Plug-In . SVG Version: 6.00 Build 0)  -->
<svg version="1.1" id="Capa_1" xmlns="http://www.w3.org/2000/svg" xmlns:xlink="http://www.w3.org/1999/xlink" x="0px" y="0px"
	 viewBox="0 0 512 512" style="enable-background:new 0 0 512 512;" xml:space="preserve">
<style type="text/css">
	.st0{fill:#DFA729;}
	.st1{fill:#453933;}
</style>
<g id="XMLID_2118_">
	<g id="XMLID_329_">
		<path id="XMLID_358_" class="st0" d="M90.8,54H84V42C84,18.8,65.2,0,42,0S0,18.8,0,42v296c0,1.6,0.4,3.1,1.1,4.5h0l31,62.2v15.6
			c0,5.5,4.5,10,10,10c5.5,0,10-4.5,10-10v-15.6l31-62.2h0c0.7-1.3,1.1-2.9,1.1-4.5V74h6.8c7.3,0,13.3,5.9,13.3,13.3V193
			c0,5.5,4.5,10,10,10c5.5,0,10-4.5,10-10V87.3C124,68.9,109.1,54,90.8,54z M42,379.9L26.1,348h31.7L42,379.9z M64,328H20V168h44
			V328z M64,148H20V74h44V148z M42,20c12.1,0,22,9.9,22,22v12H20V42C20,29.9,29.9,20,42,20z"/>
		<path id="XMLID_362_" class="st0" d="M373.3,190H223.8c-5.5,0-10,4.5-10,10c0,5.5,4.5,10,10,10h149.5c5.5,0,10-4.5,10-10
			C383.3,194.5,378.8,190,373.3,190z"/>
		<path id="XMLID_363_" class="st0" d="M436.3,210c5.5,0,10-4.5,10-10c0-5.5-4.5-10-10-10h-18.4c-5.5,0-10,4.5-10,10
			c0,5.5,4.5,10,10,10H436.3z"/>
		<path id="XMLID_364_" class="st0" d="M223.8,266h89.1c5.5,0,10-4.5,10-10c0-5.5-4.5-10-10-10h-89.1c-5.5,0-10,4.5-10,10
			C213.8,261.5,218.3,266,223.8,266L223.8,266z"/>
		<path id="XMLID_365_" class="st0" d="M347.5,256c0,5.5,4.5,10,10,10h78.8c5.5,0,10-4.5,10-10c0-5.5-4.5-10-10-10h-78.8
			C352,246,347.5,250.5,347.5,256z"/>
		<path id="XMLID_366_" class="st0" d="M223.8,322h89.1c5.5,0,10-4.5,10-10c0-5.5-4.5-10-10-10h-89.1c-5.5,0-10,4.5-10,10
			C213.8,317.5,218.3,322,223.8,322L223.8,322z"/>
		<path id="XMLID_369_" class="st1" d="M502,32H246.1c-2.7,0-5.2,1.1-7.1,2.9l-88,88c-1.9,1.9-2.9,4.4-2.9,7.1v145
			c0,5.5,4.5,10,10,10c5.5,0,10-4.5,10-10V140h78c5.5,0,10-4.5,10-10V52H492v440H168.1V365c0-5.5-4.5-10-10-10c-5.5,0-10,4.5-10,10
			v137c0,5.5,4.5,10,10,10H502c5.5,0,10-4.5,10-10V42C512,36.5,507.5,32,502,32z M236.1,120h-53.9l53.9-53.9V120z"/>
		<path id="XMLID_450_" class="st0" d="M258.1,458c24.4,0,44.3-19.9,44.3-44.3c0-24.4-19.9-44.3-44.3-44.3
			c-24.4,0-44.3,19.9-44.3,44.3C213.8,438.1,233.7,458,258.1,458z M258.1,389.5c13.4,0,24.3,10.9,24.3,24.3
			c0,13.4-10.9,24.3-24.3,24.3c-13.4,0-24.3-10.9-24.3-24.3C233.8,400.4,244.7,389.5,258.1,389.5z"/>
		<path id="XMLID_451_" class="st0" d="M362.1,399.4c2.7,0,5.3,1.1,7.2,3c11.8,11.8,31,11.8,42.7,0l31.4-31.4
			c3.9-3.9,3.9-10.2,0-14.1s-10.2-3.9-14.1,0l-31.4,31.4c-4,4-10.5,4-14.5,0c-5.7-5.7-13.3-8.9-21.4-8.9c-8.1,0-15.7,3.1-21.4,8.9
			l-8.8,8.8c-3.9,3.9-3.9,10.2,0,14.1c2,2,4.5,2.9,7.1,2.9c2.6,0,5.1-1,7.1-2.9l8.8-8.8C356.8,400.4,359.3,399.4,362.1,399.4
			L362.1,399.4z"/>
		<path id="XMLID_452_" class="st0" d="M336.6,435c-2.6,0-5.2,1.1-7.1,2.9c-1.9,1.9-2.9,4.4-2.9,7.1c0,2.6,1.1,5.2,2.9,7.1
			c1.9,1.9,4.4,2.9,7.1,2.9c2.6,0,5.2-1.1,7.1-2.9c1.9-1.9,2.9-4.4,2.9-7.1c0-2.6-1.1-5.2-2.9-7.1C341.8,436.1,339.3,435,336.6,435z
			"/>
		<path id="XMLID_453_" class="st0" d="M374.3,455h64.4c5.5,0,10-4.5,10-10s-4.5-10-10-10h-64.4c-5.5,0-10,4.5-10,10
			S368.8,455,374.3,455z"/>
		<path id="XMLID_454_" class="st1" d="M165.2,327.1c1.9-1.9,2.9-4.4,2.9-7.1c0-2.6-1.1-5.2-2.9-7.1c-1.9-1.9-4.4-2.9-7.1-2.9
			c-2.6,0-5.2,1.1-7.1,2.9c-1.9,1.9-2.9,4.4-2.9,7.1c0,2.6,1.1,5.2,2.9,7.1c1.9,1.9,4.4,2.9,7.1,2.9
			C160.8,330,163.3,328.9,165.2,327.1z"/>
	</g>
</g>
</svg>
