<?xml version="1.0" encoding="utf-8"?>
<!-- Generator: Adobe Illustrator 22.0.1, SVG Export Plug-In . SVG Version: 6.00 Build 0)  -->
<svg version="1.1" id="Layer_1" xmlns="http://www.w3.org/2000/svg" xmlns:xlink="http://www.w3.org/1999/xlink" x="0px" y="0px"
	 viewBox="0 0 512 380" style="enable-background:new 0 0 512 380;" xml:space="preserve">
<style type="text/css">
	.st0{fill:#DFA729;}
	.st1{fill:#453933;}
</style>
<path class="st0" d="M502,180.9h-59.2c-5.5,0-10,4.5-10,10v8.4h-62.3c-1.3,0-2.6,0.3-3.8,0.8l-79.8,33c-9.2,3.8-16.4,11-20.2,20.3
	c-3.8,9.2-3.7,19.4,0.2,28.6l0.3,0.6c2.3,5.5,5.7,10.1,9.9,13.8c-12.1,3.3-24.9,3.6-37.2,0.7l-78.3-17.9c-9.6-2.2-19.4-0.5-27.7,4.8
	c-8.3,5.3-13.9,13.5-15.9,23.2c-4,19.1,7.7,37.8,26.6,42.6l93.4,23.8c7.9,2,15.9,3,23.9,3c12,0,23.9-2.2,35.3-6.7l118.8-46.6h16.8
	v5.3c0,5.5,4.5,10,10,10H502c5.5,0,10-4.5,10-10V190.9C512,185.4,507.5,180.9,502,180.9z M414,303.2c-1.3,0-2.5,0.2-3.6,0.7
	l-120.6,47.3c-15.1,5.9-31.3,6.9-47,2.9l-93.4-23.8c-8.5-2.2-13.7-10.5-11.9-19.1c0.9-4.3,3.4-8,7.2-10.4c2.7-1.7,5.7-2.6,8.8-2.6
	c1.2,0,2.4,0.1,3.7,0.4l78.3,17.9c18.8,4.3,38.3,2.9,56.4-4l22.7-8.7c0.5-0.2,0.9-0.3,1.4-0.5c20.1-7.7,45.7-17.6,51.2-19.7l1.1-0.4
	c5.2-2,7.7-7.8,5.7-12.9c-2-5.2-7.8-7.7-12.9-5.7c0,0-0.4,0.2-1.2,0.4l-52.1,20c-8.8,2.9-18.4-1.5-22.1-10.2l-0.3-0.6
	c-1.8-4.3-1.8-8.9-0.1-13.2s5.1-7.6,9.3-9.4l77.9-32.3h60.3v83.8H414z M492,318.5h-39.2V200.9H492V318.5z"/>
<path class="st1" d="M97.4,176.8H79.2V83.3H82c7.4,0,14.8-1.8,21.4-5.2c0.3-0.2,0.6-0.3,0.9-0.5L169,35.4C178,31,188.8,32,196.8,38
	l4.7,3.5c-0.3,0.4-0.6,0.8-0.8,1.2c-1.2,1.8-2.4,3.6-3.5,5.5c-6.9,11.6-11.4,24.5-13,37.8c-6.8,0.7-13.1,3.7-18,8.7
	c-5.7,5.7-8.8,13.3-8.8,21.3c0,16.6,13.5,30.2,30.2,30.2h74c4.1,0,7.9,1.6,10.8,4.5c2.9,2.9,4.5,6.8,4.5,10.8c0,6.1-3.6,11.6-9.1,14
	c-0.6,0.3-1.2,0.5-1.8,0.6c-0.1,0-0.1,0-0.1,0c-1.3,0.4-2.8,0.6-4.3,0.6h-84.1c-5.5,0-10,4.5-10,10c0,5.5,4.5,10,10,10h84.1
	c2.6,0,5.1-0.3,7.6-0.8c4.2,0.5,8.5,0.8,12.7,0.8c54.2,0,98.4-44.1,98.4-98.4C380.2,44.1,336,0,281.8,0c-25,0-48.9,9.5-67,26.4
	l-5.9-4.4c-14.2-10.6-33.6-12.2-49.4-4.1c-0.3,0.2-0.6,0.3-0.9,0.5L93.8,60.6c-3.7,1.8-7.7,2.7-11.8,2.7h-2.8v-3.6
	c0-5.5-4.5-10-10-10H10c-5.5,0-10,4.5-10,10v137.5c0,5.5,4.5,10,10,10h59.2c5.5,0,10-4.5,10-10v-0.5h18.2c5.5,0,10-4.5,10-10
	C107.4,181.2,102.9,176.8,97.4,176.8z M177.3,116c0-2.7,1.1-5.3,3-7.2c1-1,2.2-1.8,3.5-2.3c0.5,6.7,1.8,13.2,3.6,19.6
	C181.8,126.1,177.3,121.5,177.3,116z M360.1,98.4c0,39.1-28.8,71.7-66.4,77.5c2-4.5,3.1-9.5,3.1-14.4c0-6.1-1.5-11.9-4.4-17.1
	c4.3-0.7,8.3-2.7,11.5-5.9c4-4,6.1-9.2,6.1-14.8v-14.8c0-11.6-9.4-21-21-21h-14.7c-0.5,0-1-0.4-1-1v-14c0-0.5,0.4-1,1-1h7.3h0h0h7.3
	c0.5,0,1,0.4,1,1c0,5.5,4.5,10,10,10c5.5,0,10-4.5,10-10c0-10.6-8-19.4-18.3-20.8v-3.5c0-5.5-4.5-10-10-10c-5.5,0-10,4.5-10,10v3.5
	c-10.3,1.3-18.3,10.1-18.3,20.8v14c0,11.6,9.4,21,21,21h14.7c0.5,0,1,0.4,1,1v14.8c0,0.3-0.1,0.5-0.3,0.7c-0.2,0.2-0.4,0.3-0.7,0.3
	h-14.7c-0.5,0-1-0.4-1-1v-1.4c0-5.5-4.5-10-10-10c-5.5,0-10,4.5-10,10v1.4c0,0.8,0.1,1.6,0.1,2.4h-45.2c-3.4-8.8-5-18.1-5-27.7
	c0-14.7,4.2-29.3,12-41.7c2.3-3.6,4.8-7,7.6-10.1C237.9,29.7,259.3,20,281.8,20C325,20,360.1,55.2,360.1,98.4z M59.2,187.2H20V69.7
	h39.2V187.2z"/>
<path class="st1" d="M145.4,181.2c-2.3-3.6-6.9-5.2-11.1-4.1c-4,1.1-6.9,4.7-7.2,8.8c-0.4,4.2,2.1,8.2,5.8,9.9
	c3.8,1.7,8.3,0.9,11.2-2C147.5,190.5,148,185.1,145.4,181.2z"/>
</svg>
