<?xml version="1.0" encoding="utf-8"?>
<!-- Generator: Adobe Illustrator 22.0.1, SVG Export Plug-In . SVG Version: 6.00 Build 0)  -->
<svg version="1.1" id="Capa_1" xmlns="http://www.w3.org/2000/svg" xmlns:xlink="http://www.w3.org/1999/xlink" x="0px" y="0px"
	 viewBox="0 53 1000 890.8" style="enable-background:new 0 53 1000 890.8;" xml:space="preserve">
<style type="text/css">
	.st0{fill:#453933;}
	.st1{fill:#DFA729;}
</style>
<g>
	<g>
		<path class="st0" d="M689.5,315.8c-56.1,0-101.7,45.6-101.7,101.7s45.6,101.7,101.7,101.7s101.7-45.6,101.7-101.7
			C791.2,361.4,745.5,315.8,689.5,315.8z M689.5,480.1c-34.5,0-62.6-28.1-62.6-62.6c0-34.5,28.1-62.6,62.6-62.6
			c34.5,0,62.6,28.1,62.6,62.6C752.1,452,724,480.1,689.5,480.1z"/>
	</g>
</g>
<g>
	<g>
		<path class="st0" d="M866.9,370.3l-18.6-4.8c-2.6-7.9-5.8-15.6-9.5-23l12.9-20.1c5-7.7,3.9-17.9-2.6-24.3L809,257.9
			c-6.5-6.5-16.6-7.6-24.3-2.6l-20.1,12.9c-7.4-3.7-15.1-6.9-23-9.5l-4.8-18.6c-2.2-8.6-10-14.6-18.9-14.6h-56.7
			c-8.9,0-16.7,6-18.9,14.6l-4.8,18.6c-5.8,1.9-11.5,4.1-17.1,6.7v-45c0-8.9-6-16.7-14.6-18.9l-18.6-4.8c-2.6-7.9-5.8-15.6-9.5-23
			l12.9-20.1c5-7.7,3.9-17.9-2.6-24.3L547.7,89c-6.5-6.5-16.6-7.6-24.3-2.6l-20.1,12.9c-7.4-3.7-15.1-6.9-23-9.5l-4.8-18.6
			c-2.2-8.6-10-14.6-18.9-14.6h-56.7c-8.9,0-16.7,6-18.9,14.6l-4.8,18.6c-7.9,2.6-15.6,5.8-23,9.5l-20.1-12.9
			c-7.7-5-17.9-3.9-24.3,2.6l-40.1,40.1c-6.5,6.5-7.6,16.6-2.6,24.3l12.9,20.1c-3.7,7.4-6.9,15.1-9.5,23l-18.6,4.8
			c-8.6,2.2-14.6,10-14.6,18.9V277c0,8.9,6,16.7,14.6,18.9l18.6,4.8c2.6,7.9,5.8,15.6,9.5,23l-12.9,20.1c-5,7.7-3.9,17.9,2.6,24.3
			l40.1,40.1c6.5,6.5,16.6,7.6,24.3,2.6l20.1-12.9c7.4,3.7,15.1,6.9,23,9.5l4.8,18.6c2.2,8.6,10,14.6,18.9,14.6h56.7
			c8.9,0,16.7-6,18.9-14.6l4.8-18.6c5.8-1.9,11.5-4.1,17.1-6.7v45c0,8.9,6,16.7,14.6,18.9l18.6,4.8c2.6,7.9,5.8,15.6,9.5,23
			l-12.9,20.1c-5,7.7-3.9,17.9,2.6,24.3l40.1,40.1c6.5,6.5,16.6,7.6,24.3,2.6l20.1-12.9c7.4,3.7,15.1,6.9,23,9.5l4.8,18.6
			c2.2,8.6,10,14.6,18.9,14.6h56.7c8.9,0,16.7-6,18.9-14.6l4.8-18.6c7.9-2.6,15.6-5.8,23-9.5l20.1,12.9c7.7,5,17.9,3.9,24.3-2.6
			l40.1-40.1c6.5-6.5,7.6-16.6,2.6-24.3l-12.9-20.1c3.7-7.4,6.9-15.1,9.5-23l18.6-4.8c8.6-2.2,14.6-10,14.6-18.9v-56.7
			C881.6,380.3,875.6,372.5,866.9,370.3z M530.6,365.4l-4.1,1.1l-11.9-7.6c-6.2-4-14.2-4.1-20.6-0.3c-10.8,6.5-22.4,11.3-34.6,14.3
			c-6.9,1.7-12.4,7.1-14.2,14.1l-3.8,14.8h-26.4l-3.8-14.8c-1.8-6.9-7.2-12.3-14.2-14.1c-12.2-3.1-23.9-7.9-34.6-14.3
			c-6.4-3.8-14.3-3.7-20.6,0.3l-16.7,10.7l-17.8-17.8l10.7-16.7c4-6.2,4.1-14.2,0.3-20.6c-6.5-10.8-11.3-22.4-14.3-34.6
			c-1.7-6.9-7.1-12.4-14.1-14.2l-14.8-3.8v-26.4h0l14.8-3.8c6.9-1.8,12.3-7.2,14.1-14.2c3-12.2,7.9-23.9,14.3-34.6
			c3.8-6.4,3.7-14.3-0.3-20.6l-10.7-16.7l17.8-17.8l16.7,10.7c6.2,4,14.2,4.1,20.6,0.3c10.8-6.5,22.4-11.3,34.6-14.3
			c6.9-1.7,12.4-7.1,14.2-14.1l3.8-14.8h26.4l3.8,14.8c1.8,6.9,7.2,12.3,14.2,14.1c12.2,3.1,23.9,7.9,34.6,14.3
			c6.4,3.8,14.3,3.7,20.6-0.3l16.7-10.7l17.8,17.8l-10.7,16.7c-4,6.2-4.1,14.2-0.3,20.6c6.5,10.8,11.3,22.4,14.3,34.6
			c1.7,6.9,7.1,12.4,14.1,14.2l14.8,3.8v16.8c-0.2,0-0.4,0.1-0.6,0.1c-0.3,0-0.5,0.1-0.8,0.1c-0.3,0.1-0.5,0.1-0.8,0.2
			c-0.3,0.1-0.5,0.1-0.8,0.2c-0.2,0.1-0.5,0.2-0.7,0.2c-0.3,0.1-0.5,0.2-0.8,0.3c-0.2,0.1-0.5,0.2-0.7,0.3c-0.3,0.1-0.5,0.2-0.8,0.3
			c-0.2,0.1-0.5,0.2-0.7,0.4c-0.3,0.1-0.5,0.3-0.8,0.4c-0.2,0.1-0.5,0.3-0.7,0.4c-0.2,0.1-0.5,0.3-0.7,0.4c-0.3,0.2-0.5,0.4-0.8,0.6
			c-0.2,0.1-0.4,0.3-0.6,0.4c-0.4,0.4-0.8,0.7-1.2,1.1l-40.1,40.1c-5.7,5.7-7.2,14.1-4.2,21.4c0.4,1,1,2,1.6,3l12.9,20.1
			C536.3,349.8,533.2,357.5,530.6,365.4z M842.5,430.7l-14.8,3.8c-6.9,1.8-12.3,7.2-14.1,14.2c-3.1,12.2-7.9,23.9-14.3,34.6
			c-3.8,6.4-3.7,14.3,0.3,20.6l10.7,16.7l-17.8,17.8l-16.7-10.7c-6.2-4-14.2-4.1-20.6-0.3c-10.8,6.5-22.4,11.3-34.6,14.3
			c-6.9,1.7-12.4,7.1-14.2,14.1l-3.8,14.8h-26.4l-3.8-14.8c-1.8-6.9-7.2-12.3-14.2-14.1c-12.2-3.1-23.9-7.9-34.6-14.3
			c-6.4-3.8-14.3-3.7-20.6,0.3l-16.7,10.7l-17.8-17.8l10.7-16.7c4-6.2,4.1-14.2,0.3-20.6c-6.5-10.8-11.3-22.4-14.3-34.6
			c-1.7-6.9-7.1-12.4-14.1-14.2l-14.8-3.8v-26.4l14.8-3.8c6.9-1.8,12.3-7.2,14.1-14.2c3.1-12.2,7.9-23.9,14.3-34.6
			c3.8-6.4,3.7-14.3-0.3-20.6l-10.7-16.7l17.8-17.8l16.7,10.7c6.2,4,14.2,4.1,20.6,0.3c10.8-6.5,22.4-11.3,34.6-14.3
			c6.9-1.7,12.4-7.1,14.2-14.1l3.8-14.8h26.4l3.8,14.8c1.8,6.9,7.2,12.3,14.2,14.1c12.2,3.1,23.9,7.9,34.6,14.3
			c6.4,3.8,14.3,3.7,20.6-0.3l16.7-10.7l17.8,17.8l-10.7,16.7c-4,6.2-4.1,14.2-0.3,20.6c6.5,10.8,11.3,22.4,14.3,34.6
			c1.7,6.9,7.1,12.4,14.1,14.2l14.8,3.8V430.7z"/>
	</g>
</g>
<g>
	<g>
		<path class="st0" d="M428.2,147c-56.1,0-101.7,45.6-101.7,101.7s45.6,101.7,101.7,101.7c56.1,0,101.7-45.6,101.7-101.7
			S484.2,147,428.2,147z M428.2,311.3c-34.5,0-62.6-28.1-62.6-62.6c0-34.5,28.1-62.6,62.6-62.6c34.5,0,62.6,28.1,62.6,62.6
			C490.8,283.2,462.7,311.3,428.2,311.3z"/>
	</g>
</g>
<g>
	<g>
		<path class="st1" d="M976.4,572.2c-31.4-31.4-82.5-31.4-113.9,0l-72.9,72.9c-0.3-0.2-0.6-0.3-0.9-0.4c-0.3-0.2-0.6-0.3-0.9-0.4
			c-0.8-0.4-1.5-0.7-2.3-1c-0.4-0.2-0.9-0.3-1.3-0.5c-1.1-0.4-2.1-0.8-3.2-1.2c-0.8-0.3-1.5-0.5-2.3-0.8c-0.5-0.1-0.9-0.3-1.4-0.4
			c-0.8-0.2-1.5-0.4-2.3-0.6c-0.5-0.1-0.9-0.2-1.4-0.3c-0.8-0.2-1.6-0.3-2.4-0.5c-0.5-0.1-0.9-0.2-1.4-0.3c-0.8-0.1-1.7-0.3-2.5-0.4
			c-0.4-0.1-0.9-0.1-1.3-0.2c-0.9-0.1-1.8-0.2-2.7-0.2c-0.4,0-0.8-0.1-1.2-0.1c-1.3-0.1-2.6-0.1-3.9-0.1H535c0,0,0,0,0,0h-18.9
			c0,0-0.1,0-0.1,0c-4.5-0.3-44.7-2.3-85.3,27.6c-9.2,6.8-32.8,22.6-52.4,35.6V695c0-10.8-8.7-19.5-19.5-19.5h-66.4
			c0-10.8-8.8-19.5-19.5-19.5H19.5C8.7,656,0,664.7,0,675.5v248.4c0,10.8,8.7,19.5,19.5,19.5h253.3c10.8,0,19.5-8.7,19.5-19.5h66.4
			c10.8,0,19.5-8.7,19.5-19.5v-14l334.3,0c1.1,0.1,2.7,0.1,4.9,0.1c15.8,0,58.5-4,97.2-42.6l161.8-161.8
			c15.2-15.2,23.6-35.4,23.6-57C1000,607.6,991.6,587.4,976.4,572.2z M253.3,737H148.9c-10.8,0-19.5,8.7-19.5,19.5
			c0,10.8,8.7,19.5,19.5,19.5h104.4v128.3H39.1V695.1h214.2V737z M339.2,884.9h-46.9V776.1h46.9V884.9z M339.2,737h-46.9v-22.4h46.9
			V737z M948.8,658.5L787,820.3c-33.6,33.6-70.6,31.2-72.1,31.1c-0.5,0-1.1-0.1-1.7-0.1l-335,0V747.7c18.7-12.3,61.5-40.7,75.5-51
			c27.5-20.2,55.1-20.2,58.8-20.1c0.7,0.1,1.5,0.1,2.2,0.1h243.2c1,0,2,0.1,3,0.2c0.4,0,0.7,0.1,1,0.1c0.6,0.1,1.3,0.2,1.9,0.3
			c0.4,0.1,0.8,0.2,1.2,0.3c0.6,0.1,1.2,0.3,1.8,0.5c0.4,0.1,0.7,0.2,1.1,0.4c0.6,0.2,1.2,0.4,1.7,0.6c0.3,0.1,0.6,0.3,0.9,0.4
			c0.6,0.3,1.2,0.6,1.8,0.9c0.3,0.1,0.5,0.3,0.8,0.4c0.6,0.3,1.2,0.7,1.8,1.1c0.2,0.2,0.5,0.3,0.7,0.5c0.6,0.4,1.2,0.8,1.7,1.3
			c0.2,0.2,0.4,0.3,0.6,0.5c6.7,5.7,11,14.2,11,23.7c0,17.1-13.9,31-31,31H581.2c-10.8,0-19.5,8.7-19.5,19.5s8.7,19.5,19.5,19.5
			h176.9c38.7,0,70.1-31.5,70.1-70.1c0-13.2-3.6-25.5-10-36l71.9-71.9c16.2-16.2,42.5-16.2,58.7,0c7.8,7.8,12.1,18.2,12.1,29.3
			C960.9,640.3,956.6,650.7,948.8,658.5z"/>
	</g>
</g>
<g>
	<g>
		<path class="st1" d="M530.8,754.5c-0.3-1.3-0.6-2.5-1.1-3.7c-0.5-1.2-1.1-2.3-1.8-3.4c-0.7-1.1-1.5-2.1-2.4-3
			c-0.9-0.9-1.9-1.7-3-2.4c-1.1-0.7-2.2-1.3-3.4-1.8c-1.2-0.5-2.4-0.9-3.7-1.1c-2.5-0.5-5.1-0.5-7.6,0c-1.3,0.2-2.5,0.6-3.7,1.1
			c-1.2,0.5-2.3,1.1-3.4,1.8c-1.1,0.7-2.1,1.5-3,2.4c-0.9,0.9-1.7,1.9-2.4,3c-0.7,1.1-1.3,2.2-1.8,3.4c-0.5,1.2-0.9,2.4-1.1,3.7
			c-0.3,1.3-0.4,2.5-0.4,3.8c0,1.3,0.1,2.6,0.4,3.8c0.3,1.3,0.6,2.5,1.1,3.7c0.5,1.2,1.1,2.3,1.8,3.4c0.7,1.1,1.5,2.1,2.4,3
			c0.9,0.9,1.9,1.7,3,2.4c1.1,0.7,2.2,1.3,3.4,1.8c1.2,0.5,2.4,0.9,3.7,1.1c1.3,0.3,2.5,0.4,3.8,0.4c1.3,0,2.6-0.1,3.8-0.4
			c1.2-0.2,2.5-0.6,3.7-1.1c1.2-0.5,2.3-1.1,3.4-1.8c1.1-0.7,2.1-1.5,3-2.4c0.9-0.9,1.7-1.9,2.4-3c0.7-1.1,1.3-2.2,1.8-3.4
			c0.5-1.2,0.9-2.4,1.1-3.7c0.3-1.3,0.4-2.5,0.4-3.8C531.2,757.1,531.1,755.8,530.8,754.5z"/>
	</g>
</g>
<g>
	<g>
		<path class="st1" d="M99.1,752.7c-0.3-1.3-0.6-2.5-1.1-3.7c-0.5-1.2-1.1-2.3-1.8-3.4c-0.7-1.1-1.5-2.1-2.4-3
			c-0.9-0.9-1.9-1.7-3-2.4c-1.1-0.7-2.2-1.3-3.4-1.8c-1.2-0.5-2.4-0.9-3.7-1.1c-2.5-0.5-5.1-0.5-7.6,0c-1.3,0.3-2.5,0.6-3.7,1.1
			c-1.2,0.5-2.3,1.1-3.4,1.8c-1.1,0.7-2.1,1.5-3,2.4c-0.9,0.9-1.7,1.9-2.4,3c-0.7,1.1-1.3,2.2-1.8,3.4c-0.5,1.2-0.9,2.4-1.1,3.7
			c-0.3,1.3-0.4,2.5-0.4,3.8c0,5.1,2.1,10.2,5.7,13.8c0.9,0.9,1.9,1.7,3,2.4c1.1,0.7,2.2,1.3,3.4,1.8c1.2,0.5,2.4,0.9,3.7,1.1
			c1.3,0.3,2.5,0.4,3.8,0.4c1.3,0,2.6-0.1,3.8-0.4c1.2-0.3,2.5-0.6,3.7-1.1c1.2-0.5,2.3-1.1,3.4-1.8c1.1-0.7,2.1-1.5,3-2.4
			c3.6-3.6,5.7-8.7,5.7-13.8C99.5,755.3,99.4,754,99.1,752.7z"/>
	</g>
</g>
</svg>
