<?xml version="1.0" encoding="utf-8"?>
<!-- Generator: Adobe Illustrator 22.0.1, SVG Export Plug-In . SVG Version: 6.00 Build 0)  -->
<svg version="1.1" id="Capa_1" xmlns="http://www.w3.org/2000/svg" xmlns:xlink="http://www.w3.org/1999/xlink" x="0px" y="0px"
	 viewBox="0 0 952 1000" style="enable-background:new 0 0 952 1000;" xml:space="preserve">
<style type="text/css">
	.st0{fill:#DFA729;}
	.st1{fill:#453933;}
</style>
<g>
	<g>
		<path class="st0" d="M719.6,904.4c-5.9-9-18-11.6-27-5.7c-62.5,40.7-135.1,62.2-210,62.2c-212.4,0-385.3-172.8-385.3-385.3
			c0-77.1,22.7-151.6,65.7-215.3c6-8.9,3.7-21.1-5.3-27.1c-8.9-6-21.1-3.7-27.1,5.3c-47.3,70.2-72.4,152.1-72.4,237.1
			c0,113.3,44.1,219.9,124.3,300.1c80.1,80.2,186.7,124.3,300.1,124.3c82.5,0,162.5-23.7,231.3-68.5
			C722.9,925.6,725.4,913.5,719.6,904.4z"/>
	</g>
</g>
<g>
	<g>
		<path class="st0" d="M785.2,845.2c-7.7-7.6-20.1-7.4-27.6,0.3l-0.6,0.7c-7.6,7.7-7.5,20,0.1,27.6c3.8,3.8,8.8,5.7,13.8,5.7
			c5,0,10-1.9,13.9-5.8l0.8-0.8C793,865.1,792.9,852.8,785.2,845.2z"/>
	</g>
</g>
<g>
	<g>
		<path class="st0" d="M864.3,320.1c3.8,3.8,8.8,5.7,13.8,5.7c5,0,10-1.9,13.8-5.7l32.5-32.5c23.2-23.2,23.2-60.9,0-84.1l-69.7-69.7
			c-11.2-11.2-26.2-17.4-42-17.4c-15.9,0-30.8,6.2-42,17.4l-32.5,32.5c-3.7,3.7-5.7,8.6-5.7,13.8c0,5.2,2.1,10.1,5.7,13.8l9.2,9.2
			l-23.4,23.4c-49.6-34.5-105.7-57.7-165.2-68.4V125h43c10.8,0,19.5-8.7,19.5-19.5V19.5c0-10.8-8.7-19.5-19.5-19.5H363.4
			c-10.8,0-19.5,8.7-19.5,19.5v85.9c0,10.8,8.7,19.5,19.5,19.5h43v33.1c-55.9,10.1-109.2,31.4-157.1,63c-9,5.9-11.5,18.1-5.6,27.1
			c5.9,9,18.1,11.5,27.1,5.6c62.9-41.5,136.1-63.4,211.8-63.4c212.4,0,385.3,172.8,385.3,385.3c0,72-20,142.3-57.8,203.2
			c-5.7,9.2-2.9,21.2,6.3,26.9c3.2,2,6.8,2.9,10.3,2.9c6.5,0,12.9-3.3,16.6-9.2c41.7-67.1,63.7-144.4,63.7-223.8
			c0-87.5-26.3-171-75.2-241.4l23.4-23.4L864.3,320.1z M519.6,152.9c-12.3-1.1-24.6-1.6-37.1-1.6c-12.4,0-24.8,0.5-37.1,1.6V125
			h74.2L519.6,152.9L519.6,152.9z M425.9,85.9h-43V39.1h199.2v46.9h-43H425.9z M807.7,303c-7.9-9.4-16.3-18.6-25.1-27.4
			c-8.8-8.8-18-17.2-27.4-25.1l19.7-19.7l52.5,52.5L807.7,303z M788.8,189.3C788.7,189.3,788.7,189.3,788.8,189.3l-9.2-9.2
			l18.7-18.7c3.9-3.9,9-6,14.4-6c5.4,0,10.6,2.1,14.4,6l69.7,69.7c8,8,8,20.9,0,28.9l-18.7,18.7l-9.2-9.2c0,0,0,0,0,0L788.8,189.3z"
			/>
	</g>
</g>
<g>
	<g>
		<path class="st1" d="M482.5,298.8c-10.8,0-19.5,8.7-19.5,19.5v43c0,10.8,8.7,19.5,19.5,19.5c10.8,0,19.5-8.7,19.5-19.5v-43
			C502.1,307.6,493.3,298.8,482.5,298.8z"/>
	</g>
</g>
<g>
	<g>
		<path class="st1" d="M678.3,379.9c-3.6-3.6-8.7-5.7-13.8-5.7c-5.1,0-10.2,2.1-13.8,5.7c-3.6,3.6-5.7,8.7-5.7,13.8
			c0,5.2,2.1,10.2,5.7,13.8c3.6,3.6,8.7,5.7,13.8,5.7c5.1,0,10.2-2.1,13.8-5.7c3.6-3.6,5.7-8.7,5.7-13.8
			C684,388.6,681.9,383.5,678.3,379.9z"/>
	</g>
</g>
<g>
	<g>
		<path class="st1" d="M739.8,556.1h-43c-10.8,0-19.5,8.7-19.5,19.5s8.7,19.5,19.5,19.5h43c10.8,0,19.5-8.7,19.5-19.5
			S750.6,556.1,739.8,556.1z"/>
	</g>
</g>
<g>
	<g>
		<path class="st1" d="M678.3,743.8c-3.6-3.6-8.7-5.7-13.8-5.7c-5.1,0-10.2,2.1-13.8,5.7c-3.6,3.6-5.7,8.7-5.7,13.8
			c0,5.2,2.1,10.2,5.7,13.8c3.6,3.7,8.7,5.7,13.8,5.7c5.1,0,10.2-2.1,13.8-5.7c3.6-3.6,5.7-8.7,5.7-13.8
			C684,752.5,681.9,747.4,678.3,743.8z"/>
	</g>
</g>
<g>
	<g>
		<path class="st1" d="M482.5,770.5c-10.8,0-19.5,8.7-19.5,19.5v43c0,10.8,8.7,19.5,19.5,19.5c10.8,0,19.5-8.7,19.5-19.5v-43
			C502.1,779.2,493.3,770.5,482.5,770.5z"/>
	</g>
</g>
<g>
	<g>
		<path class="st1" d="M314.4,743.8c-3.6-3.6-8.7-5.7-13.8-5.7c-5.1,0-10.2,2.1-13.8,5.7c-3.6,3.6-5.7,8.7-5.7,13.8
			c0,5.2,2.1,10.2,5.7,13.8c3.6,3.7,8.7,5.7,13.8,5.7c5.1,0,10.2-2.1,13.8-5.7c3.6-3.6,5.7-8.7,5.7-13.8
			C320.1,752.5,318,747.4,314.4,743.8z"/>
	</g>
</g>
<g>
	<g>
		<path class="st1" d="M268.2,556.1h-43c-10.8,0-19.5,8.7-19.5,19.5s8.7,19.5,19.5,19.5h43c10.8,0,19.5-8.7,19.5-19.5
			C287.7,564.9,279,556.1,268.2,556.1z"/>
	</g>
</g>
<g>
	<g>
		<path class="st1" d="M314.4,379.9c-3.6-3.6-8.7-5.7-13.8-5.7c-5.1,0-10.2,2.1-13.8,5.7c-3.6,3.6-5.7,8.7-5.7,13.8
			c0,5.1,2.1,10.2,5.7,13.8c3.6,3.6,8.7,5.7,13.8,5.7c5.1,0,10.2-2.1,13.8-5.7c3.6-3.6,5.7-8.7,5.7-13.8
			C320.1,388.6,318,383.5,314.4,379.9z"/>
	</g>
</g>
<g>
	<g>
		<path class="st1" d="M635,423.2c-6.4-6.4-16.2-7.6-23.9-2.9l-161.2,97.6c-1.7,1-4.2,2.4-5.8,3.7c-16.9,12.1-27.9,31.8-27.9,54.1
			c0,36.6,29.8,66.4,66.4,66.4c22.2,0,41.9-10.9,53.9-27.7c1.4-1.8,2.8-4.1,3.9-6.1l97.6-161.2C642.6,439.4,641.4,429.5,635,423.2z
			 M506.7,588.4l-1.6,2.7c-4.9,7.2-13.2,11.9-22.5,11.9c-15.1,0-27.3-12.3-27.3-27.3c0-9.4,4.7-17.6,11.9-22.5l2.6-1.6
			c3.8-2,8.2-3.2,12.8-3.2c15.1,0,27.3,12.3,27.3,27.3C509.9,580.3,508.7,584.6,506.7,588.4z M537.2,538c-4.6-6.7-10.4-12.4-17-17
			l43.2-26.1L537.2,538z"/>
	</g>
</g>
<g>
	<g>
		<path class="st0" d="M482.5,237.3c-186.6,0-338.4,151.8-338.4,338.3S296,914,482.5,914c186.6,0,338.4-151.8,338.4-338.4
			S669.1,237.3,482.5,237.3z M482.5,874.9c-165,0-299.3-134.3-299.3-299.3s134.3-299.3,299.3-299.3c165,0,299.3,134.3,299.3,299.3
			S647.6,874.9,482.5,874.9z"/>
	</g>
</g>
<g>
	<g>
		<path class="st0" d="M211.3,274.4c-3.6-3.6-8.7-5.7-13.8-5.7c-5.1,0-10.2,2.1-13.8,5.7c-3.6,3.6-5.7,8.7-5.7,13.8
			c0,5.2,2.1,10.2,5.7,13.8c3.6,3.6,8.7,5.7,13.8,5.7c5.1,0,10.2-2.1,13.8-5.7c3.6-3.6,5.7-8.7,5.7-13.8
			C217,283.1,214.9,278,211.3,274.4z"/>
	</g>
</g>
</svg>
