<?xml version="1.0" encoding="utf-8"?>
<!-- Generator: Adobe Illustrator 22.0.1, SVG Export Plug-In . SVG Version: 6.00 Build 0)  -->
<svg version="1.1" id="Capa_1" xmlns="http://www.w3.org/2000/svg" xmlns:xlink="http://www.w3.org/1999/xlink" x="0px" y="0px"
	 viewBox="0 0 512 388" style="enable-background:new 0 0 512 388;" xml:space="preserve">
<g>
	<g>
		<path d="M361,58.8V28h15c8.3,0,15-6.7,15-15s-6.7-15-15-15h-60c-8.3,0-15,6.7-15,15s6.7,15,15,15h15v30.8
			c-54.6,4.9-105.9,37-132.8,89.2C181.1,94.3,146.5,58,105,58C46.1,58,0,130.5,0,223s46.1,165,105,165c41.5,0,76.1-36.3,93.2-89.9
			C227.5,355,285.7,388,346,388c90.7,0,166-73.8,166-165C512,137.5,445.5,66.4,361,58.8z M119.4,355.3c-4.7,1.7-9.5,2.7-14.4,2.7
			c-40.6,0-75-61.8-75-135S64.4,88,105,88c4.9,0,9.7,1,14.4,2.7C84.6,102.9,60,155.7,60,223S84.6,343.1,119.4,355.3z M452,306.8
			l-9.6-9.6c-5.9-5.9-15.4-5.9-21.2,0s-5.9,15.4,0,21.2l9.6,9.6c-19.4,15.5-43.9,25.6-69.8,28.5V343c0-8.3-6.7-15-15-15
			c-8.3,0-15,6.7-15,15v13.5c-25.9-2.9-50.4-13-69.8-28.5l9.6-9.6c5.9-5.9,5.9-15.4,0-21.2s-15.4-5.9-21.2,0l-9.6,9.6
			c-15.5-19.4-25.6-42.9-28.5-68.8H225c8.3,0,15-6.7,15-15c0-8.3-6.7-15-15-15h-13.5c2.9-25.9,13-49.4,28.5-68.8l9.6,9.6
			c5.9,5.9,15.4,5.9,21.2,0s5.9-15.4,0-21.2l-9.6-9.6c19.4-15.5,43.9-25.6,69.8-28.5V103c0,8.3,6.7,15,15,15c8.3,0,15-6.7,15-15
			V89.5c25.9,2.9,50.4,13,69.8,28.5l-65.5,64.5c-5.9-2.8-12.4-4.5-19.3-4.5c-24.8,0-45,20.2-45,45c0,19.5,12.6,36,30,42.2V283
			c0,8.3,6.7,15,15,15c8.3,0,15-6.7,15-15v-17.8c17.4-6.2,30-22.7,30-42.2c0-6.9-1.7-13.4-4.5-19.3l65.5-64.5
			c15.5,19.4,25.6,42.9,28.5,68.8H467c-8.3,0-15,6.7-15,15c0,8.3,6.7,15,15,15h13.5C477.6,263.9,467.5,287.4,452,306.8z"/>
	</g>
</g>
</svg>
