<svg id="Capa_1" enable-background="new 0 0 512 512" height="512" viewBox="0 0 512 512" width="512" xmlns="http://www.w3.org/2000/svg"><g><path d="m492 0c-10.012 0-448.419 0-472 0-11.046 0-20 8.954-20 20v472c0 11.046 8.954 20 20 20h472c11.046 0 20-8.954 20-20 0-13.006 0-451.482 0-472 0-11.046-8.954-20-20-20zm-452 40h117.333v117.333h-117.333zm117.333 432h-117.333v-117.333h117.333zm-117.333-157.333v-117.334h274.667v117.334c-14.726 0-259.725 0-274.667 0zm432 157.333h-274.667v-117.333h274.667zm0-157.333h-117.333v-117.334h117.333zm0-157.334c-14.725 0-259.724 0-274.667 0v-117.333h274.667z"/></g></svg>