<?xml version="1.0" encoding="iso-8859-1"?>
<!-- Generator: Adobe Illustrator 19.0.0, SVG Export Plug-In . SVG Version: 6.00 Build 0)  -->
<svg xmlns="http://www.w3.org/2000/svg" xmlns:xlink="http://www.w3.org/1999/xlink" version="1.1" id="Layer_1" x="0px" y="0px" viewBox="0 0 512 512" style="enable-background:new 0 0 512 512;" xml:space="preserve" width="512" height="512">
<path d="M395.312,30H512V0H386.688L0.035,242.29l15.93,25.421L61,239.49V360H0v90h31v62h481c0-16.37,0-366.719,0-392H391V32.702  L395.312,30z M91,220.691l120-75.196V240h-60v90h30v30H91V220.691z M181,300v-30h150v30H181z M30,390h151v30H30V390z M482,482H61  v-32h150c0-19.742,0-88.312,0-120h150c0-19.742,0-88.312,0-120h121V482z M482,180H331v-30h151C482,159.114,482,171.077,482,180z   M361,120h-60v90h30v30h-90V126.696L361,51.5V120z"/>















</svg>
