<?xml version="1.0" encoding="utf-8"?>
<!-- Generator: Adobe Illustrator 16.0.0, SVG Export Plug-In . SVG Version: 6.00 Build 0)  -->
<!DOCTYPE svg PUBLIC "-//W3C//DTD SVG 1.1//EN" "http://www.w3.org/Graphics/SVG/1.1/DTD/svg11.dtd">
<svg version="1.1" id="Layer_2" xmlns="http://www.w3.org/2000/svg" xmlns:xlink="http://www.w3.org/1999/xlink" x="0px" y="0px"
	 width="24px" height="24px" viewBox="0 0 24 24" enable-background="new 0 0 24 24" xml:space="preserve">
<path fill="#201600" d="M24,0H0.002v24.051L0.053,24H24V0z M19.65,19.2l-3.798-3.8h3.982L23,18.564V19.2H19.65z M7.702,19.2
	l3.797-3.8h3.652l-3.802,3.8H7.702z M4.15,19.2L1,16.048V15.4h2.501l3.8,3.8H4.15z M1,13.751L4.149,10.6h3.151l-3.802,3.8H1V13.751z
	 M1,5.8h2.5l3.801,3.8h-3.45L1,6.748V5.8z M1,4.151L4.149,1h3.152L3.5,4.8H1V4.151z M19.835,5.8L23,8.964V9.6h-3.648l-3.799-3.8
	H19.835z M23,11.233L19.831,14.4h-3.979l3.798-3.8H23V11.233z M11.501,14.4l-3.799-3.8h3.649l3.801,3.8H11.501z M15.451,5.8
	l-3.802,3.8H7.701L11.5,5.8H15.451z M11.5,4.8L7.702,1h3.649l3.801,3.8H11.5z M23,1.633L19.832,4.8h-3.98L19.649,1H23V1.633z
	 M1.052,23l2.798-2.8h3.151L4.201,23H1.052z M10.8,23l-2.799-2.8h3.649l2.801,2.8H10.8z M16.552,23l2.798-2.8H23v0.334L20.533,23
	H16.552z"/>
</svg>
