<?xml version="1.0" encoding="utf-8"?>
<!-- Generator: Adobe Illustrator 22.0.1, SVG Export Plug-In . SVG Version: 6.00 Build 0)  -->
<svg version="1.1" id="Capa_1" xmlns="http://www.w3.org/2000/svg" xmlns:xlink="http://www.w3.org/1999/xlink" x="0px" y="0px"
	 viewBox="0 0 364.7 304" style="enable-background:new 0 0 364.7 304;" xml:space="preserve">
<g>
	<g>
		<path d="M348.6,31.3v240H16v-240L348.6,31.3 M364.6,15.3H0v272h364.7v-272H364.6z"/>
	</g>
	<g>
		<rect x="81.3" width="16" height="302.7"/>
	</g>
	<g>
		<rect x="59.3" y="286" width="62" height="18"/>
	</g>
	<g>
		<rect x="266.6" width="16" height="302.7"/>
	</g>
	<g>
		<rect x="244.6" y="286" width="62" height="18"/>
	</g>
	<g>
		<rect x="28.8" y="62.6" transform="matrix(0.7071 -0.7071 0.7071 0.7071 -23.0071 85.693)" width="126.3" height="16"/>
	</g>
	<g>
		<rect x="-20.3" y="198.3" transform="matrix(0.7071 -0.7071 0.7071 0.7071 -121.5832 119.0875)" width="206.5" height="16"/>
	</g>
	<g>
		<rect x="191.4" y="44.3" transform="matrix(0.7071 -0.7071 0.7071 0.7071 33.0364 184.3058)" width="95.2" height="16"/>
	</g>
	<g>
		<rect x="131" y="156.3" transform="matrix(0.7071 -0.7071 0.7071 0.7071 -46.1946 217.0946)" width="215.9" height="16"/>
	</g>
	<g>
		<rect x="319.1" y="183.6" transform="matrix(0.7071 -0.7071 0.7071 0.7071 -35.8213 296.7347)" width="42.4" height="16"/>
	</g>
</g>
</svg>
