<?xml version="1.0" encoding="utf-8"?>
<!-- Generator: Adobe Illustrator 22.0.1, SVG Export Plug-In . SVG Version: 6.00 Build 0)  -->
<svg version="1.1" id="outline" xmlns="http://www.w3.org/2000/svg" xmlns:xlink="http://www.w3.org/1999/xlink" x="0px" y="0px"
	 viewBox="0 0 481.3 482" style="enable-background:new 0 0 481.3 482;" xml:space="preserve">
<style type="text/css">
	.st0{fill:#453933;}
	.st1{fill:#DFA729;}
</style>
<path class="st0" d="M224.3,241h-120c-4.4,0-8,3.6-8,8v40c0,4.4,3.6,8,8,8h120c4.4,0,8-3.6,8-8v-40C232.3,244.6,228.8,241,224.3,241
	z M216.3,281h-104v-24h104V281z"/>
<path class="st0" d="M224.3,313h-120c-4.4,0-8,3.6-8,8v120c0,4.4,3.6,8,8,8h120c4.4,0,8-3.6,8-8V321
	C232.3,316.6,228.8,313,224.3,313z M216.3,353h-24v-24h24V353z M112.3,369h24v24h-24V369z M152.3,369h24v24h-24V369z M176.3,353h-24
	v-24h24V353z M112.3,329h24v24h-24V329z M112.3,409h24v24h-24V409z M152.3,409h24v24h-24V409z M216.3,433h-24v-64h24V433z"/>
<path class="st0" d="M240.3,145h32v16h-32V145z"/>
<path class="st0" d="M200.3,145h24v16h-24V145z"/>
<path class="st0" d="M176.3,177h40v16h-40V177z"/>
<path class="st0" d="M232.3,177h40v16h-40V177z"/>
<path class="st1" d="M456.3,1h-144c-13.2,0-24,10.8-24,24v82.7h-112c-22.1,0-40,17.9-40,40V209h-32c-5.5,0-11,1.1-16,3.4v-32.5
	c0-13.7-3.2-27.1-9.3-39.4l-15.6-31.1c-2-4-6.8-5.6-10.7-3.6c-1.5,0.8-2.8,2-3.6,3.6l-15.6,31.1c-6.1,12.2-9.3,25.7-9.3,39.4v226.9
	c-4.9-2.9-8-8.1-8-13.8v-88h-16v88c0,14.6,9.9,27.3,24,31v25c0,17.7,14.3,32,32,32c8.4,0,16.5-3.3,22.5-9.2c7.2,6,16.2,9.2,25.5,9.2
	h272c22.1,0,40-17.9,40-40V209c0-10.6-4.2-20.8-11.7-28.3L384.9,161h71.4c13.2,0,24-10.8,24-24V25C480.3,11.8,469.6,1,456.3,1z
	 M56.3,130.9l8.4,16.8c2.1,4.3,3.8,8.7,5.1,13.3H42.9c1.2-4.6,2.9-9.1,5.1-13.3L56.3,130.9z M40.3,179.9c0-1,0-1.9,0.1-2.9h31.9
	c0,1,0.1,1.9,0.1,2.9V225h0c-5.2,6.9-8,15.3-8,24v176h-24V179.9z M56.3,465c-8.8,0-16-7.2-16-16v-8h24c0,6.3,1.5,12.5,4.4,18.1
	C65.7,462.8,61.1,465,56.3,465z M104.3,465c-13.2,0-24-10.8-24-24V249c0-13.2,10.8-24,24-24h120c13.2,0,24,10.8,24,24v192
	c0,13.2-10.8,24-24,24H104.3z M393.3,192c4.5,4.5,7,10.6,7,17v232c0,13.2-10.8,24-24,24h-120c5.2-6.9,8-15.3,8-24h104
	c4.4,0,8-3.6,8-8V241c0-4.4-3.6-8-8-8H261c-6.4-14.6-20.8-24-36.7-24h-72v-61.3c0-13.2,10.8-24,24-24h112V193c0,4.4,3.6,8,8,8
	c2.1,0,4.2-0.8,5.7-2.3l35.3-35.3c1.5-1.5,3.5-2.4,5.7-2.3h19.3L393.3,192z M264.3,249h40v32h-40V249z M360.3,281h-40v-32h40V281z
	 M360.3,297v128h-40V297H360.3z M264.3,297h40v128h-40V297z M464.3,137c0,4.4-3.6,8-8,8H343c-6.4,0-12.5,2.5-17,7l-21.7,21.7V25
	c0-4.4,3.6-8,8-8h144c4.4,0,8,3.6,8,8V137z"/>
<path class="st0" d="M376.3,41h16v16h-16V41z"/>
<path class="st0" d="M408.3,41h32v16h-32V41z"/>
<path class="st0" d="M328.3,73h24v16h-24V73z"/>
<path class="st0" d="M424.3,73h16v16h-16V73z"/>
<path class="st0" d="M368.3,73h40v16h-40V73z"/>
<path class="st0" d="M328.3,105h64v16h-64V105z"/>
<path class="st0" d="M408.3,105h32v16h-32V105z"/>
</svg>
