<?xml version="1.0" encoding="utf-8"?>
<!-- Generator: Adobe Illustrator 22.0.1, SVG Export Plug-In . SVG Version: 6.00 Build 0)  -->
<svg version="1.1" id="Layer_1" xmlns="http://www.w3.org/2000/svg" xmlns:xlink="http://www.w3.org/1999/xlink" x="0px" y="0px"
	 viewBox="80 0 620 1000" style="enable-background:new 80 0 620 1000;" xml:space="preserve">
<style type="text/css">
	.st0{fill:#DFA729;}
	.st1{fill:#453933;}
</style>
<path class="st0" d="M394,630.9c10.8,0,19.5-8.8,19.5-19.5c0-10.8-8.8-19.5-19.5-19.5c-10.8,0-19.5,8.8-19.5,19.5
	C374.5,622.1,383.2,630.9,394,630.9z"/>
<path class="st1" d="M500.8,482.9c45.3-27.5,82.8-66.3,108.5-112.1c25.3-45.1,38.6-96.1,38.6-147.5V113.8
	c22.7-8.1,39.1-29.8,39.1-55.2V19.5C687,8.7,678.2,0,667.4,0H120.6C109.8,0,101,8.7,101,19.5v39.1c0,25.5,16.3,47.2,39.1,55.2v109.5
	c0,51.4,13.4,102.4,38.6,147.5c25.7,45.8,63.2,84.6,108.5,112.1c5.8,3.5,9.3,9.9,9.3,17.1c0,7.2-3.5,13.6-9.3,17.1
	c-45.3,27.5-82.8,66.3-108.5,112.1c-25.3,45.1-38.6,96.1-38.6,147.5v109.5c-22.7,8.1-39.1,29.8-39.1,55.2v39.1
	c0,10.8,8.7,19.5,19.5,19.5h546.9c10.8,0,19.5-8.7,19.5-19.5v-39.1c0-25.5-16.3-47.2-39.1-55.2V776.7c0-51.4-13.4-102.4-38.6-147.5
	c-25.7-45.8-63.2-84.6-108.5-112.1c-5.8-3.5-9.3-9.9-9.3-17.1C491.5,492.8,495,486.4,500.8,482.9z M140.1,39.1h507.8v19.5
	c0,10.8-8.8,19.5-19.5,19.5H159.6c-10.8,0-19.5-8.8-19.5-19.5V39.1z M647.9,960.9H140.1v-19.5c0-10.8,8.8-19.5,19.5-19.5h468.8
	c10.8,0,19.5,8.8,19.5,19.5V960.9z M480.5,550.5c80.3,48.8,128.3,133.4,128.3,226.2v106.1H179.2V776.7c0-92.8,48-177.4,128.3-226.2
	c17.6-10.7,28-29.5,28-50.5s-10.5-39.8-28-50.5c-80.3-48.8-128.3-133.4-128.3-226.2V117.2h429.7v106.1c0,92.8-48,177.4-128.3,226.2
	c-17.6,10.7-28,29.5-28,50.5S463,539.8,480.5,550.5z"/>
<path class="st0" d="M409.6,676.7c-3.7-4.9-9.5-7.8-15.6-7.8c0,0,0,0,0,0c-6.1,0-11.9,2.9-15.6,7.8c-7.4,9.8-16.5,18.1-27.3,24.8
	c-22.4,13.5-42.4,21.9-60,29.3c-39.1,16.5-72.9,30.7-72.9,84.9v8.6c0,10.8,8.7,19.5,19.5,19.5h312.5c10.8,0,19.5-8.7,19.5-19.5v-8.6
	c0-54.1-33.9-68.4-73-85c-17.8-7.5-37.9-16-60.6-29.7C425.8,694.5,416.8,686.3,409.6,676.7z M529.9,804.7H258
	c3-18.1,15.3-24,48.2-37.9c17.9-7.6,40.3-17,65.1-31.9c0.1,0,0.1-0.1,0.2-0.1c8.1-5,15.6-10.7,22.4-17.1
	c6.6,6.2,13.9,11.8,21.7,16.7c0.1,0,0.1,0.1,0.2,0.1c25.1,15.1,47.6,24.6,65.7,32.3C514.6,780.6,527,786.6,529.9,804.7z"/>
<path class="st0" d="M569.8,223.4v-35.9c0-7.1-3.9-13.6-10.1-17.1c-6.2-3.4-13.8-3.2-19.8,0.5c-43.8,27.4-94.2,41.8-145.9,41.8
	c-51.7,0-102.1-14.5-145.9-41.8c-6-3.8-13.6-4-19.8-0.5c-6.2,3.4-10.1,10-10.1,17.1v35.9c0,33.8,13,70.1,37.7,105.1
	c23.9,33.9,57.1,64.2,95.9,87.6c7.9,4.9,15.6,11.9,22.6,20.3v96.7c0,10.8,8.7,19.5,19.5,19.5c10.8,0,19.5-8.7,19.5-19.5v-96.7
	c7.1-8.5,15.1-15.6,23.4-20.8C516.4,367.8,569.8,290.6,569.8,223.4z M416.7,382.4c-0.1,0-0.1,0.1-0.2,0.1
	c-7.8,4.8-15.3,10.8-22.4,17.6c-6.8-6.7-14.1-12.4-21.7-17.2c-0.1,0-0.1-0.1-0.2-0.1c-68.7-41.4-114.8-105.4-114.8-159.4v-2.9
	c42.5,20.5,89.2,31.3,136.7,31.3c47.6,0,94.2-10.7,136.7-31.3v2.9C530.7,276.6,483.8,341.9,416.7,382.4z"/>
</svg>
