<?xml version="1.0" encoding="utf-8"?>
<!-- Generator: Adobe Illustrator 22.0.1, SVG Export Plug-In . SVG Version: 6.00 Build 0)  -->
<svg version="1.1" id="Capa_1" xmlns="http://www.w3.org/2000/svg" xmlns:xlink="http://www.w3.org/1999/xlink" x="0px" y="0px"
	 viewBox="0 0 1000 1000" style="enable-background:new 0 0 1000 1000;" xml:space="preserve">
<style type="text/css">
	.st0{fill:#DFA729;}
	.st1{fill:#453933;}
</style>
<g>
	<g>
		<path class="st0" d="M354.9,716.4c-1.4-0.4-2.9-0.6-4.3-0.7c21.4-22.5,34.6-52.9,34.6-86.3V526.7c0-0.9-0.1-1.9-0.2-2.8
			c0.1-1.9,0.2-3.7,0.2-5.6v-65c0-10.8-8.7-19.5-19.5-19.5h-131c-55.2,0-100,44.9-100,100v95.6c0,33.4,13.2,63.8,34.6,86.3
			c-1.5,0.1-2.9,0.3-4.3,0.7C72.6,724.8,0,802.6,0,897v83.4c0,10.8,8.7,19.5,19.5,19.5h480.7c10.8,0,19.5-8.7,19.5-19.5V897
			C519.8,802.6,447.2,724.8,354.9,716.4z M173.7,558.6v-24.8c0-33.6,27.4-61,61-61h111.5v45.5c0,22.9-18.6,41.5-41.5,41.5H173.7
			V558.6z M173.7,598.9h130.9c15.2,0,29.4-4.2,41.5-11.6v42.1c0,47.5-38.7,86.2-86.2,86.2c-47.5,0-86.2-38.7-86.2-86.2V598.9z
			 M302.4,754.7l-42.5,42.5l-42.5-42.5H302.4z M480.7,960.9L480.7,960.9H39.1v-39.1h81.1c10.8,0,19.5-8.7,19.5-19.5
			c0-10.8-8.7-19.5-19.5-19.5H39.8C46.3,817,98,764.2,163.3,755.9l82.8,82.8c3.7,3.7,8.6,5.7,13.8,5.7c5.2,0,10.1-2.1,13.8-5.7
			l82.8-82.8c70,8.9,124.3,68.8,124.3,141.1V960.9z"/>
	</g>
</g>
<g>
	<g>
		<path class="st1" d="M835.1,282.7c-1.4-0.4-2.9-0.6-4.3-0.7c21.4-22.5,34.6-52.9,34.6-86.3V92.9c0-0.9-0.1-1.9-0.2-2.8
			c0.1-1.9,0.2-3.7,0.2-5.6v-65c0-10.8-8.7-19.5-19.5-19.5h-131c-55.2,0-100,44.9-100,100v95.6c0,33.4,13.2,63.8,34.6,86.3
			c-1.5,0.1-2.9,0.3-4.3,0.7c-92.3,8.4-164.9,86.2-164.9,180.6v83.4c0,10.8,8.7,19.5,19.5,19.5h157.1c10.8,0,19.5-8.7,19.5-19.5
			s-8.7-19.5-19.5-19.5H519.3v-63.9c0-72.3,54.3-132.2,124.3-141.1l82.8,82.8c3.8,3.8,8.8,5.7,13.8,5.7c5,0,10-1.9,13.8-5.7
			l82.8-82.8c70,8.9,124.3,68.8,124.3,141.1v63.9H817.1c-10.8,0-19.5,8.7-19.5,19.5c0,10.8,8.7,19.5,19.5,19.5h163.4
			c10.8,0,19.5-8.7,19.5-19.5v-83.4C1000,368.8,927.4,291,835.1,282.7z M740.1,363.5L697.6,321h85L740.1,363.5z M826.3,195.7
			c0,47.5-38.7,86.2-86.2,86.2c-47.5,0-86.2-38.7-86.2-86.2v-30.5h130.9c15.2,0,29.4-4.2,41.5-11.6V195.7z M826.3,84.5
			c0,22.9-18.6,41.5-41.5,41.5H653.9v-1.3V100c0-33.6,27.4-61,61-61h111.5V84.5z"/>
	</g>
</g>
<g>
	<g>
		<path class="st1" d="M753.9,532.9c-3.6-3.6-8.7-5.7-13.8-5.7c-5.2,0-10.2,2.1-13.8,5.7c-3.7,3.6-5.7,8.7-5.7,13.8
			c0,5.2,2.1,10.2,5.7,13.8c3.6,3.7,8.7,5.7,13.8,5.7c5.1,0,10.2-2.1,13.8-5.7c3.6-3.6,5.7-8.7,5.7-13.8
			C759.6,541.5,757.6,536.5,753.9,532.9z"/>
	</g>
</g>
<g>
	<g>
		<path class="st1" d="M522.3,273.3l-81.7-81.7v-94c0-53.8-43.8-97.7-97.7-97.7H97.7C43.8,0,0,43.8,0,97.7v171.9
			c0,53.8,43.8,97.7,97.7,97.7h245.3c40.4,0,75.6-24.2,90.4-60.5h75.2c7.9,0,15-4.8,18-12.1C529.5,287.3,527.9,278.9,522.3,273.3z
			 M419.1,267.6c-9.1,0-17,6.3-19,15.2c-6.1,26.7-29.6,45.4-57.1,45.4H97.7c-32.3,0-58.6-26.3-58.6-58.6V97.7
			c0-32.3,26.3-58.6,58.6-58.6h245.3c32.3,0,58.6,26.3,58.6,58.6v102.1c0,5.2,2.1,10.1,5.7,13.8l54.1,54.1H419.1z"/>
	</g>
</g>
<g>
	<g>
		<path class="st0" d="M902.3,632.8H657.1c-40.4,0-75.6,24.2-90.4,60.5h-75.2c-7.9,0-15,4.8-18,12.1c-3,7.3-1.4,15.7,4.2,21.3
			l81.7,81.7v94c0,53.8,43.8,97.7,97.7,97.7h245.3c53.8,0,97.7-43.8,97.7-97.7V730.5C1000,676.6,956.2,632.8,902.3,632.8z
			 M960.9,902.3c0,32.3-26.3,58.6-58.6,58.6H657.1c-32.3,0-58.6-26.3-58.6-58.6V800.3c0-5.2-2.1-10.1-5.7-13.8l-54.1-54.1h42.3
			c9.1,0,17-6.3,19-15.2c6.1-26.7,29.6-45.4,57.1-45.4h245.3c32.3,0,58.6,26.3,58.6,58.6V902.3z"/>
	</g>
</g>
<g>
	<g>
		<path class="st1" d="M867.5,764.4c-7.6-7.6-20-7.6-27.6,0L788,816.4l-24.1-24.1c-7.6-7.6-20-7.6-27.6,0c-7.6,7.6-7.6,20,0,27.6
			l38,38c3.8,3.8,8.8,5.7,13.8,5.7c5,0,10-1.9,13.8-5.7l65.7-65.7C875.1,784.4,875.1,772.1,867.5,764.4z"/>
	</g>
</g>
<g>
	<g>
		<path class="st0" d="M309.1,129.4c-2.3-33.5-29.3-60.5-62.8-62.8c-19-1.3-37.1,5.1-51,18c-13.7,12.8-21.5,30.8-21.5,49.5
			c0,10.8,8.7,19.5,19.5,19.5s19.5-8.7,19.5-19.5c0-8,3.2-15.5,9.1-21c5.9-5.5,13.6-8.2,21.6-7.6c14.1,1,25.5,12.4,26.5,26.5
			c1,14.3-8.4,26.9-22.3,30c-15.2,3.4-25.8,16.6-25.8,32.2v10.4c0,10.8,8.7,19.5,19.5,19.5c10.8,0,19.5-8.7,19.5-19.5V199
			C291.3,190,311.3,161.5,309.1,129.4z"/>
	</g>
</g>
<g>
	<g>
		<path class="st0" d="M255.4,265.7c-3.6-3.6-8.7-5.7-13.8-5.7c-5.2,0-10.2,2.1-13.8,5.7c-3.7,3.6-5.7,8.7-5.7,13.8
			c0,5.1,2.1,10.2,5.7,13.8c3.6,3.6,8.7,5.7,13.8,5.7c5.1,0,10.2-2.1,13.8-5.7c3.6-3.6,5.7-8.7,5.7-13.8
			C261.1,274.3,259,269.3,255.4,265.7z"/>
	</g>
</g>
<g>
	<g>
		<path class="st0" d="M212.1,888.5c-3.6-3.6-8.7-5.7-13.8-5.7c-5.1,0-10.2,2.1-13.8,5.7c-3.6,3.6-5.7,8.7-5.7,13.8
			c0,5.1,2.1,10.2,5.7,13.8c3.6,3.6,8.7,5.7,13.8,5.7c5.1,0,10.2-2.1,13.8-5.7c3.6-3.6,5.7-8.7,5.7-13.8
			C217.8,897.2,215.7,892.2,212.1,888.5z"/>
	</g>
</g>
</svg>
