<?xml version="1.0" encoding="utf-8"?>
<!-- Generator: Adobe Illustrator 22.0.1, SVG Export Plug-In . SVG Version: 6.00 Build 0)  -->
<svg version="1.1" id="Слой_1" xmlns="http://www.w3.org/2000/svg" xmlns:xlink="http://www.w3.org/1999/xlink" x="0px" y="0px"
	 viewBox="0 0 483 486" style="enable-background:new 0 0 483 486;" xml:space="preserve">
<style type="text/css">
	.st0{fill:#453933;}
	.st1{fill:#DFA729;}
	.st2{display:none;}
	.st3{display:inline;fill:#453933;}
</style>
<g id="Layer_3">
	<title>teamwork-team-business-working-organization</title>
	<path class="st0" d="M80,132v8.6c-4.8-1.2-9.9-0.6-14.3,1.6l-29.3,14.6c-2.7,1.4-4.4,4.1-4.4,7.2v40c0,1.5,0.1,3,0.3,4.5
		C21.8,220,16,235,16,250.6v149.9c0,1.8-0.2,3.5-0.6,5.2L0.2,474.3c-1,4.3,1.8,8.6,6.1,9.5c0.6,0.1,1.2,0.2,1.7,0.2h24
		c2.9,0,5.5-1.5,6.9-4l29.8-52.2c1.8-3.2,3.2-6.6,4.1-10.1l2.4-9.6c0.1,0.2,0.2,0.5,0.3,0.7l20.9,69.5c1,3.4,4.1,5.7,7.7,5.7h24
		c4.4,0,8-3.6,8-8c0-0.2,0-0.5,0-0.7l-7.5-82c-0.4-5-1.8-9.8-4.1-14.3L104,338.1V308h48c4.2,0,7.7-3.3,8-7.5
		c0.3-0.2,0.6-0.5,0.8-0.7c0,0-40.2-32.7-48.6-47.7c-2.3-4.1-11.1-12.1-13.2-16.6C89.9,216.1,93,197,93,189
		C93,160.4,80,130.5,80,132z M75.7,274.8c1,0.6,2.2,1,3.4,1.2l52.4,5.8l10.2,10.2H69.3c-3.4,0-6.8-0.7-9.9-2.2L75.7,274.8z
		 M104,262.6v-8.4c0.1,0.1,0.2,0.2,0.2,0.3l9.2,9.1L104,262.6z M48,188h32v16c0,8.8-7.2,16-16,16s-16-7.2-16-16V188z M48,168.9
		l24.8-12.4c2.4-1.2,5.4-0.2,6.6,2.2c0.3,0.7,0.5,1.4,0.5,2.2V172H48V168.9z M32,250.6c0-9.2,2.7-18.1,7.8-25.8
		c10.9,12.7,29.8,14.9,43.3,4.8c3.3,6.5,5,13.7,5,20.9v10.2l-4.3-0.5l-14-14l-11.3,11.3l5.9,5.9l-17.4,16L32,264.7V250.6z
		 M54.9,419.9L27.4,468H18L31,409.2c0.6-2.8,1-5.8,1-8.7v-29c0.3,0.2,0.5,0.4,0.8,0.6l29.7,21.2l-5.1,20.5
		C56.8,415.9,56,418,54.9,419.9z M110.1,386.2c1.3,2.7,2.2,5.6,2.4,8.6l6.7,73.3H110l-19.1-63.8c-2.6-8.5-7.9-15.9-15.1-21.1
		l-33.7-24.1c-6.3-4.5-10-11.8-10-19.5V332h56v8c0,1.2,0.3,2.5,0.8,3.6L110.1,386.2z M88,316H32v-28.7l9,9
		c7.5,7.5,17.7,11.7,28.3,11.7H88V316z"/>
</g>
<g id="Layer_2">
	<title>teamwork-team-business-working-organization</title>
	<path class="st1" d="M464.6,405.7c-0.4-1.7-0.6-3.5-0.6-5.2V250.6c0-15.6-5.8-30.7-16.3-42.2c0.2-1.5,0.3-3,0.3-4.5v-40
		c0-3-1.7-5.8-4.4-7.2l-29.3-14.6c-4.4-2.2-9.5-2.8-14.3-1.6V132c0-4.4-3.6-8-8-8h-32.4c-3.8,0-7.2-2.3-8.7-5.8l-0.1-0.2
		c-1.5-3.5-0.7-7.6,2-10.3l22.9-22.9c3.1-3.1,3.1-8.2,0-11.3c0,0,0,0,0,0l-45.3-45.3c-3.1-3.1-8.2-3.1-11.3,0l-22.9,22.9
		c-2.7,2.7-6.8,3.5-10.3,2l-0.2-0.1c-3.5-1.5-5.8-4.9-5.8-8.7V12c0-4.4-3.6-8-8-8h-64c-4.4,0-8,3.6-8,8v32.4c0,3.8-2.3,7.3-5.8,8.7
		l-0.2,0.1c-3.5,1.5-7.6,0.7-10.3-2l-22.9-22.9c-3.1-3.1-8.2-3.1-11.3,0l-45.3,45.3c-3.1,3.1-3.1,8.2,0,11.3c0,0,0,0,0,0l22.9,22.9
		c2.7,2.7,3.5,6.8,2,10.3l-0.1,0.2c-1.4,3.5-4.9,5.8-8.7,5.8H88c-4.4,0-8,3.6-8,8v8.6c0,9.3-1,54.5,0.5,60.2c0.9,3.1,6.5,4.1,10,4
		c4.6-0.2,34.8-4.4,37.8,7.3c3.6,14.2-37,26-23.8,42c6.6,8.1,17.5,21.3,37.3,38c7.7,6.5,18,12.7,18.3,8.5c0.3-0.2,0.6-0.5,0.8-0.7
		l22.9-22.9c2.7-2.7,6.8-3.5,10.3-2l0.2,0.1c3.5,1.5,5.8,4.9,5.8,8.7V316c0,4.4,3.6,8,8,8h64c4.4,0,8-3.6,8-8v-32.4
		c0-3.8,2.3-7.3,5.8-8.7l0.2-0.1c3.5-1.5,7.6-0.7,10.3,2l22.9,22.9c0.3,0.3,0.5,0.5,0.8,0.7c0.2,4.2,3.7,7.5,8,7.5h48v30.1
		L355.5,379c-2.2,4.5-3.6,9.3-4.1,14.3l-7.5,82c-0.4,4.4,2.8,8.3,7.2,8.7c0.2,0,0.5,0,0.7,0h24c3.5,0,6.6-2.3,7.7-5.7l20.9-69.5
		c0.1-0.2,0.2-0.5,0.3-0.7l2.4,9.6c0.9,3.6,2.3,7,4.1,10.1l29.8,52.2c1.4,2.5,4.1,4,6.9,4h24c4.4,0,8-3.6,8-8c0-0.6-0.1-1.2-0.2-1.7
		L464.6,405.7z M448,250.6v14.1l-16,16L415.3,264l6.3-6.3l-11.3-11.3l-14,14l-4.3,0.5v-10.2c0-7.3,1.7-14.4,5-20.9
		c13.5,10,32.4,7.9,43.3-4.8C445.3,232.5,448,241.5,448,250.6z M400,204v-16h32v16c0,8.8-7.2,16-16,16S400,212.8,400,204z
		 M386.4,216.1c-5.5,8.3-9,17.9-10,27.8c-0.2-0.2-0.4-0.5-0.6-0.7l-22.9-22.9c-2.7-2.7-3.5-6.8-2-10.3l0.1-0.2
		c1.5-3.5,4.9-5.8,8.7-5.8H384C384,208.1,384.8,212.2,386.4,216.1z M376,254.2v8.4l-9.4,1l9.1-9.1
		C375.9,254.4,375.9,254.3,376,254.2z M348.5,281.8l52.4-5.8c1-0.1,2-0.4,2.9-0.9l15.4,15.4c-2.7,1-5.5,1.5-8.4,1.5h-72.5
		L348.5,281.8z M404.9,156c0.8,0,1.5,0.2,2.2,0.5l24.8,12.4v3.1h-32v-11.1C400,158.2,402.2,156,404.9,156z M307.6,265.6
		c-7.3-7.3-18.2-9.5-27.7-5.5l-0.2,0.1c-9.5,3.9-15.7,13.2-15.7,23.5V308h-48v-24.4c0-10.3-6.2-19.6-15.7-23.5l-0.2-0.1
		c-9.5-4-20.5-1.8-27.7,5.5l-17.2,17.2l-33.9-33.9l17.2-17.2c7.3-7.3,9.5-18.3,5.5-27.8l-0.1-0.2c-3.9-9.5-13.2-15.7-23.5-15.7H96
		v-48h24.4c10.3,0,19.6-6.2,23.5-15.7l0.1-0.2c4-9.5,1.8-20.5-5.5-27.7l-17.2-17.2l33.9-33.9l17.2,17.2c7.3,7.3,18.2,9.5,27.7,5.5
		l0.2-0.1c9.5-3.9,15.7-13.2,15.7-23.5V20h48v24.4c0,10.3,6.2,19.6,15.7,23.5l0.2,0.1c9.5,4,20.5,1.8,27.7-5.5l17.2-17.2l33.9,33.9
		l-17.2,17.2c-7.3,7.3-9.5,18.3-5.5,27.8l0.1,0.2c3.9,9.5,13.2,15.7,23.5,15.7H384v48h-24.4c-10.3,0-19.6,6.2-23.5,15.7l-0.1,0.2
		c-4,9.5-1.8,20.5,5.5,27.7l17.2,17.2l-33.9,33.9L307.6,265.6z M410.7,308c10.6,0,20.8-4.2,28.3-11.7l9-9V316h-56v-8H410.7z
		 M389.2,404.2L370.1,468h-9.3l6.7-73.3c0.3-3,1.1-5.9,2.4-8.6l21.3-42.6c0.6-1.1,0.8-2.3,0.8-3.6v-8h56v7.5c0,7.7-3.7,15-10,19.5
		l-33.7,24.1C397.1,388.3,391.8,395.7,389.2,404.2z M452.6,468l-27.5-48.1c-1.1-1.9-1.9-4-2.4-6.1l-5.1-20.5l29.7-21.2
		c0.3-0.2,0.5-0.4,0.8-0.6v29c0,2.9,0.3,5.8,1,8.7L462,468H452.6z"/>
	<path class="st0" d="M240,212c26.5,0,48-21.5,48-48s-21.5-48-48-48s-48,21.5-48,48C192,190.5,213.5,212,240,212z M240,132
		c17.7,0,32,14.3,32,32c0,17.7-14.3,32-32,32s-32-14.3-32-32C208,146.3,222.3,132,240,132z"/>
	<path class="st0" d="M319.7,126.7c-9.9-21.2-27.8-37.5-49.7-45.4l-5.4,15c37.4,13.5,56.7,54.8,43.2,92.2
		c-13.5,37.4-54.8,56.7-92.2,43.2c-21.3-7.7-37.7-25-44.4-46.7l-15.3,4.7c14.2,46.5,63.4,72.7,109.9,58.5s72.7-63.4,58.5-109.9
		C323,134.3,321.5,130.4,319.7,126.7z"/>
</g>
<g id="outline" class="st2">
	<title>teamwork-team-business-working-organization</title>
	<path class="st3" d="M464.6,405.7c-0.4-1.7-0.6-3.5-0.6-5.2V250.6c0-15.6-5.8-30.7-16.3-42.2c0.2-1.5,0.3-3,0.3-4.5v-40
		c0-3-1.7-5.8-4.4-7.2l-29.3-14.6c-4.4-2.2-9.5-2.8-14.3-1.6V132c0-4.4-3.6-8-8-8h-32.4c-3.8,0-7.2-2.3-8.7-5.8l-0.1-0.2
		c-1.5-3.5-0.7-7.6,2-10.3l22.9-22.9c3.1-3.1,3.1-8.2,0-11.3c0,0,0,0,0,0l-45.3-45.3c-3.1-3.1-8.2-3.1-11.3,0l-22.9,22.9
		c-2.7,2.7-6.8,3.5-10.3,2l-0.2-0.1c-3.5-1.5-5.8-4.9-5.8-8.7V12c0-4.4-3.6-8-8-8h-64c-4.4,0-8,3.6-8,8v32.4c0,3.8-2.3,7.3-5.8,8.7
		l-0.2,0.1c-3.5,1.5-7.6,0.7-10.3-2l-22.9-22.9c-3.1-3.1-8.2-3.1-11.3,0l-45.3,45.3c-3.1,3.1-3.1,8.2,0,11.3c0,0,0,0,0,0l22.9,22.9
		c2.7,2.7,3.5,6.8,2,10.3l-0.1,0.2c-1.4,3.5-4.9,5.8-8.7,5.8H88c-4.4,0-8,3.6-8,8v8.6c-4.8-1.2-9.9-0.6-14.3,1.6l-29.3,14.6
		c-2.7,1.4-4.4,4.1-4.4,7.2v40c0,1.5,0.1,3,0.3,4.5C21.8,220,16,235,16,250.6v149.9c0,1.8-0.2,3.5-0.6,5.2L0.2,474.3
		c-1,4.3,1.8,8.6,6.1,9.5c0.6,0.1,1.2,0.2,1.7,0.2h24c2.9,0,5.5-1.5,6.9-4l29.8-52.2c1.8-3.2,3.2-6.6,4.1-10.1l2.4-9.6
		c0.1,0.2,0.2,0.5,0.3,0.7l20.9,69.5c1,3.4,4.1,5.7,7.7,5.7h24c4.4,0,8-3.6,8-8c0-0.2,0-0.5,0-0.7l-7.5-82c-0.4-5-1.8-9.8-4.1-14.3
		L104,338.1V308h48c4.2,0,7.7-3.3,8-7.5c0.3-0.2,0.6-0.5,0.8-0.7l22.9-22.9c2.7-2.7,6.8-3.5,10.3-2l0.2,0.1c3.5,1.5,5.8,4.9,5.8,8.7
		V316c0,4.4,3.6,8,8,8h64c4.4,0,8-3.6,8-8v-32.4c0-3.8,2.3-7.3,5.8-8.7l0.2-0.1c3.5-1.5,7.6-0.7,10.3,2l22.9,22.9
		c0.3,0.3,0.5,0.5,0.8,0.7c0.2,4.2,3.7,7.5,8,7.5h48v30.1L355.5,379c-2.2,4.5-3.6,9.3-4.1,14.3l-7.5,82c-0.4,4.4,2.8,8.3,7.2,8.7
		c0.2,0,0.5,0,0.7,0h24c3.5,0,6.6-2.3,7.7-5.7l20.9-69.5c0.1-0.2,0.2-0.5,0.3-0.7l2.4,9.6c0.9,3.6,2.3,7,4.1,10.1l29.8,52.2
		c1.4,2.5,4.1,4,6.9,4h24c4.4,0,8-3.6,8-8c0-0.6-0.1-1.2-0.2-1.7L464.6,405.7z M448,250.6v14.1l-16,16L415.3,264l6.3-6.3l-11.3-11.3
		l-14,14l-4.3,0.5v-10.2c0-7.3,1.7-14.4,5-20.9c13.5,10,32.4,7.9,43.3-4.8C445.3,232.5,448,241.5,448,250.6z M400,204v-16h32v16
		c0,8.8-7.2,16-16,16S400,212.8,400,204z M386.4,216.1c-5.5,8.3-9,17.9-10,27.8c-0.2-0.2-0.4-0.5-0.6-0.7l-22.9-22.9
		c-2.7-2.7-3.5-6.8-2-10.3l0.1-0.2c1.5-3.5,4.9-5.8,8.7-5.8H384C384,208.1,384.8,212.2,386.4,216.1z M376,254.2v8.4l-9.4,1l9.1-9.1
		C375.9,254.4,375.9,254.3,376,254.2z M348.5,281.8l52.4-5.8c1-0.1,2-0.4,2.9-0.9l15.4,15.4c-2.7,1-5.5,1.5-8.4,1.5h-72.5
		L348.5,281.8z M404.9,156c0.8,0,1.5,0.2,2.2,0.5l24.8,12.4v3.1h-32v-11.1C400,158.2,402.2,156,404.9,156z M75.7,274.8
		c1,0.6,2.2,1,3.4,1.2l52.4,5.8l10.2,10.2H69.3c-3.4,0-6.8-0.7-9.9-2.2L75.7,274.8z M104,262.6v-8.4c0.1,0.1,0.2,0.2,0.2,0.3
		l9.2,9.1L104,262.6z M103.6,243.9c-1-9.9-4.5-19.5-10-27.8c1.6-3.8,2.4-7.9,2.4-12.1h24.4c3.8,0,7.2,2.3,8.7,5.8l0.1,0.2
		c1.5,3.5,0.7,7.6-2,10.3l-22.9,22.9C104,243.4,103.8,243.6,103.6,243.9z M48,188h32v16c0,8.8-7.2,16-16,16s-16-7.2-16-16V188z
		 M48,168.9l24.8-12.4c2.4-1.2,5.4-0.2,6.6,2.2c0.3,0.7,0.5,1.4,0.5,2.2V172H48V168.9z M32,250.6c0-9.2,2.7-18.1,7.8-25.8
		c10.9,12.7,29.8,14.9,43.3,4.8c3.3,6.5,5,13.7,5,20.9v10.2l-4.3-0.5l-14-14l-11.3,11.3l5.9,5.9l-17.4,16L32,264.7V250.6z
		 M54.9,419.9L27.4,468H18L31,409.2c0.6-2.8,1-5.8,1-8.7v-29c0.3,0.2,0.5,0.4,0.8,0.6l29.7,21.2l-5.1,20.5
		C56.8,415.9,56,418,54.9,419.9z M110.1,386.2c1.3,2.7,2.2,5.6,2.4,8.6l6.7,73.3H110l-19.1-63.8c-2.6-8.5-7.9-15.9-15.1-21.1
		l-33.7-24.1c-6.3-4.5-10-11.8-10-19.5V332h56v8c0,1.2,0.3,2.5,0.8,3.6L110.1,386.2z M88,316H32v-28.7l9,9
		c7.5,7.5,17.7,11.7,28.3,11.7H88V316z M307.6,265.6c-7.3-7.3-18.2-9.5-27.7-5.5l-0.2,0.1c-9.5,3.9-15.7,13.2-15.7,23.5V308h-48
		v-24.4c0-10.3-6.2-19.6-15.7-23.5l-0.2-0.1c-9.5-4-20.5-1.8-27.7,5.5l-17.2,17.2l-33.9-33.9l17.2-17.2c7.3-7.3,9.5-18.3,5.5-27.8
		l-0.1-0.2c-3.9-9.5-13.2-15.7-23.5-15.7H96v-48h24.4c10.3,0,19.6-6.2,23.5-15.7l0.1-0.2c4-9.5,1.8-20.5-5.5-27.7l-17.2-17.2
		l33.9-33.9l17.2,17.2c7.3,7.3,18.2,9.5,27.7,5.5l0.2-0.1c9.5-3.9,15.7-13.2,15.7-23.5V20h48v24.4c0,10.3,6.2,19.6,15.7,23.5
		l0.2,0.1c9.5,4,20.5,1.8,27.7-5.5l17.2-17.2l33.9,33.9l-17.2,17.2c-7.3,7.3-9.5,18.3-5.5,27.8l0.1,0.2c3.9,9.5,13.2,15.7,23.5,15.7
		H384v48h-24.4c-10.3,0-19.6,6.2-23.5,15.7l-0.1,0.2c-4,9.5-1.8,20.5,5.5,27.7l17.2,17.2l-33.9,33.9L307.6,265.6z M410.7,308
		c10.6,0,20.8-4.2,28.3-11.7l9-9V316h-56v-8H410.7z M389.2,404.2L370.1,468h-9.3l6.7-73.3c0.3-3,1.1-5.9,2.4-8.6l21.3-42.6
		c0.6-1.1,0.8-2.3,0.8-3.6v-8h56v7.5c0,7.7-3.7,15-10,19.5l-33.7,24.1C397.1,388.3,391.8,395.7,389.2,404.2z M452.6,468l-27.5-48.1
		c-1.1-1.9-1.9-4-2.4-6.1l-5.1-20.5l29.7-21.2c0.3-0.2,0.5-0.4,0.8-0.6v29c0,2.9,0.3,5.8,1,8.7L462,468H452.6z"/>
	<path class="st3" d="M240,212c26.5,0,48-21.5,48-48s-21.5-48-48-48s-48,21.5-48,48C192,190.5,213.5,212,240,212z M240,132
		c17.7,0,32,14.3,32,32c0,17.7-14.3,32-32,32s-32-14.3-32-32C208,146.3,222.3,132,240,132z"/>
	<path class="st3" d="M319.7,126.7c-9.9-21.2-27.8-37.5-49.7-45.4l-5.4,15c37.4,13.5,56.7,54.8,43.2,92.2
		c-13.5,37.4-54.8,56.7-92.2,43.2c-21.3-7.7-37.7-25-44.4-46.7l-15.3,4.7c14.2,46.5,63.4,72.7,109.9,58.5s72.7-63.4,58.5-109.9
		C323,134.3,321.5,130.4,319.7,126.7z"/>
</g>
</svg>
