<?xml version="1.0" encoding="utf-8"?>
<!-- Generator: Adobe Illustrator 22.0.1, SVG Export Plug-In . SVG Version: 6.00 Build 0)  -->
<svg version="1.1" id="outline" xmlns="http://www.w3.org/2000/svg" xmlns:xlink="http://www.w3.org/1999/xlink" x="0px" y="0px"
	 viewBox="0 0 484.3 479.3" style="enable-background:new 0 0 484.3 479.3;" xml:space="preserve">
<style type="text/css">
	.st0{fill:#453933;}
	.st1{fill:#DFA729;}
</style>
<title>interview-job-HR-business-avatar</title>
<path class="st0" d="M239.2,228.1c-1.6-3.2-5.2-5-8.7-4.3l-20.9,4.2c-9.6,2-19.6-0.7-27.1-7.1L160,201.7
	c-2.4-8.6-6.4-16.7-11.7-23.9l-6.7-8.9c3.3-5.1,5.1-11.1,5.1-17.2v-37.6c0-14.6-11.8-26.4-26.4-26.4c-5.2,0-10.3,1.5-14.7,4.4
	L86.2,105c-2.2,1.5-3.6,4-3.6,6.7v40c0,5.4,1.4,10.7,4,15.4l-18.7,15c-9,7.3-15.8,16.9-19.7,27.8c-5.8-15.7-20.8-26.1-37.5-26.1
	c-4.4,0-8,3.6-8,8v128c0,25.8,15.6,49.1,39.4,59.1l-15.3,91.6c-0.7,4.4,2.2,8.5,6.6,9.2c0.4,0.1,0.9,0.1,1.3,0.1h24
	c3.7,0,6.9-2.5,7.8-6.1l22.5-89.9h19.5l22.5,89.9c0.9,3.6,4.1,6.1,7.8,6.1h24c4.4,0,8-3.6,8-8c0-0.4,0-0.9-0.1-1.3l-14.5-86.8
	c0.6-0.1,1.2-0.3,1.7-0.5l29.5,67.8c1.3,2.9,4.2,4.8,7.3,4.8h24c4.4,0,8-3.6,8-8c0,0,0,0,0,0h0v-112c0-26.5-21.5-48-48-48h-16v-15.1
	l15.9,4c9.3,2.3,19.1,1.2,27.6-3l37.4-18.7c4-2,5.6-6.8,3.6-10.7L239.2,228.1z M162.7,225.1l7.3,6.2l-7.3,14.5V225.1z M98.7,151.7
	v-16h32v16c0,8.8-7.2,16-16,16S98.7,160.5,98.7,151.7z M98.7,115.9l15.8-10.5c4.8-3.2,11.3-1.9,14.5,2.9c1.1,1.7,1.7,3.7,1.7,5.8
	v5.6h-32V115.9z M77.9,194.5l19.7-15.8c3.4,2.1,7.1,3.6,11.1,4.4l6,17.9v46.7h16v-48c0-0.9-0.1-1.7-0.4-2.5l-5.1-15.3
	c1.6-0.6,3.1-1.2,4.6-2l5.7,7.5c7.2,9.7,11.2,21.5,11.2,33.6v66.7H95.6l-3.7-12.9c-0.5-1.7-0.4-3.5,0.3-5.2l14-34.9l-14.9-5.9
	l-6.4,16l-26.5-10.6l3.7-14.8C64.5,209.5,70,200.8,77.9,194.5z M76.5,279.1l12.7,44.4l-3.2,1.6l-28.6-51.5c-4-7.1-5.1-15.4-3.1-23.3
	l0.1-0.5l24.5,9.8l-1.6,4C75.3,268.6,75,274,76.5,279.1z M50.7,294.5l22.6,40.6c0.1,0.2,0.1,0.3,0.2,0.5
	c-12.7-0.7-22.7-11.2-22.7-24V294.5z M18.7,319.7V201c9.6,3.4,16,12.5,16,22.6v88c0,22.1,17.9,40,40,40h48c10.2,0,19.2,6.4,22.6,16
	H66.7C40.2,367.6,18.7,346.2,18.7,319.7z M52.4,463.7h-8.3L57.6,383c3,0.4,6.1,0.7,9.1,0.7h5.8L52.4,463.7z M144.9,463.7l-20-80h15
	l13.3,80H144.9z M199.9,439.7l-43.2-99.2c-1.3-2.9-4.2-4.8-7.3-4.8h-48.8l1.7-0.8c3.4-1.7,5.2-5.6,4.1-9.4l-6.2-21.8H150
	c14.7,0,27.6,10,31.1,24.4l27.4,111.6H199.9z M210.7,335.7v45.8l-14-57.2c-1.8-7.2-5.1-13.9-9.9-19.5
	C200.8,308.4,210.6,321.1,210.7,335.7z M199,259.2c-5.1,2.6-11,3.2-16.6,1.8l-8.5-2.1l9.3-18.6c9.2,4.2,19.5,5.4,29.4,3.4l14.9-3
	l1.7,3.4L199,259.2z"/>
<path class="st1" d="M474.7,183.7c-11.8,0-22.9,5.2-30.5,14.2c-4-8.7-9.6-16.6-16.7-23.1l-13.4-12.3c1.2-3.5,1.9-7.1,1.9-10.8v-40
	c0-2.7-1.3-5.2-3.6-6.7L393,92.1c-4.3-2.8-9.2-4.4-14.4-4.4v-64c0-13.2-10.8-24-24-24h-160c-13.2,0-24,10.8-24,24v168
	c0,4.4,3.6,8,8,8c2.1,0,4.2-0.8,5.7-2.3l35.3-35.3c1.5-1.5,3.5-2.4,5.7-2.3H353c0.8,3,2,5.9,3.6,8.6l-7,7.7
	c-12.2,13.3-18.9,30.6-18.9,48.6V254l-41.8,9.9c-3.6,0.9-6.2,4.1-6.2,7.8v22.5c-14.8,8.6-24,24.4-24,41.5v112h0c0,4.4,3.6,8,8,8
	c0,0,0,0,0,0h24c3.2,0,6.1-1.9,7.3-4.8l29.5-67.8c0.7,0.3,1.4,0.5,2.1,0.6l-15.3,86.7c-0.8,4.4,2.1,8.5,6.5,9.3
	c0.5,0.1,0.9,0.1,1.4,0.1h24.5c3.7,0,6.8-2.5,7.8-6l22.9-90h19.1l22.5,89.9c0.9,3.6,4.1,6.1,7.8,6.1h24.5c4.4,0,8-3.6,8-8
	c0-0.5,0-0.9-0.1-1.4l-15.7-91.6c23.8-10,39.3-33.2,39.4-59.1v-128C482.7,187.2,479.1,183.7,474.7,183.7z M426.7,299.3
	c2.8-1.4,5.5-3.1,8-5.1v17.4c0,9.7-5.8,18.4-14.7,22.1c4.4-6.5,6.7-14.2,6.7-22.1V299.3z M383.9,167.7c-8.8,0-16-7.2-16-16v-16h32
	v16C399.9,160.5,392.8,167.7,383.9,167.7z M399.9,115.9v3.7h-32v-5.6c0-5.8,4.7-10.4,10.4-10.4c2.1,0,4.1,0.6,5.8,1.8L399.9,115.9z
	 M208.3,150.7l-21.7,21.7V23.7c0-4.4,3.6-8,8-8h160c4.4,0,8,3.6,8,8v69.2c-6.7,5-10.7,12.9-10.7,21.2v29.6H225.3
	C218.9,143.6,212.8,146.2,208.3,150.7z M361.3,186.7l6.7-7.3c1.2,0.7,2.4,1.3,3.7,1.8l-8.1,14.6c-0.7,1.2-1,2.5-1,3.9v40h16v-37.9
	l10.2-18.4c6-0.9,11.5-3.5,16.1-7.5l11.7,10.8c11.5,10.6,18,25.5,18.1,41.2v33.2c0,14.8-12,26.7-26.7,26.7h-61.3v-9.8l45.8-11.5
	c10.7-2.7,18.2-12.3,18.2-23.3v-19.5h-16v19.5c0,3.7-2.5,6.9-6.1,7.8l-41.9,10.5v-36.9C346.7,210.5,351.9,197,361.3,186.7z
	 M298.7,287.7V278l32-7.5v17.2H298.7z M298.6,304.7c-4.8,5.7-8.2,12.3-9.9,19.5l-14,57.2v-45.8C274.7,321.1,284.5,308.4,298.6,304.7
	z M285.4,439.7h-8.6L304.2,328c3.5-14.3,16.3-24.4,31.1-24.4h72.6c0.9,0,1.8,0,2.7-0.1v8.1c0,13.2-10.8,24-24,24h-50.7
	c-3.2,0-6.1,1.9-7.3,4.8L285.4,439.7z M340.4,463.7h-8.7l14.1-80h15L340.4,463.7z M441.6,463.7h-8.7l-20-80h5.8
	c3.1,0,6.1-0.2,9.1-0.7L441.6,463.7z M466.7,319.7c0,26.5-21.5,48-48,48H340c3.4-9.6,12.5-16,22.6-16h48c22.1,0,40-17.9,40-40v-88
	c0-10.2,6.4-19.2,16-22.6V319.7z"/>
<rect x="242.7" y="39.7" class="st0" width="16" height="16"/>
<rect x="274.7" y="39.7" class="st0" width="64" height="16"/>
<rect x="210.7" y="71.7" class="st0" width="72" height="16"/>
<rect x="298.7" y="71.7" class="st0" width="40" height="16"/>
<rect x="210.7" y="103.7" class="st0" width="32" height="16"/>
<rect x="258.7" y="103.7" class="st0" width="80" height="16"/>
</svg>
