<?xml version="1.0" encoding="utf-8"?>
<!-- Generator: Adobe Illustrator 22.0.1, SVG Export Plug-In . SVG Version: 6.00 Build 0)  -->
<svg version="1.1" id="Layer_1" xmlns="http://www.w3.org/2000/svg" xmlns:xlink="http://www.w3.org/1999/xlink" x="0px" y="0px"
	 viewBox="0 0 512 512" style="enable-background:new 0 0 512 512;" xml:space="preserve">
<style type="text/css">
	.st0{fill:#DFA729;}
	.st1{fill:#453933;}
</style>
<path class="st0" d="M496,8H16c-4.4,0-8,3.6-8,8c0,2.1,0.8,4.2,2.3,5.7l480,480c3.1,3.1,8.2,3.1,11.3,0c1.5-1.5,2.3-3.5,2.3-5.7V16
	C504,11.6,500.4,8,496,8z M488,476.7L35.3,24H64v8c0,4.4,3.6,8,8,8s8-3.6,8-8v-8h24v16c0,4.4,3.6,8,8,8s8-3.6,8-8V24h24v8
	c0,4.4,3.6,8,8,8s8-3.6,8-8v-8h24v16c0,4.4,3.6,8,8,8s8-3.6,8-8V24h24v8c0,4.4,3.6,8,8,8s8-3.6,8-8v-8h24v16c0,4.4,3.6,8,8,8
	s8-3.6,8-8V24h24v8c0,4.4,3.6,8,8,8c4.4,0,8-3.6,8-8v-8h24v16c0,4.4,3.6,8,8,8s8-3.6,8-8V24h24v8c0,4.4,3.6,8,8,8s8-3.6,8-8v-8h24
	v16c0,4.4,3.6,8,8,8s8-3.6,8-8V24h48v48h-16c-4.4,0-8,3.6-8,8c0,4.4,3.6,8,8,8h16v24h-8c-4.4,0-8,3.6-8,8c0,4.4,3.6,8,8,8h8v24h-16
	c-4.4,0-8,3.6-8,8c0,4.4,3.6,8,8,8h16v24h-8c-4.4,0-8,3.6-8,8c0,4.4,3.6,8,8,8h8v24h-16c-4.4,0-8,3.6-8,8c0,4.4,3.6,8,8,8h16v24h-8
	c-4.4,0-8,3.6-8,8c0,4.4,3.6,8,8,8h8v24h-16c-4.4,0-8,3.6-8,8c0,4.4,3.6,8,8,8h16v24h-8c-4.4,0-8,3.6-8,8c0,4.4,3.6,8,8,8h8v24h-16
	c-4.4,0-8,3.6-8,8c0,4.4,3.6,8,8,8h16v24h-8c-4.4,0-8,3.6-8,8c0,4.4,3.6,8,8,8h8V476.7z"/>
<path class="st0" d="M440,112c0-22.1-17.9-40-40-40H239.8c-22.1,0-40,17.9-40,40c0,10.6,4.2,20.8,11.7,28.3l160.2,160.2
	c7.4,7.5,17.5,11.8,28,11.8c5.3,0,10.6-1.1,15.6-3.1c15.1-6,24.9-20.7,24.7-37V112L440,112z M424,272.2c0,13.3-10.8,24-24,24
	c-6.4,0-12.5-2.5-17-7L222.8,129c-9.4-9.4-9.4-24.6,0-33.9c4.5-4.5,10.6-7,17-7H400c13.3,0,24,10.7,24,24V272.2z"/>
<path class="st0" d="M448,392h-8c-4.4,0-8,3.6-8,8c0,4.4,3.6,8,8,8h8c4.4,0,8-3.6,8-8C456,395.6,452.4,392,448,392z"/>
<path class="st1" d="M108.1,151.3c-1-1-2.2-1.7-3.5-2l-79.2-22.6c-4.2-1.2-8.7,1.2-9.9,5.5c-0.4,1.4-0.4,3,0,4.4l22.6,79.2
	c0.4,1.3,1.1,2.5,2,3.5L306.1,485c15.6,15.6,40.9,15.6,56.6,0l11.3-11.3c15.6-15.6,15.6-40.9,0-56.6L108.1,151.3z M300.4,456.7
	l-5.7-5.7l45.3-45.3l5.7,5.7L300.4,456.7z M49.8,198.2l-5.1-17.9c0.4-0.2,0.8-0.5,1.2-0.8l22.6-22.6c0.3-0.4,0.6-0.8,0.8-1.2
	l17.9,5.1L49.8,198.2z M52,150.8L39.8,163l-4.9-17.1L52,150.8z M204.3,360.6L57.2,213.5l45.3-45.3l226.3,226.3l-45.3,45.3
	L204.3,360.6L204.3,360.6L204.3,360.6z M362.7,462.4l-11.3,11.3c-9.4,9.4-24.6,9.4-33.9,0l-5.7-5.7l45.3-45.3l5.7,5.7
	C372,437.8,372,453,362.7,462.4L362.7,462.4z"/>
<path class="st1" d="M99.1,198.9c-3.1-3.2-8.1-3.3-11.3-0.2c-3.2,3.1-3.3,8.1-0.2,11.3c0.1,0.1,0.1,0.1,0.2,0.2l171,171
	c3.2,3.1,8.2,3,11.3-0.2c3-3.1,3-8,0-11.1L99.1,198.9z"/>
<path class="st1" d="M289.1,411.5c3.1,3.2,8.1,3.3,11.3,0.2c3.2-3.1,3.3-8.1,0.2-11.3c-0.1-0.1-0.1-0.1-0.2-0.2l-5.7-5.7
	c-3.1-3.2-8.1-3.3-11.3-0.2c-3.2,3.1-3.3,8.1-0.2,11.3c0.1,0.1,0.1,0.1,0.2,0.2L289.1,411.5z"/>
</svg>
