<?xml version="1.0" encoding="utf-8"?>
<!-- Generator: Adobe Illustrator 22.0.1, SVG Export Plug-In . SVG Version: 6.00 Build 0)  -->
<svg version="1.1" id="Layer_1" xmlns="http://www.w3.org/2000/svg" xmlns:xlink="http://www.w3.org/1999/xlink" x="0px" y="0px"
	 viewBox="121 0 599.9 595.3" style="enable-background:new 121 0 599.9 595.3;" xml:space="preserve">
<style type="text/css">
	.st0{fill:#453933;}
	.st1{fill:#DFA729;}
</style>
<path class="st0" d="M590.6,309.2c6.4,0,11.6-5.2,11.6-11.6c0-6.4-5.2-11.6-11.6-11.6c-6.4,0-11.6,5.2-11.6,11.6
	C579,304,584.2,309.2,590.6,309.2z"/>
<path class="st1" d="M711.4,296.3c11.8-19.2,8.4-50.5-7.1-65.8l-22.6-22.3c-5.1-5-7.7-11.9-7.2-19.1l2.3-31.9
	c1.6-22.3-12.3-42.5-33.7-48.9l-30-9c-6.9-2.1-12.4-7-15.3-13.6l-12.5-28.9c-8.8-20.4-31-32-52.8-27.8l-30.4,6
	c-8,1.6-22.1-1-26.9-4.9l-24.2-19.6c-17.3-14-42.5-14-59.8,0L366.8,30c-4.8,3.9-18.9,6.5-26.9,4.9l-30.4-6
	c-21.8-4.3-44,7.4-52.8,27.8l-12.5,29c-2.9,6.6-8.4,11.5-15.3,13.6l-30,9c-21.5,6.5-35.3,26.6-33.7,48.9l2.3,31.9
	c0.5,7.1-2.1,14.1-7.2,19.1l-22.6,22.3c-15.4,15.2-18.9,46.1-7.5,65.3l16.5,33.7c0.2,0.3,0.3,0.7,0.5,1c3.7,6.1,4.6,13.4,2.4,20.2
	l-9.8,30.5c-6.8,21.3,1.8,44.1,21,55.5l27.1,16.1c6.1,3.6,10.4,9.8,11.6,16.8l5.3,31.3c3.8,22.2,22.1,38.4,44.5,39.5l31.1,1.5
	c7.2,0.4,13.8,3.8,18.2,9.6l19,24.9c9,11.9,26.5,18.8,43.3,18.8c7.6,0,15.2-1.4,21.7-4.5l28.1-13.1c6.5-3.1,14-3.1,20.6,0l28.1,13.1
	c20.9,9.8,51.9,2.9,65-14.3l18.9-24.9c4.4-5.7,11-9.2,18.2-9.6l31.1-1.5c22.4-1.1,40.8-17.4,44.5-39.5l5.3-31.3
	c1.2-7.1,5.4-13.2,11.6-16.8l27.1-16.1c19.2-11.4,27.8-34.2,21-55.5l-9.8-30.5c-2.3-7.2-1.1-21.5,2.4-27.1L711.4,296.3z
	 M674.9,311.4c-7.8,12.6-8.7,34.2-4.8,46.5l9.8,30.5c3.5,10.9-0.9,22.5-10.7,28.4L642,432.8c-12,7.1-20.3,19.1-22.6,32.9l-5.3,31.3
	c-1.9,11.3-11.3,19.6-22.8,20.2l-31.1,1.5c-14.1,0.7-27,7.5-35.5,18.7l-18.9,24.9c-6.5,8.6-25.7,12.4-36.6,7.3L441,556.6
	c-12.8-6-27.5-6-40.3,0l-28.1,13.1c-10.9,5.1-30.1,1.3-36.6-7.3l-19-24.9c-8.5-11.2-21.5-18-35.5-18.7l-31.1-1.5
	c-11.5-0.6-20.8-8.9-22.8-20.2l-5.3-31.3c-2.4-13.8-10.6-25.8-22.6-32.9l-27.1-16.1c-9.8-5.8-14.2-17.5-10.7-28.4l9.8-30.5
	c4.2-13,2.6-27.2-4.5-39l-16.5-33.7c-0.2-0.3-0.3-0.7-0.5-1c-6.1-9.9-4.2-29.3,3.7-37.1l22.6-22.3c9.9-9.8,15.1-23.4,14.1-37.3
	l-2.3-31.9c-0.8-11.4,6.3-21.7,17.2-25l30-9c13.4-4.1,24.3-13.8,29.9-26.6l12.5-29c4.5-10.4,15.9-16.4,27-14.2l30.4,6
	c13.2,2.6,34.5-0.4,46-9.7l24.2-19.6c8.9-7.1,21.7-7.1,30.6,0l24.2,19.6c11.5,9.3,32.8,12.2,46,9.7l30.4-6
	c11.2-2.2,22.5,3.8,27,14.2L576.4,95c5.6,12.9,16.5,22.6,29.9,26.6l30,9c11,3.3,18.1,13.6,17.2,25l-2.3,31.9
	c-1,13.9,4.1,27.5,14.1,37.3l22.6,22.3c7.9,7.7,9.8,27.1,3.7,37.1L674.9,311.4z"/>
<path class="st0" d="M420.9,69.7C299.3,69.7,193,182.5,193,304.6c0,123.7,108.1,220.9,227.9,220.9c121.5,0,227.9-106,227.9-227.9
	C648.8,176.1,542.8,69.7,420.9,69.7z M420.9,502.3c-110.9,0-204.7-90.5-204.7-197.7C216.2,193.8,313.8,93,420.9,93
	c109,0,204.6,95.6,204.6,204.6S529.9,502.3,420.9,502.3z"/>
<path class="st0" d="M420.9,455.7c-6.4,0-11.6,5.2-11.6,11.6c0,6.4,5.2,11.6,11.6,11.6c78.3,0,152.7-59,174.3-132.1
	c1.8-6.2-1.7-12.6-7.9-14.4c-6.2-1.8-12.6,1.7-14.4,7.9C553.7,405.1,487,455.7,420.9,455.7z"/>
<path class="st1" d="M374.3,286c19.2,0,34.9-15.7,34.9-34.9c0-19.2-15.6-34.9-34.9-34.9c-19.2,0-34.9,15.7-34.9,34.9
	C339.5,270.3,355.1,286,374.3,286z M374.3,239.5c6.4,0,11.6,5.2,11.6,11.6c0,6.4-5.2,11.6-11.6,11.6c-6.4,0-11.6-5.2-11.6-11.6
	C362.7,244.7,367.9,239.5,374.3,239.5z"/>
<path class="st1" d="M467.4,309.2c-19.2,0-34.9,15.7-34.9,34.9s15.6,34.9,34.9,34.9c19.2,0,34.9-15.7,34.9-34.9
	S486.6,309.2,467.4,309.2z M467.4,355.7c-6.4,0-11.6-5.2-11.6-11.6s5.2-11.6,11.6-11.6c6.4,0,11.6,5.2,11.6,11.6
	S473.8,355.7,467.4,355.7z"/>
<path class="st1" d="M498.9,219.6c-4.5-4.5-11.9-4.5-16.4,0L342.9,359.1c-4.5,4.5-4.5,11.9,0,16.4c4.5,4.5,11.9,4.5,16.4,0
	l139.5-139.5C503.4,231.5,503.4,224.2,498.9,219.6z"/>
</svg>
