<?xml version="1.0" encoding="utf-8"?>
<!-- Generator: Adobe Illustrator 22.0.1, SVG Export Plug-In . SVG Version: 6.00 Build 0)  -->
<svg version="1.1" id="Layer_1" xmlns="http://www.w3.org/2000/svg" xmlns:xlink="http://www.w3.org/1999/xlink" x="0px" y="0px"
	 viewBox="0 0 511 430.4" style="enable-background:new 0 0 511 430.4;" xml:space="preserve">
<style type="text/css">
	.st0{fill:#453933;}
	.st1{fill:#DFA729;}
</style>
<path class="st0" d="M268.8,215.8c-1.7,0-3.4-0.4-4.9-1.3c-3.1-1.8-5-5.1-5-8.7v-20.6H236c-21.7,0-39.3-17.6-39.3-39.3V40.2
	c0-21.7,17.6-39.3,39.3-39.3h235.7c21.7,0,39.3,17.6,39.3,39.3v105.6c0,21.7-17.6,39.3-39.3,39.3H323.4l-49.5,29.2
	C272.3,215.3,270.5,215.8,268.8,215.8z M236,20.9c-10.7,0-19.4,8.7-19.4,19.4v105.6c0,10.7,8.7,19.4,19.4,19.4h32.8
	c5.5,0,10,4.5,10,10v13.1l36.8-21.7c1.5-0.9,3.3-1.4,5.1-1.4h151c10.7,0,19.4-8.7,19.4-19.4V40.2c0-10.7-8.7-19.4-19.4-19.4H236z"/>
<path class="st0" d="M277.6,55.1c11.6,0,23.4,7.3,23.4,20.8c0,21.8-31,28.9-31,38v0.9h26.3c2.5,0,4.7,3.1,4.7,6.7
	c0,3.6-2.2,6.9-4.7,6.9h-35.7c-2.8,0-6.8-1.9-6.8-4.8v-9.7c0-15.8,31.6-24.8,31.6-37.5c0-3.2-2-7.1-7.6-7.1c-4,0-7.5,2-7.5,7.5
	c0,2.9-3.1,5.7-8.2,5.7c-4,0-7-1.8-7-8.1C254.9,62.2,266.2,55.1,277.6,55.1z"/>
<path class="st0" d="M329.8,113h-23.5c-2.9,0-5.2-1.9-5.2-5.4c0-0.8,0.2-1.9,0.8-3L325,59.2c1.5-2.9,4-4,6.5-4
	c2.7,0,7.8,2.3,7.8,5.9c0,0.6-0.2,1.2-0.5,1.9l-17.8,35.6h8.6v-7c0-3.3,3.9-4.7,7.8-4.7c3.9,0,7.8,1.4,7.8,4.7v7h4.3
	c3.2,0,4.8,3.6,4.8,7.2c0,3.6-2.4,7.2-4.8,7.2h-4.3v10.6c0,3.2-3.9,4.8-7.8,4.8c-3.9,0-7.8-1.6-7.8-4.8V113z"/>
<path class="st0" d="M401.8,56.4c0,0.6-0.1,1.3-0.4,1.9l-35.3,72.3c-0.7,1.5-2.6,2.5-4.5,2.5c-3.4,0-5.6-2.8-5.6-5.3
	c0-0.6,0.2-1.3,0.5-1.9l35.2-72.3c0.8-1.7,2.4-2.5,4.2-2.5C398.7,51,401.8,53.1,401.8,56.4z"/>
<path class="st0" d="M454,72.5c0,2.6-1.6,6.5-3.2,9.5L427.3,127c-0.8,1.5-2.3,2.1-4.4,2.1c-4.9,0-9.9-3.4-9.9-7.9
	c0-0.9,0.2-1.7,0.7-2.6l24.7-42.7v-7h-18v6.7c0,2.7-3.8,4.8-7.9,4.8c-4.2,0-7.7-2.1-7.7-4.8V60c0-2.4,3.4-4.8,6.8-4.8h35.6
	c3,0,6.8,2.4,6.8,4.8V72.5z"/>
<path class="st1" d="M129.2,307.9c-4.1,0-7.9-2.6-9.3-6.5c-1.5-3.9-0.3-8.6,3-11.2c3.2-2.6,7.9-3,11.5-0.8c3.6,2.1,5.5,6.4,4.7,10.5
	C138.1,304.4,134,307.9,129.2,307.9z"/>
<path class="st1" d="M300,427.4c-16.5,0-34.9-4.2-55.2-12.7c-9-3.8-22.4-13-41-28.2c-0.3-0.2-0.5-0.4-0.7-0.7l-49-49
	c-3.9-3.9-3.9-10.2,0-14.1c3.9-3.9,10.2-3.9,14.1,0l48.6,48.6c21.8,17.8,31.7,23.3,35.7,24.9c39.4,16.5,68.3,14.8,88.2-5.1
	l34.7-34.7l-73-73c-5.7-5.7-13.2-8.8-21.2-8.8c-8,0-15.6,3.1-21.2,8.8l-17.4,17.4c-8.4,8.4-21.7,9.1-30.9,1.7
	c-15-12.1-23.8-19.4-45.6-41.1c-21.7-21.8-29-30.6-41.1-45.6c-7.4-9.2-6.7-22.5,1.7-30.9l17.4-17.4c5.7-5.7,8.8-13.2,8.8-21.2
	c0-8-3.1-15.6-8.8-21.2l-73-73L36.2,86.7c-19.9,19.9-21.6,48.8-5.1,88.2c1.6,3.8,5.8,11.3,17.1,25.9L68.5,223l36.2,36.2
	c3.9,3.9,3.9,10.2,0,14.1c-3.9,3.9-10.2,3.9-14.1,0l-36.4-36.4c-0.1-0.1-0.2-0.2-0.3-0.3L33.3,214c-0.2-0.2-0.3-0.4-0.5-0.6
	c-10.4-13.5-17-23.5-20-30.8C-7,135.5-3.8,98.5,22.1,72.6l41.8-41.8c3.9-3.9,10.2-3.9,14.1,0l80.1,80.1c9.4,9.4,14.6,22,14.6,35.3
	c0,13.4-5.2,25.9-14.6,35.3L140.7,199c-1.2,1.2-1.3,3-0.3,4.3c11.6,14.5,18.7,23,39.7,44c21,20.9,29.5,28,44,39.6
	c1.3,1,3.1,0.9,4.3-0.3l17.4-17.4c9.4-9.4,22-14.6,35.3-14.6c13.3,0,25.9,5.2,35.3,14.6l80.1,80.1c1.9,1.9,2.9,4.4,2.9,7.1
	c0,2.6-1.1,5.2-2.9,7.1l-41.8,41.8C340.1,420,321.7,427.4,300,427.4z"/>
</svg>
