<svg 
 xmlns="http://www.w3.org/2000/svg"
 xmlns:xlink="http://www.w3.org/1999/xlink"
 width="12px" height="12px">
<path fill-rule="evenodd"  fill="rgb(54, 42, 36)"
 d="M11.000,1.998 L1.000,1.998 C0.448,1.998 -0.000,1.550 -0.000,0.999 C-0.000,0.447 0.448,-0.002 1.000,-0.002 L11.000,-0.002 C11.552,-0.002 12.000,0.447 12.000,0.999 C12.000,1.550 11.552,1.998 11.000,1.998 ZM1.000,4.999 L9.000,4.999 C9.552,4.999 10.000,5.446 10.000,5.999 C10.000,6.551 9.552,6.998 9.000,6.998 L1.000,6.998 C0.448,6.998 -0.000,6.551 -0.000,5.999 C-0.000,5.446 0.448,4.999 1.000,4.999 ZM1.000,9.998 L11.000,9.998 C11.552,9.998 12.000,10.447 12.000,10.999 C12.000,11.551 11.552,11.999 11.000,11.999 L1.000,11.999 C0.448,11.999 -0.000,11.551 -0.000,10.999 C-0.000,10.447 0.448,9.998 1.000,9.998 Z"/>
</svg>