<svg height="512pt" viewBox="0 0 512 512" width="512pt" xmlns="http://www.w3.org/2000/svg"><path d="m112.46875 95.332031v-95.332031h-1.070312c-3.976563 0-7.792969 1.582031-10.605469 4.394531l-96.398438 96.398438c-2.8125 2.8125-4.394531 6.628906-4.394531 10.605469v1.070312h95.332031c9.449219 0 17.136719-7.6875 17.136719-17.136719zm0 0"/><path d="m223.429688 408.851562c-18.640626-37.292968-28.5-79.03125-28.5-120.722656v-80.328125c0-18.652343 11.742187-35.589843 29.199218-42.128906l128.542969-48.203125c9.90625-3.730469 20.828125-3.828125 30.796875-.289062v-70.050782c0-25.910156-20.957031-47.128906-47.140625-47.128906h-193.859375v95.328125c0 25.992187-21.148438 47.140625-47.140625 47.140625h-95.328125v322.402344c0 25.988281 21.140625 47.128906 47.128906 47.128906h266.300782c-3.167969-2.390625-6.648438-5.019531-10.519532-7.921875-33.351562-25.007813-60.839844-57.9375-79.480468-95.226563zm-128.097657-216.050781h54.59375c8.285157 0 15 6.714844 15 15 0 8.285157-6.714843 15-15 15h-54.59375c-8.28125 0-15-6.714843-15-15 0-8.285156 6.71875-15 15-15zm0 64.265625h54.59375c8.285157 0 15 6.714844 15 15s-6.714843 15-15 15h-54.59375c-8.28125 0-15-6.714844-15-15s6.71875-15 15-15zm0 64.265625h54.59375c8.285157 0 15 6.71875 15 15 0 8.285157-6.714843 15-15 15h-54.59375c-8.28125 0-15-6.714843-15-15 0-8.28125 6.71875-15 15-15zm80.335938 94.269531h-80.335938c-8.28125 0-15-6.71875-15-15 0-8.285156 6.71875-15 15-15h80.332031c8.285157 0 15 6.714844 15 15 0 8.28125-6.714843 15-14.996093 15zm0 0"/><path d="m299.933594 249.378906v38.753906c0 25.472657 6.019531 50.976563 17.410156 73.761719 11.394531 22.78125 28.183594 42.902344 48.5625 58.183594.871094.652344 1.726562 1.292969 2.5625 1.921875.832031-.625 1.6875-1.265625 2.558594-1.921875 20.378906-15.28125 37.171875-35.402344 48.5625-58.183594s17.410156-48.289062 17.410156-73.761719v-38.753906l-68.53125-25.699218zm0 0"/><path d="m502.265625 193.753906-128.53125-48.199218c-3.394531-1.273438-7.140625-1.273438-10.535156 0l-128.535157 48.199218c-5.851562 2.195313-9.730468 7.792969-9.730468 14.046875v80.332031c0 37.054688 8.757812 74.160157 25.328125 107.300782 16.570312 33.144531 41 62.414062 70.644531 84.644531 41.699219 31.277344 40.894531 31.921875 47.5625 31.921875 6.664062 0 5.863281-.648438 47.558594-31.921875 29.644531-22.230469 54.074218-51.503906 70.644531-84.644531 16.570313-33.144532 25.328125-70.246094 25.328125-107.300782v-80.332031c0-6.253906-3.878906-11.851562-9.734375-14.046875zm-35.265625 94.378906c0 30.105469-7.117188 60.25-20.578125 87.175782-13.460937 26.925781-33.308594 50.707031-57.394531 68.769531-4.261719 3.199219-8.085938 6.078125-11.519532 8.671875-2.675781 2.019531-5.859374 3.03125-9.042968 3.03125s-6.363282-1.011719-9.039063-3.03125c-3.4375-2.59375-7.257812-5.472656-11.523437-8.671875-24.082032-18.0625-43.925782-41.839844-57.390625-68.769531-13.464844-26.925782-20.578125-57.070313-20.578125-87.175782v-49.148437c0-6.253906 3.875-11.847656 9.730468-14.042969l83.535157-31.328125c3.394531-1.273437 7.136719-1.269531 10.53125 0l83.535156 31.328125c5.855469 2.195313 9.730469 7.789063 9.730469 14.042969v49.148437zm0 0"/></svg>