<?xml version="1.0" encoding="utf-8"?>
<!-- Generator: Adobe Illustrator 22.0.1, SVG Export Plug-In . SVG Version: 6.00 Build 0)  -->
<svg version="1.1" id="Layer_1" xmlns="http://www.w3.org/2000/svg" xmlns:xlink="http://www.w3.org/1999/xlink" x="0px" y="0px"
	 viewBox="0 0 512 475.8" style="enable-background:new 0 0 512 475.8;" xml:space="preserve">
<g>
	<g>
		<path d="M214.7,382.7c-24.8,0-45,20.2-45,45c0,24.8,20.2,45,45,45s45-20.2,45-45C259.7,402.9,239.5,382.7,214.7,382.7z
			 M214.7,447.6c-11,0-19.9-8.9-19.9-19.9c0-11,8.9-19.9,19.9-19.9s19.9,8.9,19.9,19.9C234.6,438.7,225.6,447.6,214.7,447.6z"/>
	</g>
</g>
<g>
	<g>
		<path d="M372.6,382.7c-24.8,0-45,20.2-45,45c0,24.8,20.2,45,45,45s45-20.2,45-45C417.7,402.9,397.5,382.7,372.6,382.7z
			 M372.6,447.6c-11,0-19.9-8.9-19.9-19.9c0-11,8.9-19.9,19.9-19.9c11,0,19.9,8.9,19.9,19.9C392.5,438.7,383.6,447.6,372.6,447.6z"
			/>
	</g>
</g>
<g>
	<g>
		<path d="M383.7,145.6H203.6c-6.9,0-12.6,5.6-12.6,12.6s5.6,12.6,12.6,12.6h180.1c6.9,0,12.6-5.6,12.6-12.6
			C396.3,151.3,390.7,145.6,383.7,145.6z"/>
	</g>
</g>
<g>
	<g>
		<path d="M373.9,210.9H213.4c-6.9,0-12.6,5.6-12.6,12.6s5.6,12.6,12.6,12.6h160.5c6.9,0,12.6-5.6,12.6-12.6
			C386.5,216.6,380.9,210.9,373.9,210.9z"/>
	</g>
</g>
<g>
	<g>
		<path d="M506.3,89.6c-4.8-5.9-11.9-9.3-19.5-9.3H95.3L87.4,42c-1.7-8-7.1-14.7-14.6-18L17.6,0C11.2-2.7,3.8,0.2,1,6.6
			c-2.8,6.4,0.2,13.8,6.5,16.5l55.2,24l60.8,295.3c2.4,11.6,12.8,20.1,24.6,20.1h301.2c6.9,0,12.6-5.6,12.6-12.6
			c0-6.9-5.6-12.6-12.6-12.6H148.2l-7.4-35.9h310.9c11.9,0,22.2-8.4,24.6-20.1l35.2-170.7C513,103.2,511.1,95.5,506.3,89.6z
			 M451.7,276.2H135.6l-35.2-170.7l386.4,0L451.7,276.2z"/>
	</g>
</g>
</svg>
