<?xml version="1.0" encoding="utf-8"?>
<!-- Generator: Adobe Illustrator 16.0.0, SVG Export Plug-In . SVG Version: 6.00 Build 0)  -->
<!DOCTYPE svg PUBLIC "-//W3C//DTD SVG 1.1//EN" "http://www.w3.org/Graphics/SVG/1.1/DTD/svg11.dtd">
<svg version="1.1" id="Capa_1" xmlns="http://www.w3.org/2000/svg" xmlns:xlink="http://www.w3.org/1999/xlink" x="0px" y="0px"
	 width="2000px" height="2000px" viewBox="0 0 2000 2000" enable-background="new 0 0 2000 2000" xml:space="preserve">
<g>
	<g>
		<path d="M1956.522,0H304.348H43.478C19.478,0,0,19.479,0,43.479v260.869v1652.174c0,24,19.478,43.479,43.478,43.479h260.87
			c24,0,43.478-19.479,43.478-43.479v-43.478h1260.87l304.348,0.001V347.826h43.479c24,0,43.479-19.479,43.479-43.479V43.479
			C2000,19.479,1980.522,0,1956.522,0z M260.869,1913.044H86.956V347.826h173.913V1913.044z M260.869,260.87H86.956V86.957h173.913
			V260.87z M1826.086,1826.05l-347.826,0.037H347.825v-782.608h217.392c24,0,43.479-19.479,43.479-43.479
			s-19.479-43.479-43.479-43.479H347.825V347.826h608.696v217.392c0,24,19.479,43.478,43.479,43.478s43.478-19.478,43.478-43.478
			V347.826h782.608V1826.05z M1913.043,260.87H347.825V86.957h1565.218V260.87z"/>
	</g>
</g>
<g>
	<g>
		<path d="M1000,782.608c-24,0-43.479,19.479-43.479,43.479v130.435H826.086c-24,0-43.478,19.479-43.478,43.479
			s19.478,43.479,43.478,43.479H1000c24,0,43.478-19.479,43.478-43.479V826.087C1043.478,802.087,1024,782.608,1000,782.608z"/>
	</g>
</g>
</svg>
