<svg id="Layer_1" enable-background="new 0 0 512 512" height="512" viewBox="0 0 512 512" width="512" xmlns="http://www.w3.org/2000/svg"><path d="m479.866 94.267h17.134c8.284 0 15-6.716 15-15v-64.267c0-8.284-6.716-15-15-15h-482c-8.284 0-15 6.716-15 15v64.267c0 8.284 6.716 15 15 15h17.133v323.467h-17.133c-8.284 0-15 6.716-15 15v64.266c0 8.284 6.716 15 15 15h482c8.284 0 15-6.716 15-15v-64.267c0-8.284-6.716-15-15-15h-17.134zm2.134 353.466v34.267h-452v-34.267zm-66.4-94.266v-65.333c0-88.14-71.326-159.6-159.6-159.6-88.004 0-159.6 71.596-159.6 159.6v65.333h-34.267v-259.2h387.733v259.2zm34.266 30v34.267h-34.266v-34.267zm-141.743-141.348c-20.861-27.536-41.604-45.072-42.476-45.805-5.579-4.685-13.717-4.685-19.294 0-.873.733-21.614 18.269-42.476 45.805-28.672 37.846-43.21 74.95-43.21 110.281 0 25.262 9.88 48.257 25.975 65.333h-60.242v-129.6c0-71.462 58.138-129.6 129.6-129.6 72.894 0 129.6 59.408 129.6 129.6v129.6h-60.241c16.094-17.077 25.975-40.072 25.975-65.333-.001-35.331-14.539-72.435-43.211-110.281zm-43.034 51.819c-5.369-4.09-12.809-4.09-18.178 0-2.025 1.542-45.767 35.337-53.074 78.543-2.05-6.331-3.171-13.077-3.171-20.082 0-53.847 45.094-104.237 65.349-124.151 20.26 19.868 65.318 70.13 65.318 124.151 0 7.005-1.121 13.75-3.171 20.081-7.307-43.204-51.049-77-53.073-78.542zm24.111 90.595c0 18.307-14.894 33.2-33.2 33.2s-33.2-14.894-33.2-33.2c0-22.41 19.369-45.733 33.2-58.86 13.832 13.127 33.2 36.451 33.2 58.86zm-192.8-1.066v34.267h-34.267v-34.267zm-66.4-319.2v-34.267h452v34.267z"/></svg>