<?xml version="1.0" encoding="utf-8"?>
<!-- Generator: Adobe Illustrator 16.0.0, SVG Export Plug-In . SVG Version: 6.00 Build 0)  -->
<!DOCTYPE svg PUBLIC "-//W3C//DTD SVG 1.1//EN" "http://www.w3.org/Graphics/SVG/1.1/DTD/svg11.dtd">
<svg version="1.1" xmlns="http://www.w3.org/2000/svg" xmlns:xlink="http://www.w3.org/1999/xlink" x="0px" y="0px" width="500px"
	 height="500px" viewBox="0 0 500 500" enable-background="new 0 0 500 500" xml:space="preserve">
<g id="Layer_3">
	<path fill="#201600" d="M178.418,144.712c-0.002-0.019-0.002-0.038-0.003-0.056c-0.036-0.347-0.089-0.694-0.158-1.038
		c-0.028-0.138-0.07-0.271-0.104-0.407c-0.049-0.201-0.094-0.403-0.155-0.602c-0.053-0.172-0.121-0.338-0.183-0.507
		c-0.058-0.158-0.107-0.317-0.173-0.473c-0.085-0.203-0.186-0.397-0.284-0.594c-0.057-0.115-0.105-0.231-0.167-0.345
		c-0.167-0.309-0.349-0.609-0.545-0.899c-0.007-0.011-0.016-0.021-0.024-0.032c-0.191-0.281-0.396-0.552-0.612-0.813
		c-0.008-0.009-0.013-0.018-0.021-0.027L63.018,3.873c0-0.001-0.001-0.001-0.002-0.002l-0.048-0.058
		c-0.072-0.085-0.15-0.159-0.224-0.241c-0.151-0.17-0.301-0.341-0.463-0.5c-0.127-0.126-0.26-0.239-0.393-0.357
		c-0.125-0.112-0.247-0.226-0.376-0.332c-0.152-0.124-0.311-0.236-0.468-0.35c-0.122-0.088-0.241-0.18-0.367-0.263
		c-0.159-0.106-0.324-0.201-0.488-0.297c-0.136-0.08-0.271-0.163-0.41-0.237c-0.154-0.082-0.313-0.153-0.47-0.227
		c-0.159-0.074-0.316-0.15-0.479-0.217c-0.146-0.059-0.293-0.108-0.441-0.162c-0.18-0.064-0.36-0.129-0.544-0.185
		c-0.144-0.042-0.289-0.076-0.434-0.112c-0.189-0.048-0.378-0.097-0.571-0.135c-0.163-0.032-0.326-0.051-0.49-0.075
		c-0.177-0.026-0.354-0.056-0.533-0.073c-0.219-0.021-0.438-0.026-0.659-0.033C55.04,0.014,54.926,0,54.808,0h-44.17
		c-0.008,0-0.016,0.001-0.024,0.001c-0.351,0.001-0.703,0.018-1.052,0.054c-0.099,0.01-0.194,0.031-0.292,0.043
		C9.021,0.129,8.773,0.162,8.528,0.211c-0.164,0.033-0.322,0.081-0.482,0.12C7.869,0.375,7.692,0.414,7.518,0.467
		C7.341,0.521,7.171,0.589,6.999,0.652c-0.154,0.057-0.31,0.105-0.461,0.169C6.348,0.9,6.167,0.994,5.983,1.083
		C5.854,1.146,5.724,1.202,5.597,1.27C5.343,1.406,5.1,1.558,4.859,1.714C4.808,1.747,4.753,1.775,4.702,1.81
		C4.407,2.008,4.125,2.221,3.853,2.447C3.847,2.451,3.84,2.455,3.835,2.459C3.759,2.523,3.692,2.594,3.617,2.66
		C3.435,2.821,3.252,2.98,3.082,3.153C2.955,3.281,2.84,3.417,2.72,3.551C2.61,3.674,2.497,3.794,2.392,3.921
		c-0.126,0.155-0.24,0.317-0.357,0.477C1.948,4.518,1.858,4.634,1.777,4.756C1.67,4.917,1.575,5.082,1.478,5.247
		C1.399,5.383,1.315,5.515,1.242,5.654C1.16,5.808,1.09,5.965,1.016,6.122c-0.074,0.159-0.151,0.317-0.219,0.48
		c-0.059,0.144-0.108,0.291-0.16,0.437C0.572,7.22,0.505,7.4,0.45,7.586C0.407,7.729,0.375,7.872,0.339,8.015
		C0.291,8.207,0.24,8.397,0.201,8.592C0.169,8.755,0.15,8.921,0.126,9.085C0.1,9.261,0.068,9.436,0.051,9.615
		c-0.023,0.243-0.03,0.487-0.037,0.731C0.012,10.445,0,10.54,0,10.638v0.043c0,0.002,0,0.004,0,0.006v346.165
		c0,0.022,0.003,0.043,0.003,0.065c0.001,0.238,0.019,0.475,0.036,0.711c0.008,0.116,0.009,0.232,0.021,0.348
		c0.025,0.239,0.067,0.476,0.108,0.712c0.019,0.108,0.03,0.219,0.052,0.326c0.048,0.231,0.114,0.46,0.177,0.688
		c0.029,0.105,0.051,0.216,0.083,0.32c0.06,0.193,0.137,0.38,0.208,0.567c0.051,0.137,0.094,0.275,0.15,0.408
		c0.056,0.132,0.126,0.261,0.189,0.391c0.086,0.184,0.168,0.371,0.265,0.547c0.06,0.11,0.132,0.216,0.196,0.324
		c0.115,0.193,0.227,0.387,0.353,0.571c0.07,0.104,0.151,0.202,0.226,0.304c0.134,0.184,0.268,0.365,0.413,0.54
		c0.016,0.019,0.028,0.037,0.044,0.057l112.373,132.511c0.063,0.073,0.132,0.133,0.195,0.204c0.169,0.188,0.341,0.376,0.523,0.552
		c0.115,0.112,0.234,0.217,0.353,0.32c0.154,0.138,0.311,0.271,0.472,0.399c0.135,0.105,0.273,0.207,0.413,0.308
		c0.159,0.114,0.321,0.22,0.486,0.323c0.144,0.092,0.288,0.182,0.434,0.265c0.18,0.102,0.364,0.195,0.55,0.287
		c0.137,0.065,0.273,0.137,0.413,0.198c0.216,0.096,0.439,0.177,0.664,0.259c0.115,0.041,0.228,0.089,0.344,0.126
		c0.268,0.086,0.542,0.156,0.819,0.223c0.08,0.019,0.157,0.044,0.236,0.061c0.322,0.067,0.65,0.118,0.983,0.155
		c0.038,0.006,0.075,0.015,0.112,0.019c0.368,0.038,0.739,0.059,1.116,0.059h44.82c5.876,0,10.639-4.763,10.639-10.639V145.746
		c0-0.011-0.001-0.022-0.001-0.034C178.467,145.378,178.45,145.045,178.418,144.712z M21.277,40.065l91.096,109.527v310.775
		L21.277,352.947V40.065z"/>
	<path fill="#201600" d="M418.469,145.712c-0.002-0.333-0.02-0.667-0.051-1c-0.002-0.019-0.002-0.038-0.004-0.056
		c-0.035-0.347-0.088-0.694-0.158-1.038c-0.027-0.138-0.068-0.271-0.104-0.407c-0.049-0.201-0.094-0.403-0.154-0.602
		c-0.053-0.172-0.121-0.338-0.182-0.507c-0.059-0.158-0.107-0.317-0.174-0.473c-0.086-0.203-0.186-0.397-0.283-0.594
		c-0.057-0.115-0.105-0.231-0.166-0.345c-0.168-0.309-0.35-0.609-0.545-0.899c-0.008-0.011-0.018-0.021-0.025-0.032
		c-0.189-0.281-0.395-0.552-0.611-0.813c-0.008-0.009-0.014-0.018-0.021-0.027L303.018,3.873c0-0.001,0-0.001-0.002-0.002
		l-0.047-0.058c-0.072-0.085-0.15-0.159-0.225-0.241c-0.15-0.17-0.301-0.341-0.463-0.5c-0.127-0.126-0.26-0.239-0.393-0.357
		c-0.125-0.112-0.246-0.226-0.377-0.332c-0.152-0.124-0.311-0.236-0.467-0.35c-0.123-0.088-0.242-0.18-0.367-0.263
		c-0.16-0.106-0.324-0.201-0.488-0.297c-0.137-0.08-0.271-0.163-0.41-0.237c-0.154-0.082-0.313-0.153-0.471-0.227
		c-0.158-0.074-0.316-0.15-0.479-0.217c-0.146-0.059-0.293-0.108-0.441-0.162c-0.18-0.064-0.359-0.129-0.545-0.185
		c-0.143-0.042-0.289-0.076-0.434-0.112c-0.189-0.048-0.377-0.097-0.57-0.135c-0.163-0.032-0.326-0.051-0.49-0.075
		c-0.178-0.026-0.354-0.056-0.533-0.073c-0.219-0.021-0.438-0.026-0.658-0.033C295.041,0.014,294.926,0,294.809,0h-44.17
		c-0.008,0-0.016,0.001-0.024,0.001c-0.351,0.001-0.702,0.018-1.052,0.054c-0.1,0.01-0.195,0.031-0.293,0.043
		c-0.248,0.032-0.496,0.064-0.741,0.113c-0.163,0.033-0.321,0.081-0.482,0.12c-0.177,0.044-0.354,0.083-0.527,0.136
		c-0.177,0.055-0.347,0.123-0.519,0.186c-0.154,0.057-0.311,0.105-0.462,0.169c-0.189,0.079-0.37,0.172-0.554,0.262
		c-0.129,0.063-0.26,0.118-0.387,0.186c-0.254,0.137-0.497,0.289-0.738,0.445c-0.051,0.033-0.105,0.061-0.157,0.096
		c-0.294,0.198-0.577,0.411-0.849,0.637c-0.006,0.004-0.013,0.008-0.018,0.012c-0.076,0.064-0.143,0.135-0.219,0.201
		c-0.182,0.161-0.364,0.321-0.535,0.493c-0.127,0.128-0.242,0.265-0.361,0.398c-0.109,0.123-0.224,0.243-0.328,0.371
		c-0.127,0.155-0.24,0.317-0.357,0.477c-0.086,0.119-0.176,0.235-0.258,0.358c-0.107,0.16-0.201,0.326-0.299,0.491
		c-0.079,0.136-0.162,0.268-0.236,0.407c-0.082,0.154-0.151,0.311-0.226,0.468c-0.074,0.159-0.151,0.317-0.219,0.48
		c-0.059,0.144-0.108,0.291-0.159,0.437c-0.066,0.181-0.133,0.361-0.188,0.547c-0.042,0.142-0.074,0.286-0.11,0.429
		c-0.049,0.192-0.1,0.382-0.139,0.577c-0.031,0.163-0.051,0.329-0.074,0.493c-0.026,0.176-0.059,0.351-0.075,0.53
		c-0.022,0.243-0.03,0.487-0.037,0.731C240.012,10.445,240,10.54,240,10.638v0.043c0,0.002,0,0.004,0,0.006v61.302l21.277,25.435
		V40.065l91.096,109.527v310.775l-53.903-63.563v32.897l56.429,66.541c0.063,0.073,0.131,0.133,0.195,0.204
		c0.168,0.188,0.34,0.376,0.521,0.552c0.115,0.112,0.234,0.217,0.354,0.32c0.154,0.138,0.311,0.271,0.473,0.399
		c0.135,0.105,0.273,0.207,0.412,0.308c0.16,0.114,0.32,0.22,0.486,0.323c0.145,0.092,0.287,0.182,0.434,0.265
		c0.18,0.102,0.365,0.195,0.551,0.287c0.137,0.065,0.271,0.137,0.412,0.198c0.217,0.096,0.439,0.177,0.664,0.259
		c0.115,0.041,0.229,0.089,0.344,0.126c0.27,0.086,0.543,0.156,0.82,0.223c0.08,0.019,0.156,0.044,0.236,0.061
		c0.322,0.067,0.65,0.118,0.982,0.155c0.037,0.006,0.074,0.015,0.111,0.019c0.369,0.038,0.74,0.059,1.117,0.059h44.82
		c5.875,0,10.639-4.763,10.639-10.639V145.746C418.471,145.735,418.469,145.724,418.469,145.712z"/>
</g>
<g id="Layer_4">
	<path fill="#201600" d="M298.469,145.712c-0.002-0.333-0.02-0.667-0.051-1c-0.002-0.019-0.002-0.038-0.004-0.056
		c-0.035-0.347-0.088-0.694-0.158-1.038c-0.027-0.138-0.069-0.271-0.104-0.407c-0.049-0.201-0.094-0.403-0.154-0.602
		c-0.053-0.172-0.121-0.338-0.183-0.507c-0.058-0.158-0.107-0.317-0.173-0.473c-0.086-0.203-0.186-0.397-0.283-0.594
		c-0.057-0.115-0.105-0.231-0.167-0.345c-0.167-0.309-0.349-0.609-0.545-0.899c-0.007-0.011-0.017-0.021-0.024-0.032
		c-0.19-0.281-0.396-0.552-0.611-0.813c-0.008-0.009-0.014-0.018-0.021-0.027L183.018,3.873c0-0.001-0.001-0.001-0.002-0.002
		l-0.048-0.058c-0.071-0.085-0.15-0.159-0.224-0.241c-0.15-0.17-0.301-0.341-0.463-0.5c-0.127-0.126-0.26-0.239-0.393-0.357
		c-0.125-0.112-0.246-0.226-0.377-0.332c-0.152-0.124-0.311-0.236-0.468-0.35c-0.122-0.088-0.241-0.18-0.366-0.263
		c-0.16-0.106-0.324-0.201-0.488-0.297c-0.137-0.08-0.271-0.163-0.41-0.237c-0.154-0.082-0.313-0.153-0.471-0.227
		c-0.158-0.074-0.316-0.15-0.479-0.217c-0.146-0.059-0.294-0.108-0.441-0.162c-0.18-0.064-0.359-0.129-0.545-0.185
		c-0.143-0.042-0.289-0.076-0.434-0.112c-0.189-0.048-0.378-0.097-0.571-0.135c-0.163-0.032-0.326-0.051-0.49-0.075
		c-0.177-0.026-0.354-0.056-0.533-0.073c-0.219-0.021-0.438-0.026-0.659-0.033C175.04,0.014,174.926,0,174.808,0h-44.17
		c-0.008,0-0.016,0.001-0.024,0.001c-0.351,0.001-0.703,0.018-1.052,0.054c-0.099,0.01-0.194,0.031-0.292,0.043
		c-0.248,0.032-0.496,0.064-0.741,0.113c-0.164,0.033-0.322,0.081-0.482,0.12c-0.177,0.044-0.354,0.083-0.527,0.136
		c-0.177,0.055-0.347,0.123-0.519,0.186c-0.154,0.057-0.31,0.105-0.461,0.169c-0.189,0.079-0.37,0.172-0.554,0.262
		c-0.129,0.063-0.26,0.118-0.386,0.186c-0.254,0.137-0.497,0.289-0.738,0.445c-0.052,0.033-0.106,0.061-0.158,0.096
		c-0.294,0.198-0.577,0.411-0.849,0.637c-0.005,0.004-0.012,0.008-0.017,0.012c-0.077,0.064-0.143,0.135-0.218,0.201
		c-0.182,0.161-0.365,0.321-0.535,0.493c-0.127,0.128-0.242,0.265-0.362,0.398c-0.11,0.123-0.224,0.243-0.329,0.371
		c-0.126,0.155-0.24,0.317-0.357,0.477c-0.086,0.119-0.176,0.235-0.258,0.358c-0.107,0.16-0.202,0.326-0.299,0.491
		c-0.079,0.136-0.163,0.268-0.236,0.407c-0.082,0.154-0.152,0.311-0.226,0.468c-0.074,0.159-0.151,0.317-0.219,0.48
		c-0.059,0.144-0.108,0.291-0.16,0.437c-0.065,0.181-0.133,0.361-0.188,0.547c-0.042,0.142-0.074,0.286-0.111,0.429
		c-0.048,0.192-0.099,0.382-0.138,0.577c-0.032,0.163-0.051,0.329-0.075,0.493c-0.026,0.176-0.058,0.351-0.075,0.53
		c-0.023,0.243-0.03,0.487-0.037,0.731C120.012,10.445,120,10.54,120,10.638v0.043c0,0.002,0,0.004,0,0.006v61.302l21.277,25.435
		V40.065l91.096,109.527v310.775l-53.903-63.563v32.897l56.428,66.54c0.063,0.073,0.132,0.133,0.195,0.204
		c0.169,0.188,0.341,0.376,0.522,0.552c0.115,0.112,0.234,0.217,0.354,0.32c0.154,0.138,0.311,0.271,0.473,0.399
		c0.135,0.105,0.272,0.207,0.412,0.308c0.159,0.114,0.32,0.22,0.486,0.323c0.144,0.092,0.287,0.182,0.434,0.265
		c0.18,0.102,0.364,0.195,0.55,0.287c0.138,0.065,0.272,0.137,0.413,0.198c0.217,0.096,0.439,0.177,0.664,0.259
		c0.115,0.041,0.229,0.089,0.344,0.126c0.269,0.086,0.543,0.156,0.82,0.223c0.079,0.019,0.156,0.044,0.236,0.061
		c0.321,0.067,0.65,0.118,0.982,0.155c0.037,0.006,0.074,0.015,0.111,0.019c0.368,0.038,0.74,0.059,1.117,0.059h44.819
		c5.876,0,10.639-4.763,10.639-10.639V145.746C298.47,145.735,298.469,145.724,298.469,145.712z"/>
</g>
</svg>
