<?xml version="1.0" encoding="iso-8859-1"?>
<!-- Generator: Adobe Illustrator 21.0.0, SVG Export Plug-In . SVG Version: 6.00 Build 0)  -->
<svg xmlns="http://www.w3.org/2000/svg" xmlns:xlink="http://www.w3.org/1999/xlink" version="1.1" id="Capa_1" x="0px" y="0px" viewBox="0 0 512 512" style="enable-background:new 0 0 512 512;" xml:space="preserve" width="512" height="512">
<g>
	<path d="M497,411.435h-20.863V15c0-8.284-6.716-15-15-15H50.863c-8.284,0-15,6.716-15,15v396.435H15c-8.284,0-15,6.716-15,15V427   c0,46.869,38.131,85,85,85h342c46.869,0,85-38.131,85-85v-0.565C512,418.151,505.284,411.435,497,411.435z M65.863,30h380.273   v381.435h-30.04V76.065c0-8.284-6.716-15-15-15H110.903c-8.284,0-15,6.716-15,15v335.371h-30.04V30z M125.903,411.435V266.25H241   v145.185H125.903z M386.097,91.065V236.25H271V91.065H386.097z M241,236.25H125.903v-39.456l54.346-54.368   c5.857-5.859,5.855-15.356-0.004-21.213c-5.859-5.856-15.357-5.855-21.213,0.004l-33.128,33.142V91.065H241V236.25z M271,266.25   h115.097v145.185H271V266.25z M427,482H85c-25.333,0-46.721-17.218-53.078-40.565h448.156C473.721,464.782,452.333,482,427,482z"/>
	<path d="M176.64,206.757c2.929,2.928,6.767,4.392,10.605,4.392c3.84,0,7.68-1.465,10.608-4.395l12.827-12.832   c5.857-5.859,5.855-15.357-0.004-21.213c-5.859-5.857-15.357-5.855-21.213,0.004l-12.827,12.832   C170.779,191.403,170.781,200.901,176.64,206.757z"/>
</g>















</svg>
