<?xml version="1.0" encoding="utf-8"?>
<!-- Generator: Adobe Illustrator 16.0.0, SVG Export Plug-In . SVG Version: 6.00 Build 0)  -->
<!DOCTYPE svg PUBLIC "-//W3C//DTD SVG 1.1//EN" "http://www.w3.org/Graphics/SVG/1.1/DTD/svg11.dtd">
<svg version="1.1" id="Layer_2" xmlns="http://www.w3.org/2000/svg" xmlns:xlink="http://www.w3.org/1999/xlink" x="0px" y="0px"
	 width="24px" height="24px" viewBox="0 0 24 24" enable-background="new 0 0 24 24" xml:space="preserve">
<path fill="#201600" d="M23.918,6.757l-1.25-1.883c-0.011-0.016-0.028-0.023-0.041-0.038c-0.023-0.028-0.049-0.051-0.078-0.073
	c-0.035-0.027-0.071-0.048-0.112-0.065c-0.018-0.007-0.029-0.022-0.048-0.028l-3.477-1c-0.175-0.049-0.365,0-0.495,0.13
	l-7.647,7.767c-0.016,0.017-0.02,0.04-0.033,0.059c-0.029,0.039-0.054,0.077-0.07,0.122c-0.012,0.033-0.018,0.063-0.023,0.099
	c-0.004,0.024-0.017,0.047-0.017,0.071v8.363c0,0.225,0.149,0.422,0.366,0.482l6,1.657c0.045,0.012,0.09,0.018,0.134,0.018
	c0.1,0,0.19-0.037,0.272-0.092c0.01-0.007,0.021-0.004,0.03-0.011c0.026-0.021,0.041-0.051,0.063-0.075
	c0.017-0.02,0.04-0.029,0.055-0.051l6.125-9.482c0.048-0.074,0.075-0.16,0.079-0.248L24,7.057c0-0.001-0.001-0.002-0.001-0.004
	C24.003,6.95,23.978,6.847,23.918,6.757z M22.209,5.991l0.681,1.026l-5.733,7.669l-0.496-0.771l-0.416-0.648l4.038-4.926
	L22.209,5.991z M18.921,4.713l2.462,0.708L19.235,8.04l-3.786,4.619l-3.38-0.986L18.921,4.713z M11.626,12.584l3.681,1.074
	l0.31,0.481l1.01,1.569v5.571l-5-1.381V12.584z M22.758,12.297l-5.132,7.945v-4.514l3.619-4.841l1.682-2.25L22.758,12.297z"/>
<g>
	<path fill="#201600" d="M10.626,15.799l-4.813,4.114v-5.521l2.447-1.636l3.913-2.616l3.466-3.52l-3.237,2.164l-6.888,4.604
		l-0.982-2.049l4.729-2.544l6.787-3.652l0.456,0.6l0.709-0.72l-0.627-0.825c-0.051-0.067-0.118-0.111-0.19-0.144
		c-0.009-0.004-0.013-0.014-0.022-0.018l-2.813-1.125c-0.126-0.051-0.269-0.046-0.393,0.009L0.793,8.543
		C0.79,8.544,0.788,8.548,0.785,8.55s-0.007,0-0.01,0.002c-0.026,0.013-0.039,0.04-0.062,0.057C0.667,8.643,0.62,8.675,0.588,8.724
		c-0.021,0.03-0.025,0.066-0.039,0.1C0.534,8.864,0.508,8.901,0.503,8.945c-0.001,0.01,0.005,0.018,0.004,0.027S0.5,8.989,0.5,8.998
		v9.252c0,0.171,0.087,0.33,0.231,0.422l4.313,2.748c0.01,0.007,0.023,0.004,0.033,0.01s0.015,0.018,0.026,0.022
		c0.067,0.031,0.139,0.046,0.209,0.046c0.074,0,0.145-0.022,0.212-0.055c0.009-0.004,0.019-0.002,0.028-0.007
		c0.01-0.006,0.014-0.017,0.024-0.023c0.02-0.013,0.042-0.02,0.061-0.035l4.989-4.264V15.799z M13.388,3.918l1.62,0.648l-7.71,4.148
		l-3.38,1.819L1.995,9.112L1.98,9.102L13.388,3.918z M4.813,20.087L1.5,17.976V9.99l0.281,0.208l1.697,1.256l1.335,2.785V20.087z"/>
</g>
</svg>
