<?xml version="1.0" encoding="utf-8"?>
<!-- Generator: Adobe Illustrator 22.0.1, SVG Export Plug-In . SVG Version: 6.00 Build 0)  -->
<svg version="1.1" id="Слой_1" xmlns="http://www.w3.org/2000/svg" xmlns:xlink="http://www.w3.org/1999/xlink" x="0px" y="0px"
	 viewBox="0 0 23.6 15.2" style="enable-background:new 0 0 23.6 15.2;" xml:space="preserve">
<style type="text/css">
	.st0{fill:#201600;}
</style>
<g id="Layer_2">
</g>
<g id="Layer_3">
</g>
<g id="Layer_4">
	<path class="st0" d="M23.6,4.2H19V2.1h-5.2v-2h-5l0,0L0,5.1l0,0h0v4h5v3.1h5.4v3h6.3l6.9-7.9l0,0h0.1C23.6,7.3,23.6,4.2,23.6,4.2z
		 M21.7,5.2l-5.7,6h-3.6l6.5-6h0.9H21.7z M18,4.6L15.4,7l-4.1,3.8V9L18,3.2v0.9L18,4.6z M16.8,3.1l-6.1,5.1H7.2l6.7-5.1h0.6H16.8z
		 M12.8,2.1l0,0.5L6,7.8V5.9l6.8-4.8V2.1z M9.1,1.1h0.7h1.3l-5.7,4H2L9.1,1.1z M1,6.1h4v2H1V6.1z M10.3,11.2H6v-2h4.3
		C10.3,9.2,10.3,11.2,10.3,11.2z M15.7,14.2h-4.3v-2h4.3V14.2z M16.7,12.1l5.8-6.4v1.3l-5.8,6.8V12.1z"/>
</g>
</svg>
