<?xml version="1.0" encoding="iso-8859-1"?>
<!-- Generator: Adobe Illustrator 19.0.0, SVG Export Plug-In . SVG Version: 6.00 Build 0)  -->
<svg version="1.1" id="Capa_1" xmlns="http://www.w3.org/2000/svg" xmlns:xlink="http://www.w3.org/1999/xlink" x="0px" y="0px"
	 viewBox="0 0 368 368" style="enable-background:new 0 0 368 368;" xml:space="preserve">
<g>
	<g>
		<path d="M360,0H56H8C3.584,0,0,3.584,0,8v48v304c0,4.416,3.584,8,8,8h48c4.416,0,8-3.584,8-8v-8h232c2.12,0,4.16-0.84,5.656-2.344
			l48-48C351.16,300.16,352,298.12,352,296V64h8c4.416,0,8-3.584,8-8V8C368,3.584,364.416,0,360,0z M48,352H16V64h32V352z M48,48H16
			V16h32V48z M336,292.688L292.688,336H288v-48h48V292.688z M336,272h-56c-4.416,0-8,3.584-8,8v56H64V192h40c4.416,0,8-3.584,8-8
			c0-4.416-3.584-8-8-8H64V64h112v40c0,4.416,3.584,8,8,8s8-3.584,8-8V64h144V272z M352,48H64V16h288V48z"/>
	</g>
</g>
<g>
	<g>
		<path d="M184,144c-4.416,0-8,3.584-8,8v24h-24c-4.416,0-8,3.584-8,8s3.584,8,8,8h32c4.416,0,8-3.584,8-8v-32
			C192,147.584,188.416,144,184,144z"/>
	</g>
</g>
<g>
</g>
<g>
</g>
<g>
</g>
<g>
</g>
<g>
</g>
<g>
</g>
<g>
</g>
<g>
</g>
<g>
</g>
<g>
</g>
<g>
</g>
<g>
</g>
<g>
</g>
<g>
</g>
<g>
</g>
</svg>
