<?xml version="1.0" encoding="utf-8"?>
<!-- Generator: Adobe Illustrator 22.0.1, SVG Export Plug-In . SVG Version: 6.00 Build 0)  -->
<svg version="1.1" id="Слой_1" xmlns="http://www.w3.org/2000/svg" xmlns:xlink="http://www.w3.org/1999/xlink" x="0px" y="0px"
	 viewBox="0 0 496 493" style="enable-background:new 0 0 496 493;" xml:space="preserve">
<g>
	<path d="M487,456.2L369.2,338.4c29.2-35.6,46.8-81.2,46.8-130.9C416,93.5,323.5,1,209.5,1C95.4,1,3,93.5,3,207.5
		S95.4,414,209.5,414c49.7,0,95.2-17.5,130.8-46.7L458.1,485c8,8,20.9,8,28.9,0C495,477.1,495,464.1,487,456.2z M209.5,372.9
		C118.2,372.9,44,298.7,44,207.5S118.2,42,209.5,42C300.7,42,375,116.3,375,207.5S300.7,372.9,209.5,372.9z"/>
</g>
</svg>
