<?xml version="1.0" encoding="utf-8"?>
<!-- Generator: Adobe Illustrator 16.0.0, SVG Export Plug-In . SVG Version: 6.00 Build 0)  -->
<!DOCTYPE svg PUBLIC "-//W3C//DTD SVG 1.1//EN" "http://www.w3.org/Graphics/SVG/1.1/DTD/svg11.dtd">
<svg version="1.1" id="Layer_2" xmlns="http://www.w3.org/2000/svg" xmlns:xlink="http://www.w3.org/1999/xlink" x="0px" y="0px"
	 width="24px" height="24px" viewBox="0 0 24 24" enable-background="new 0 0 24 24" xml:space="preserve">
<path fill="#201600" d="M0,0v24h24V0H0z M14.088,10.54l6.862,1.56h-8.378l0.495-0.499L14.088,10.54z M14.009,10.009l3.757-3.736
	l-2.539,4.007L14.009,10.009z M14.007,14.179l3.74,3.763l-4.008-2.54L14.007,14.179z M18.019,18.685l1.054,1.054
	c-1.825,1.669-4.232,2.705-6.883,2.752l1.445-6.608L18.019,18.685z M18.28,17.958l-2.643-4.151l6.848-1.524
	c-0.072,2.7-1.165,5.147-2.911,6.97L18.28,17.958z M15.706,10.387l2.81-4.394l1.148-1.148c1.732,1.854,2.806,4.33,2.831,7.056
	L15.706,10.387z M17.779,5.74l-4.131,2.628l-1.526-6.862c2.725,0.031,5.196,1.108,7.048,2.844L17.779,5.74z M12.44,13.308
	l1.02,1.021l-1.485,6.703v-8.185L12.44,13.308z M9.882,10.001l-0.005,0.001L9.872,9.991l-0.091,0.033l-1.14,0.255L6.052,6.193
	l3.82,3.798l0.363-1.66L6.036,5.66l-1.26-1.26c1.822-1.732,4.26-2.816,6.95-2.886L9.872,9.991L9.882,10.001z M9.887,14.119
	l0.025-0.024l0.004,0.021l-0.017,0.007l0.05,0.139l0.242,1.088L6.104,17.94l3.795-3.818L9.887,14.119z M9.712,13.588l-6.851-1.52
	h8.366l-0.494,0.498L9.712,13.588z M5.31,5.923l2.852,4.462l-6.655,1.487C1.539,9.184,2.59,6.742,4.287,4.9L5.31,5.923z
	 M8.229,13.775l-2.658,4.179l-1.218,1.218c-1.698-1.809-2.76-4.213-2.837-6.865L8.229,13.775z M5.827,18.688l4.471-2.858
	l1.481,6.659c-2.676-0.056-5.104-1.117-6.93-2.822L5.827,18.688z M11.44,10.852L10.42,9.831l1.521-6.86v8.376L11.44,10.852z
	 M11.836,1.008C8.96,1.05,6.355,2.197,4.419,4.042L1.376,1h10.461L11.836,1.008z M3.93,4.543C2.12,6.501,1.004,9.11,1.001,11.985H1
	V1.614L3.93,4.543z M1,12.195l0.01,0.002c0.051,2.838,1.176,5.409,2.986,7.333L1,22.525V12.195z M4.491,20.022
	c1.942,1.818,4.537,2.944,7.4,2.972L11.893,23H1.514L4.491,20.022z M12.078,22.996c2.837-0.021,5.411-1.119,7.351-2.9L22.333,23
	H12.077L12.078,22.996z M19.932,19.609c1.859-1.938,3.016-4.552,3.06-7.439L23,12.168v10.511L19.932,19.609z M23,12v0.014l-0.001,0
	C22.999,12.009,23,12.004,23,12c0-2.908-1.137-5.544-2.979-7.511L23,1.509V12z M22.52,1l-2.993,2.993
	C17.561,2.144,14.921,1.002,12.009,1H22.52z"/>
</svg>
