<?xml version="1.0" encoding="utf-8"?>
<!-- Generator: Adobe Illustrator 16.0.0, SVG Export Plug-In . SVG Version: 6.00 Build 0)  -->
<!DOCTYPE svg PUBLIC "-//W3C//DTD SVG 1.1//EN" "http://www.w3.org/Graphics/SVG/1.1/DTD/svg11.dtd">
<svg version="1.1" id="Layer_1" xmlns="http://www.w3.org/2000/svg" xmlns:xlink="http://www.w3.org/1999/xlink" x="0px" y="0px"
	 width="24px" height="24px" viewBox="0 0 24 24" enable-background="new 0 0 24 24" xml:space="preserve">
<path d="M9.667,1.174L9.651,1.248c-0.07,0.313,0.015,0.641,0.227,0.881c0.191,0.216,0.464,0.337,0.749,0.337
	c0.032,0,0.065-0.001,0.098-0.005l0.25-0.024l2.868-0.283l2.188,0.615l3.426,0.963c0.35,0.099,0.786,0.224,1.227,0.351l-1.729,1.093
	c-1.442-0.073-3.753-0.192-3.857-0.198c-0.032-0.003-0.065-0.005-0.098-0.005c-0.412,0-0.788,0.256-0.936,0.648
	c-0.158,0.424-0.014,0.901,0.354,1.165l0.061,0.043l0.865,0.62l-1.54,0.918l-1.265-0.123l-1.785-0.173L8.619,7.908L6.678,7.76
	L2.456,5.659l3.106-1.932L9.667,1.174 M23,6.237v3.64l-1.129,1.88c-0.143,0.238-0.18,0.523-0.104,0.79
	c0.076,0.266,0.26,0.489,0.506,0.615L23,13.534v4.044l-4.217,2.609l-3.12,1.93l-0.019-1.013c-0.004-0.227-0.082-0.441-0.215-0.613
	l1.021-0.9l1.601-1.411c0.351-0.309,0.44-0.819,0.217-1.229c-0.179-0.328-0.52-0.521-0.878-0.521c-0.09,0-0.182,0.012-0.272,0.038
	l-1.422,0.4v-6.21l0.964-0.595l0.849-0.523c0.132-0.082,0.239-0.189,0.317-0.313l0.915,0.655c0.173,0.124,0.377,0.187,0.582,0.187
	c0.16,0,0.321-0.039,0.468-0.116c0.335-0.177,0.541-0.529,0.532-0.908L20.319,8.93c-0.016-0.547-0.008-0.869,0.007-1.057
	l1.933-1.183L23,6.237 M1,8.328c1.384,0.67,3.451,1.672,4.713,2.29c0.111,0.055,0.231,0.088,0.354,0.098l2.307,0.199l4.349,0.374
	l-0.034,5.38l-2.657-1.462l-0.905-0.498c-0.149-0.082-0.315-0.124-0.482-0.124c-0.135,0-0.271,0.027-0.397,0.082L6.365,15.48
	l-1.881,0.814c-0.366,0.159-0.603,0.52-0.603,0.918v0.055c0,0.281,0.118,0.55,0.326,0.739c0.185,0.168,0.426,0.261,0.674,0.261
	c0.03,0,0.061-0.001,0.092-0.004l3.243-0.298l4.66,2.687c-0.095,0.155-0.147,0.336-0.147,0.523v1.531l-4.887-1.325l-0.107-0.313
	l-0.28-0.814c-0.113-0.327-0.387-0.573-0.725-0.65c-0.073-0.017-0.147-0.024-0.221-0.024c-0.266,0-0.524,0.105-0.714,0.3
	L5.57,20.107l-0.484,0.493l-3.28-0.886L1,18.442V8.328 M9.661,0c-3.084,1.918-6.17,3.837-9.254,5.756c2,0.995,4,1.991,6,2.986
	c1.424,0.108,2.848,0.217,4.271,0.326c1.118,0.108,2.237,0.217,3.355,0.326c0.729-0.434,1.459-0.869,2.188-1.303
	c0.236,0.163,0.745,0.561,0.762,0.598c-0.762,0.47-1.525,0.941-2.287,1.412c0,2.696,0,5.395,0,8.09
	c0.898-0.253,1.797-0.506,2.694-0.76c-1.067,0.941-2.136,1.883-3.203,2.824c-1.915-1.104-3.831-2.209-5.746-3.313
	c-1.186,0.108-2.373,0.217-3.559,0.326c0-0.019,0-0.037,0-0.055c1.254-0.543,2.509-1.086,3.763-1.629
	c1.678,0.923,3.356,1.846,5.034,2.77c0.018-2.661,0.034-5.322,0.051-7.982c-2.525-0.217-5.051-0.435-7.576-0.652
	C4.119,8.724,0,6.733,0,6.733v12l1.169,1.847c0,0,2.814,0.761,4.22,1.14c0.373-0.379,0.746-0.76,1.119-1.14
	c0.187,0.543,0.373,1.086,0.56,1.629c2.203,0.597,4.407,1.194,6.61,1.792c0.018,0,0.034,0,0.051,0c0-0.941,0-1.883,0-2.824
	c0.17,0.092,0.34,0.182,0.509,0.272c0.067-0.036,0.339-0.254,0.407-0.326c0.017,0.923,0.033,1.847,0.051,2.77
	c3.102-1.919,6.203-3.837,9.305-5.756c0-1.737,0-3.476,0-5.213c-0.424-0.217-0.848-0.434-1.271-0.651
	c0.424-0.706,0.848-1.412,1.271-2.118c0-1.9,0-3.801,0-5.701c-1.508,0.923-3.018,1.846-4.525,2.769
	c-0.214,0.246-0.162,1.436-0.152,1.846C17.881,8.036,16.44,7.004,15,5.973l0,0c0.038,0.003,2.798,0.146,4.221,0.217
	c1.287-0.814,2.576-1.629,3.864-2.443c0.034,0-2.204-0.651-3.356-0.978c-1.932-0.542-3.864-1.086-5.797-1.629
	c-1.101,0.109-2.203,0.217-3.305,0.326c0.085-0.38,0.169-0.76,0.254-1.14C10.475,0.217,10.068,0.108,9.661,0L9.661,0z"/>
</svg>
